<svg xmlns="http://www.w3.org/2000/svg">
<defs>
<font id="GTAmericaExpandedBold" horiz-adv-x="803" >
  <font-face 
    font-family="GTAmericaExpandedBold"
    font-weight="700"
    font-stretch="ultra-expanded"
    units-per-em="1000"
    panose-1="0 0 8 7 0 0 0 0 0 0"
    ascent="800"
    descent="-200"
    x-height="500"
    cap-height="710"
    bbox="-591 -250 1718 978"
    underline-thickness="50"
    underline-position="-150"
    unicode-range="U+000D-FB02"
  />
<missing-glyph horiz-adv-x="1018" 
d="M998 663h-552v-47h552v-48h-552v-47h552v-48h-552v-47h552v-47h-552v-48h552v-47h-978v426h978v-47zM67 667l13 9h-16l-5 15l-4 -15h-16l13 -9l-5 -15l12 9l13 -9zM142 676h-16l13 -9l-5 -15l12 10l13 -10l-5 15l12 9h-15l-5 15zM229 676h-16l13 -9l-5 -15l12 10l13 -10
l-5 15l12 9h-15l-5 15zM315 676h-15l13 -9l-5 -15l12 10l13 -10l-5 15l12 9h-15l-5 15zM415 667l12 9h-15l-5 15l-5 -15h-15l12 -9l-4 -15l12 10l13 -10zM98 632h-15l12 -9l-4 -14l12 9l12 -9l-4 14l12 9h-15l-5 15zM371 623l13 9h-16l-4 15l-5 -15h-15l12 -9l-5 -14l13 9
l12 -9zM273 364v93h94v80h-94v94h-80v-94h-93v-80h93v-93h80zM67 580l13 9h-16l-5 14l-4 -14h-16l13 -9l-5 -15l12 9l13 -9zM142 589h-16l13 -9l-5 -15l12 9l13 -9l-5 15l12 9h-15l-5 14zM315 589h-15l13 -9l-5 -15l12 9l13 -9l-5 15l12 9h-15l-5 14zM415 580l12 9h-15
l-5 14l-5 -14h-15l12 -9l-4 -15l12 9l13 -9zM67 492l13 10h-16l-5 14l-4 -14h-16l13 -10l-5 -14l12 9l13 -9zM415 492l12 10h-15l-5 14l-5 -14h-15l12 -10l-4 -14l12 9l13 -9zM67 405l13 9h-16l-5 15l-4 -15h-16l13 -9l-5 -14l12 9l13 -9zM154 405l12 9h-15l-5 15l-4 -15
h-16l13 -9l-5 -14l12 9l13 -9zM328 405l12 9h-15l-5 15l-5 -15h-15l13 -9l-5 -14l12 9l13 -9zM415 405l12 9h-15l-5 15l-5 -15h-15l12 -9l-4 -14l12 9l13 -9zM115 347l-4 15l12 9h-15l-5 14l-5 -14h-15l12 -9l-4 -15l12 9zM376 347l-5 15l13 9h-16l-4 14l-5 -14h-15l12 -9
l-5 -15l13 9zM72 303l-5 15l13 9h-16l-5 15l-4 -15h-16l13 -9l-5 -15l12 9zM159 303l-5 15l12 9h-15l-5 15l-4 -15h-16l13 -9l-5 -15l12 9zM246 303l-5 15l12 9h-15l-5 15l-4 -15h-16l13 -9l-5 -15l12 9zM333 303l-5 15l12 9h-15l-5 15l-5 -15h-15l13 -9l-5 -15l12 9z

<glyph glyph-name="fi" unicode="fi" horiz-adv-x="954" 
d="M581 500v-121h-219v-379h-194v379h-153v121h153v19q0 109 71 162.5t217 53.5q63 0 125 -12v-129q-49 10 -108 10q-61 0 -86 -19.5t-25 -67.5v-17h219zM673 574v153h204v-153h-204zM679 0v500h193v-500h-193z" />
    <glyph glyph-name="fl" unicode="fl" horiz-adv-x="964" 
d="M581 500v-121h-219v-379h-194v379h-153v121h153v19q0 109 71 162.5t217 53.5q63 0 125 -12v-129q-49 10 -108 10q-61 0 -86 -19.5t-25 -67.5v-17h219zM877 725v-725h-193v725h193z" />
    <glyph glyph-name="g_g.liga" unicode="gg" horiz-adv-x="1636" 
d="M592 497q13 47 55.5 71.5t106.5 24.5q34 0 49 -4v-120q-19 6 -61 6q-46 0 -71 -13q65 -45 65 -115q0 -83 -89 -129.5t-246 -46.5q-97 0 -168 18q-29 -9 -29 -31q0 -34 61 -34h304q210 0 210 -150q0 -97 -99 -142.5t-309 -45.5q-173 0 -255 29t-82 91q0 65 92 89
q-82 27 -82 96q0 91 129 118q-108 46 -108 138q0 83 88 128t248 45q111 0 191 -23zM1609 469q-18 6 -61 6q-46 0 -71 -13q65 -45 65 -115q0 -82 -90 -129t-245 -47q-85 0 -159 16q-24 -9 -24 -29q0 -33 61 -34h298q108 -1 159 -38t51 -112q0 -96 -101.5 -142t-307.5 -46
q-168 0 -249 29t-81 91q0 64 85 87q-76 28 -76 98q0 43 32 73t90 43q-113 47 -113 140q0 82 87.5 127.5t247.5 45.5q113 0 191 -23q29 96 163 96q35 0 48 -4v-120zM401 262q65 0 101.5 22.5t36.5 62.5t-35.5 61t-102.5 21t-103 -21t-36 -61t36.5 -62.5t102.5 -22.5z
M1207 262q66 0 102.5 22.5t36.5 62.5t-36 61t-103 21t-103 -21t-36 -61t36.5 -62.5t102.5 -22.5zM530 -22l-318 4h-14q-26 -16 -26 -42q0 -37 56.5 -53t171.5 -16q113 0 158 13.5t45 47.5q0 24 -17 35t-56 11zM1344 -22h-312q-13 0 -19 1q-21 -15 -21 -39q0 -69 222 -69
q113 0 158.5 13.5t45.5 47.5q0 46 -74 46z" />
    <glyph glyph-name=".notdef" horiz-adv-x="1018" 
d="M998 663h-552v-47h552v-48h-552v-47h552v-48h-552v-47h552v-47h-552v-48h552v-47h-978v426h978v-47zM67 667l13 9h-16l-5 15l-4 -15h-16l13 -9l-5 -15l12 9l13 -9zM142 676h-16l13 -9l-5 -15l12 10l13 -10l-5 15l12 9h-15l-5 15zM229 676h-16l13 -9l-5 -15l12 10l13 -10
l-5 15l12 9h-15l-5 15zM315 676h-15l13 -9l-5 -15l12 10l13 -10l-5 15l12 9h-15l-5 15zM415 667l12 9h-15l-5 15l-5 -15h-15l12 -9l-4 -15l12 10l13 -10zM98 632h-15l12 -9l-4 -14l12 9l12 -9l-4 14l12 9h-15l-5 15zM371 623l13 9h-16l-4 15l-5 -15h-15l12 -9l-5 -14l13 9
l12 -9zM273 364v93h94v80h-94v94h-80v-94h-93v-80h93v-93h80zM67 580l13 9h-16l-5 14l-4 -14h-16l13 -9l-5 -15l12 9l13 -9zM142 589h-16l13 -9l-5 -15l12 9l13 -9l-5 15l12 9h-15l-5 14zM315 589h-15l13 -9l-5 -15l12 9l13 -9l-5 15l12 9h-15l-5 14zM415 580l12 9h-15
l-5 14l-5 -14h-15l12 -9l-4 -15l12 9l13 -9zM67 492l13 10h-16l-5 14l-4 -14h-16l13 -10l-5 -14l12 9l13 -9zM415 492l12 10h-15l-5 14l-5 -14h-15l12 -10l-4 -14l12 9l13 -9zM67 405l13 9h-16l-5 15l-4 -15h-16l13 -9l-5 -14l12 9l13 -9zM154 405l12 9h-15l-5 15l-4 -15
h-16l13 -9l-5 -14l12 9l13 -9zM328 405l12 9h-15l-5 15l-5 -15h-15l13 -9l-5 -14l12 9l13 -9zM415 405l12 9h-15l-5 15l-5 -15h-15l12 -9l-4 -14l12 9l13 -9zM115 347l-4 15l12 9h-15l-5 14l-5 -14h-15l12 -9l-4 -15l12 9zM376 347l-5 15l13 9h-16l-4 14l-5 -14h-15l12 -9
l-5 -15l13 9zM72 303l-5 15l13 9h-16l-5 15l-4 -15h-16l13 -9l-5 -15l12 9zM159 303l-5 15l12 9h-15l-5 15l-4 -15h-16l13 -9l-5 -15l12 9zM246 303l-5 15l12 9h-15l-5 15l-4 -15h-16l13 -9l-5 -15l12 9zM333 303l-5 15l12 9h-15l-5 15l-5 -15h-15l13 -9l-5 -15l12 9z
M420 303l-5 15l12 9h-15l-5 15l-5 -15h-15l12 -9l-4 -15l12 9zM20 189v48h977v-48h-977zM20 95v47h978v-47h-978zM20 0v47h978v-47h-978z" />
    <glyph glyph-name=".null" horiz-adv-x="0" 
 />
    <glyph glyph-name=".null" horiz-adv-x="0" 
 />
    <glyph glyph-name="nonmarkingreturn" horiz-adv-x="333" 
 />
    <glyph glyph-name="CR" unicode="&#xd;" horiz-adv-x="0" 
 />
    <glyph glyph-name="space" unicode=" " horiz-adv-x="399" 
 />
    <glyph glyph-name="exclam" unicode="!" horiz-adv-x="409" 
d="M122 237l-27 488h220l-27 -488h-166zM314 156v-156h-219v156h219z" />
    <glyph glyph-name="quotedbl" unicode="&#x22;" horiz-adv-x="580" 
d="M97 364l-31 346h197l-32 -346h-134zM349 364l-31 346h197l-32 -346h-134z" />
    <glyph glyph-name="numbersign" unicode="#" horiz-adv-x="847" 
d="M828 411h-158l-24 -128h148v-112h-169l-33 -171h-145l33 171h-184l-33 -171h-144l33 171h-133v112h154l24 128h-138v111h160l32 170h144l-32 -170h184l33 170h144l-32 -170h136v-111zM501 283l25 128h-185l-24 -128h184z" />
    <glyph glyph-name="dollar" unicode="$" horiz-adv-x="879" 
d="M847 213q0 -104 -98 -166t-271 -67v-85h-73v85q-143 5 -249.5 47.5t-155.5 115.5l143 91q77 -106 262 -120v175l-102 10q-126 14 -187.5 62.5t-61.5 136.5q0 99 92 157t259 63v81h73v-82q246 -9 361 -133l-128 -100q-57 89 -233 103v-165l109 -10q134 -13 197 -60
t63 -139zM368 432l37 -3v160q-163 -3 -163 -77q0 -37 29 -55t97 -25zM478 112q179 5 179 87q0 36 -27.5 53.5t-89.5 23.5l-62 6v-170z" />
    <glyph glyph-name="percent" unicode="%" horiz-adv-x="1183" 
d="M144 -17l751 743h152l-752 -743h-151zM284 332q-118 0 -190 53t-72 142q0 86 72 139t189 53q116 0 189 -53.5t73 -141.5q0 -86 -72.5 -139t-188.5 -53zM284 432q50 0 79.5 24.5t29.5 67.5q0 44 -30 69.5t-80 25.5q-51 0 -81 -25t-30 -67q0 -45 30 -70t82 -25zM900 -18
q-118 0 -190 53t-72 142q0 86 72 139t189 53q116 0 189 -53.5t73 -141.5q0 -86 -72.5 -139t-188.5 -53zM900 82q50 0 79.5 24.5t29.5 67.5q0 44 -30 69.5t-80 25.5q-51 0 -81 -25t-30 -67q0 -45 30 -70t82 -25z" />
    <glyph glyph-name="ampersand" unicode="&#x26;" horiz-adv-x="917" 
d="M838 115q31 0 60 9v-124q-42 -18 -84 -18q-87 0 -178 67l-1 1q-119 -75 -289 -75q-164 0 -248.5 58t-84.5 147q0 68 45 115t139 80q-58 46 -84.5 84t-26.5 89q0 90 78.5 139t193.5 49q120 0 192.5 -48t72.5 -132q0 -61 -47.5 -112.5t-114.5 -73.5l-23 -8l185 -137
q62 77 82 185l142 -24q-29 -146 -107 -242q52 -29 98 -29zM358 635q-46 0 -72 -22t-26 -62q0 -30 19 -58t71 -66l19 6q44 15 65.5 47.5t21.5 72.5q0 38 -25.5 60t-72.5 22zM367 98q81 0 152 38l-229 170q-81 -38 -81 -104q0 -47 44 -75.5t114 -28.5z" />
    <glyph glyph-name="quotesingle" unicode="'" horiz-adv-x="328" 
d="M97 364l-31 346h197l-32 -346h-134z" />
    <glyph glyph-name="parenleft" unicode="(" horiz-adv-x="426" 
d="M278 -144q-102 95 -160 220t-58 248q0 124 59.5 250t161.5 213l140 -61q-181 -175 -181 -405q0 -221 183 -403z" />
    <glyph glyph-name="parenright" unicode=")" horiz-adv-x="426" 
d="M148 -144l-145 62q183 182 183 403q0 230 -181 405l140 61q102 -87 161.5 -213t59.5 -250q0 -123 -58 -248t-160 -220z" />
    <glyph glyph-name="asterisk" unicode="*" horiz-adv-x="440" 
d="M422 532l-145 -10l120 -96l-115 -79l-62 143l-62 -143l-115 79l120 96l-144 10l41 128l127 -80l-40 136h146l-40 -136l127 80z" />
    <glyph glyph-name="plus" unicode="+" horiz-adv-x="710" 
d="M664 388v-118h-246v-195h-128v195h-244v118h244v184h128v-184h246z" />
    <glyph glyph-name="comma" unicode="," horiz-adv-x="328" 
d="M99 -165l-19 75q87 16 87 85v5h-101v180h196v-167q0 -71 -38.5 -119t-124.5 -59z" />
    <glyph glyph-name="hyphen" unicode="-" horiz-adv-x="613" 
d="M46 346h521v-136h-521v136z" />
    <glyph glyph-name="period" unicode="." horiz-adv-x="340" 
d="M275 164v-164h-209v164h209z" />
    <glyph glyph-name="slash" unicode="/" horiz-adv-x="733" 
d="M226 -117h-184l465 877h184z" />
    <glyph glyph-name="zero" unicode="0" horiz-adv-x="894" 
d="M447 -24q-181 0 -294.5 100.5t-113.5 271.5t113 271t295 100t294.5 -100t112.5 -271t-113 -271.5t-294 -100.5zM447 115q92 0 148.5 59.5t56.5 173.5t-56.5 173t-148.5 59q-93 0 -149 -59t-56 -173t56.5 -173.5t148.5 -59.5z" />
    <glyph glyph-name="one" unicode="1" horiz-adv-x="545" 
d="M237 0v464q-50 -56 -166 -56h-49v162h28q79 0 134.5 32.5t79.5 92.5h169v-695h-196z" />
    <glyph glyph-name="two" unicode="2" horiz-adv-x="844" 
d="M36 0v132q254 90 413 178q68 38 95 73t27 81q0 50 -40.5 82.5t-118.5 32.5t-122 -35t-44 -99q0 -18 2 -30l-201 18q-3 12 -3 37q0 113 102.5 181t264.5 68q173 0 270.5 -63t97.5 -177q0 -75 -39 -126t-119 -95q-117 -63 -292 -111h465v-147h-758z" />
    <glyph glyph-name="three" unicode="3" horiz-adv-x="840" 
d="M415 -24q-176 0 -276.5 65t-107.5 182l200 16q12 -128 186 -128q84 0 129.5 25t45.5 71q0 47 -40 67.5t-123 20.5h-82v113h81q150 0 150 84q0 43 -42 67.5t-123 24.5q-172 0 -178 -131l-198 19q3 110 101 178.5t273 68.5q177 0 274 -55.5t97 -155.5q0 -69 -49.5 -106
t-126.5 -44q193 -22 193 -167q0 -96 -102 -155.5t-282 -59.5z" />
    <glyph glyph-name="four" unicode="4" horiz-adv-x="865" 
d="M855 149h-155v-149h-193v149h-496v121l470 425h219v-416h155v-130zM508 470q0 68 4 93h-4q-17 -31 -74 -84l-142 -134q-40 -38 -81 -66h297v191z" />
    <glyph glyph-name="five" unicode="5" horiz-adv-x="820" 
d="M406 -24q-153 0 -252.5 58t-115.5 158l194 23q11 -48 58 -76t119 -28q82 0 126.5 32.5t44.5 92.5q0 57 -43 87.5t-122 30.5q-127 0 -174 -87l-176 15l46 413h619v-139h-466l-21 -163q30 41 92.5 64t145.5 23q142 0 222.5 -64t80.5 -178q0 -121 -102.5 -191.5
t-275.5 -70.5z" />
    <glyph glyph-name="six" unicode="6" horiz-adv-x="847" 
d="M484 476q157 0 242 -63.5t85 -180.5q0 -116 -103 -186t-274 -70q-190 0 -292.5 93.5t-102.5 267.5q0 182 106 282t299 100q143 0 238 -52.5t121 -146.5l-201 -26q-33 91 -165 91q-196 0 -207 -200q86 91 254 91zM434 110q79 0 126.5 33.5t47.5 88.5q0 57 -42.5 87
t-122.5 30q-146 0 -201 -106q38 -133 192 -133z" />
    <glyph glyph-name="seven" unicode="7" horiz-adv-x="735" 
d="M193 0v18q0 155 83.5 291t243.5 239h-506v147h703v-138q-309 -207 -309 -517v-40h-215z" />
    <glyph glyph-name="eight" unicode="8" horiz-adv-x="853" 
d="M638 384q94 -28 136 -73.5t42 -118.5q0 -101 -102.5 -158.5t-283.5 -57.5q-185 0 -289 53.5t-104 148.5q0 63 47 105.5t133 59.5q-82 25 -120 67.5t-38 106.5q0 93 99.5 147.5t268.5 54.5q168 0 267.5 -52t99.5 -140q0 -54 -41 -91.5t-115 -51.5zM427 600
q-77 0 -121.5 -22.5t-44.5 -62.5q0 -34 35.5 -55t114.5 -34l92 -14h3l2 -1q84 35 84 97q0 44 -43 68t-122 24zM430 102q84 0 133 26t49 70q0 40 -39 62.5t-133 38.5l-87 15q-111 -34 -111 -110q0 -49 49 -75.5t139 -26.5z" />
    <glyph glyph-name="nine" unicode="9" horiz-adv-x="847" 
d="M406 719q194 0 298 -92.5t104 -264.5q0 -183 -105.5 -284.5t-299.5 -101.5q-141 0 -237 56t-122 154l201 26q34 -98 166 -98q99 0 151.5 53.5t54.5 154.5q-83 -80 -254 -80q-156 0 -241.5 60t-85.5 173t101 178.5t269 65.5zM404 368q76 0 128.5 25.5t74.5 68.5
q-36 130 -196 130q-81 0 -127 -31t-46 -86q0 -51 44 -79t122 -28z" />
    <glyph glyph-name="colon" unicode=":" horiz-adv-x="340" 
d="M275 500v-164h-209v164h209zM275 164v-164h-209v164h209z" />
    <glyph glyph-name="semicolon" unicode=";" horiz-adv-x="340" 
d="M275 500v-164h-209v164h209zM99 -165l-19 75q87 16 87 85v5h-101v180h196v-167q0 -71 -38.5 -119t-124.5 -59z" />
    <glyph glyph-name="less" unicode="&#x3c;" 
d="M664 66l-565 205v110l565 205v-125l-421 -134l421 -134v-127z" />
    <glyph glyph-name="equal" unicode="=" horiz-adv-x="691" 
d="M46 371v108h599v-108h-599zM46 179v108h599v-108h-599z" />
    <glyph glyph-name="greater" unicode="&#x3e;" 
d="M139 66v127l421 134l-421 134v125l565 -205v-110z" />
    <glyph glyph-name="question" unicode="?" horiz-adv-x="802" 
d="M295 202v30q0 51 22 85.5t77 55.5l95 38q44 17 65 39.5t21 58.5q0 42 -43.5 69.5t-124.5 27.5q-85 0 -135 -31.5t-50 -91.5q0 -27 5 -46l-199 18q-6 17 -6 46q0 107 104.5 171t280.5 64q168 0 267.5 -57.5t99.5 -157.5q0 -68 -36.5 -110t-105.5 -71l-91 -38
q-36 -16 -49.5 -34.5t-13.5 -44.5v-21h-183zM281 0v156h215v-156h-215z" />
    <glyph glyph-name="at" unicode="@" horiz-adv-x="1006" 
d="M486 -105q-217 0 -341 101.5t-124 279.5q0 173 135.5 280t353.5 107q216 0 345.5 -100t129.5 -267q0 -107 -57.5 -169.5t-155.5 -62.5q-124 0 -151 92q-68 -99 -218 -99q-89 0 -137.5 33t-48.5 93q0 62 47 94.5t151 42.5l199 18v6q0 82 -111 82q-48 0 -77.5 -17.5
t-32.5 -48.5h-164q8 71 85 116t192 45q128 0 195.5 -49t67.5 -143v-115q0 -67 59 -67q38 0 59.5 39.5t21.5 107.5q0 142 -105.5 222t-294.5 80q-188 0 -298 -86.5t-110 -233.5q0 -145 106 -228.5t290 -83.5q127 0 223 41l28 -61q-106 -49 -262 -49zM468 151q63 0 105 30
t42 76v20l-159 -15q-78 -9 -78 -57q0 -25 24.5 -39.5t65.5 -14.5z" />
    <glyph glyph-name="A" unicode="A" horiz-adv-x="981" 
d="M753 0l-65 143h-395l-65 -143h-218l354 710h253l354 -710h-218zM353 273h275l-70 153q-52 108 -66 164h-3q-14 -56 -66 -164z" />
    <glyph glyph-name="B" unicode="B" horiz-adv-x="950" 
d="M749 373q158 -24 158 -171q0 -87 -65 -144.5t-203 -57.5h-547v710h543q127 0 190.5 -49.5t63.5 -130.5q0 -57 -35.5 -100t-104.5 -57zM580 578h-286v-155h286q100 0 100 82q0 73 -100 73zM589 132q55 0 82 24t27 62t-27 60.5t-82 22.5h-295v-169h295z" />
    <glyph glyph-name="C" unicode="C" horiz-adv-x="965" 
d="M486 -25q-213 0 -339 102.5t-126 274.5q0 170 131.5 276.5t341.5 106.5q173 0 291.5 -71t153.5 -196l-210 -37q-41 150 -237 150q-120 0 -189 -61t-69 -165t70 -165t190 -61q191 0 237 144l206 -44q-44 -122 -161 -188t-290 -66z" />
    <glyph glyph-name="D" unicode="D" horiz-adv-x="992" 
d="M92 0v710h451q199 0 313.5 -89.5t114.5 -253.5q0 -165 -120 -266t-312 -101h-447zM294 137h219q114 0 179 60t65 166q0 102 -66.5 156t-178.5 54h-218v-436z" />
    <glyph glyph-name="E" unicode="E" horiz-adv-x="880" 
d="M294 142h522v-142h-724v710h717v-142h-515v-142h498v-132h-498v-152z" />
    <glyph glyph-name="F" unicode="F" horiz-adv-x="846" 
d="M809 565h-515v-146h498v-142h-498v-277h-202v710h717v-145z" />
    <glyph glyph-name="G" unicode="G" horiz-adv-x="983" 
d="M438 -25q-192 0 -304.5 104t-112.5 268q0 170 128.5 279t343.5 109q168 0 285 -62.5t149 -170.5l-219 -36q-20 55 -77 88.5t-144 33.5q-120 0 -187 -64t-67 -175q0 -106 68 -169t188 -63q110 0 177 44t72 107v3h-268v125h456v-396h-155l-9 122q-38 -63 -118.5 -105
t-205.5 -42z" />
    <glyph glyph-name="H" unicode="H" horiz-adv-x="1015" 
d="M923 710v-710h-203v289h-426v-289h-202v710h202v-280h426v280h203z" />
    <glyph glyph-name="I" unicode="I" horiz-adv-x="386" 
d="M294 0h-202v710h202v-710z" />
    <glyph glyph-name="J" unicode="J" horiz-adv-x="516" 
d="M453 258q0 -271 -304 -271q-85 0 -135 11v156q47 -7 88 -7q71 0 109.5 32t38.5 113v418h203v-452z" />
    <glyph glyph-name="K" unicode="K" horiz-adv-x="956" 
d="M704 0l-250 323l-160 -143v-180h-202v710h202v-330l378 330h249l-313 -270l-2 -1l333 -439h-235z" />
    <glyph glyph-name="L" unicode="L" horiz-adv-x="802" 
d="M92 0v710h202v-552h481v-158h-683z" />
    <glyph glyph-name="M" unicode="M" horiz-adv-x="1210" 
d="M92 0v710h302l183 -430q21 -59 24 -76h2q3 19 25 78l181 428h310v-710h-186v451q0 66 10 122h-4q-18 -58 -43 -115l-204 -458h-190l-198 457q-20 50 -38 116h-5q8 -40 8 -122v-451h-177z" />
    <glyph glyph-name="N" unicode="N" horiz-adv-x="1012" 
d="M92 0v710h216l369 -403q43 -53 56 -80h4v102v381h183v-710h-201l-383 407q-41 47 -57 81h-4v-99v-389h-183z" />
    <glyph glyph-name="O" unicode="O" horiz-adv-x="993" 
d="M497 -25q-217 0 -346.5 103.5t-129.5 276.5t129.5 276.5t346.5 103.5q216 0 346 -103.5t130 -276.5t-130 -276.5t-346 -103.5zM497 125q118 0 190 63.5t72 166.5t-72 166.5t-190 63.5t-190.5 -63t-72.5 -167q0 -103 72.5 -166.5t190.5 -63.5z" />
    <glyph glyph-name="P" unicode="P" horiz-adv-x="887" 
d="M574 710q139 0 218 -63t79 -173q0 -114 -82 -181.5t-219 -67.5h-276v-225h-202v710h482zM524 361q63 0 98.5 28t35.5 80q0 51 -34.5 78t-98.5 27h-231v-213h230z" />
    <glyph glyph-name="Q" unicode="Q" horiz-adv-x="993" 
d="M713 8q59 -35 157 -35q43 0 78 4v-153q-42 -6 -75 -6q-218 0 -306 160q-35 -3 -70 -3q-217 0 -346.5 103.5t-129.5 276.5t129.5 276.5t346.5 103.5q216 0 346 -103.5t130 -276.5q0 -124 -68.5 -214t-191.5 -133zM234 355q0 -103 72.5 -166.5t190.5 -63.5t190 63.5
t72 166.5t-72 166.5t-190 63.5t-190.5 -63t-72.5 -167z" />
    <glyph glyph-name="R" unicode="R" horiz-adv-x="926" 
d="M668 0l-169 251h-205v-251h-202v710h484q82 0 141.5 -19.5t91.5 -53t46.5 -71.5t14.5 -81q0 -67 -38 -125.5t-121 -85.5l185 -274h-228zM294 575v-195h236q67 0 96.5 28t29.5 71q0 42 -29.5 69t-96.5 27h-236z" />
    <glyph glyph-name="S" unicode="S" horiz-adv-x="883" 
d="M447 -25q-156 0 -274 48.5t-173 133.5l144 101q46 -65 127 -102.5t186 -37.5q189 0 189 83q0 33 -25.5 48.5t-88.5 22.5l-218 24q-131 14 -194.5 65.5t-63.5 148.5q0 106 100 165.5t281 59.5q277 0 408 -147l-128 -107q-83 113 -290 113q-169 0 -169 -75q0 -32 26 -47
t94 -22l195 -20q148 -15 212.5 -63t64.5 -146q0 -118 -105 -182t-298 -64z" />
    <glyph glyph-name="T" unicode="T" horiz-adv-x="812" 
d="M802 710v-157h-295v-553h-202v553h-295v157h792z" />
    <glyph glyph-name="U" unicode="U" horiz-adv-x="961" 
d="M63 710h203v-371q0 -93 56 -149t159 -56q100 0 157 56.5t57 148.5v371h202v-392q0 -157 -109 -250t-307 -93t-308 94t-110 251v390z" />
    <glyph glyph-name="V" unicode="V" horiz-adv-x="940" 
d="M348 0l-351 710h225l222 -477q15 -32 24 -72h4q6 32 23 72l222 477h226l-352 -710h-243z" />
    <glyph glyph-name="W" unicode="W" horiz-adv-x="1357" 
d="M264 0l-246 710h206l141 -459q14 -55 15 -68h4q2 21 19 68l170 459h211l169 -459q18 -51 20 -68h4q1 22 15 68l141 459h205l-245 -710h-231l-166 453q-14 39 -15 62h-5q-1 -23 -15 -62l-166 -453h-231z" />
    <glyph glyph-name="X" unicode="X" horiz-adv-x="958" 
d="M4 0l343 364l-330 346h244l180 -201q26 -28 36 -45h4q10 17 36 45l179 201h244l-329 -346l343 -364h-247l-184 206q-37 42 -44 54h-2q-6 -12 -43 -54l-186 -206h-244z" />
    <glyph glyph-name="Y" unicode="Y" horiz-adv-x="895" 
d="M345 0v242l-355 468h230l205 -288q20 -26 24 -40h2q5 16 23 40l212 288h218l-357 -468v-242h-202z" />
    <glyph glyph-name="Z" unicode="Z" horiz-adv-x="879" 
d="M52 132l503 439h-487v139h755v-132l-503 -439h522v-139h-790v132z" />
    <glyph glyph-name="bracketleft" unicode="[" horiz-adv-x="436" 
d="M92 -120v883h333v-120h-160v-643h160v-120h-333z" />
    <glyph glyph-name="backslash" unicode="\" horiz-adv-x="733" 
d="M507 -117l-465 877h184l465 -877h-184z" />
    <glyph glyph-name="bracketright" unicode="]" horiz-adv-x="436" 
d="M344 -120h-333v120h160v643h-160v120h333v-883z" />
    <glyph glyph-name="asciicircum" unicode="^" horiz-adv-x="584" 
d="M211 708h162l191 -267h-158l-114 166l-114 -166h-158z" />
    <glyph glyph-name="underscore" unicode="_" horiz-adv-x="675" 
d="M0 -79h675v-103h-675v103z" />
    <glyph glyph-name="grave" unicode="`" horiz-adv-x="600" 
d="M352 573h-161l-198 157h197z" />
    <glyph glyph-name="a" unicode="a" horiz-adv-x="834" 
d="M295 -19q-120 0 -185 41t-65 117q0 74 64 114q60 36 196 44l260 15v12q0 41 -37.5 62.5t-104.5 21.5t-108.5 -20.5t-49.5 -58.5h-206q15 87 113.5 138.5t250.5 51.5q173 0 255 -56.5t82 -169.5v-137q0 -96 9 -156h-193q-7 42 -7 92q-29 -53 -100 -82t-174 -29zM368 89
q89 0 144 33.5t55 89.5v17l-200 -14q-67 -5 -94.5 -19.5t-27.5 -44.5q0 -62 123 -62z" />
    <glyph glyph-name="b" unicode="b" horiz-adv-x="880" 
d="M532 -19q-85 0 -151.5 28t-105.5 77l-15 -86h-173v725h193v-307q89 101 264 101q139 0 225.5 -73t86.5 -191q0 -122 -89.5 -198t-234.5 -76zM467 104q86 0 137 41t51 109q0 65 -50 103.5t-135 38.5q-87 0 -142 -38t-55 -99v-10q0 -65 53 -105t141 -40z" />
    <glyph glyph-name="c" unicode="c" horiz-adv-x="804" 
d="M408 -19q-177 0 -280.5 73t-103.5 198t103 196t283 71q152 0 248.5 -50.5t121.5 -144.5l-204 -26q-32 93 -172 93q-83 0 -131.5 -37t-48.5 -101t49.5 -103t130.5 -39q143 0 173 93l203 -29q-24 -90 -123.5 -142t-248.5 -52z" />
    <glyph glyph-name="d" unicode="d" horiz-adv-x="880" 
d="M338 -19q-139 0 -226.5 75.5t-87.5 196.5q0 119 89 192.5t233 73.5q166 0 254 -93v299h193v-725h-188v98q-85 -117 -267 -117zM411 105q84 0 138.5 39t54.5 101v12q0 62 -55 101t-142 39q-85 0 -133.5 -39t-48.5 -106q0 -68 50.5 -107.5t135.5 -39.5z" />
    <glyph glyph-name="e" unicode="e" horiz-adv-x="794" 
d="M767 236v-28h-557q11 -51 62.5 -78.5t135.5 -27.5q62 0 113 19.5t79 54.5l148 -64q-109 -131 -348 -131q-177 0 -276.5 70.5t-99.5 196.5q0 127 100.5 199t270.5 72q176 0 274 -75t98 -208zM209 308h366q-2 47 -52 77t-129 30q-78 0 -127 -29t-58 -78z" />
    <glyph glyph-name="f" unicode="f" horiz-adv-x="597" 
d="M581 500v-121h-219v-379h-194v379h-153v121h153v19q0 109 71 162.5t217 53.5q63 0 125 -12v-129q-49 10 -108 10q-61 0 -86 -19.5t-25 -67.5v-17h219z" />
    <glyph glyph-name="g" unicode="g" horiz-adv-x="830" 
d="M803 469q-27 6 -60 6q-45 0 -73 -14q66 -43 66 -114q0 -83 -88.5 -129.5t-246.5 -46.5q-96 0 -167 18q-30 -9 -30 -31q0 -34 61 -34l320 -1q111 -1 163 -37t52 -111q0 -99 -100 -144t-320 -45q-178 0 -262 29.5t-84 91.5q0 67 90 87q-80 30 -80 97q0 44 33.5 74.5
t95.5 43.5q-108 46 -108 138q0 82 87.5 127t248.5 45q113 0 191 -23q27 97 163 97q25 0 48 -4v-120zM401 262q65 0 101.5 22.5t36.5 62.5q0 81 -138 81q-139 0 -139 -81q0 -40 36.5 -62.5t102.5 -22.5zM564 -22h-340q-17 0 -25 1q-21 -16 -21 -39q0 -38 52 -53.5t167 -15.5
q140 0 190.5 14t50.5 50q0 43 -74 43z" />
    <glyph glyph-name="h" unicode="h" horiz-adv-x="886" 
d="M87 0v725h193v-332q34 61 101.5 94t156.5 33q136 0 210 -76.5t74 -218.5v-225h-193v204q0 180 -170 180q-84 0 -131.5 -46t-47.5 -129v-209h-193z" />
    <glyph glyph-name="i" unicode="i" horiz-adv-x="357" 
d="M76 574v153h204v-153h-204zM82 0v500h193v-500h-193z" />
    <glyph glyph-name="j" unicode="j" horiz-adv-x="368" 
d="M85 574v153h204v-153h-204zM48 -206q-53 0 -85 9v138q28 -5 61 -5q35 0 52 24t17 78v462h193v-488q0 -109 -55 -163.5t-183 -54.5z" />
    <glyph glyph-name="k" unicode="k" horiz-adv-x="846" 
d="M605 0l-177 231l-148 -104v-127h-193v725h193v-434l281 209h254l-240 -177l250 -323h-220z" />
    <glyph glyph-name="l" unicode="l" horiz-adv-x="367" 
d="M280 725v-725h-193v725h193z" />
    <glyph glyph-name="m" unicode="m" horiz-adv-x="1278" 
d="M82 500h189v-111q28 63 86 96.5t139 33.5q166 0 223 -130q73 130 243 130q122 0 187 -68.5t65 -198.5v-252h-193v227q0 74 -34 113t-99 39q-67 0 -105.5 -41t-38.5 -113v-225h-192v226q0 153 -133 153q-68 0 -106 -42t-38 -117v-220h-193v500z" />
    <glyph glyph-name="n" unicode="n" horiz-adv-x="881" 
d="M82 0v500h189v-116q72 135 266 135q137 0 208.5 -72t71.5 -210v-237h-193v208q0 173 -165 173q-88 0 -136 -45.5t-48 -129.5v-206h-193z" />
    <glyph glyph-name="o" unicode="o" horiz-adv-x="823" 
d="M411 -19q-175 0 -281 73.5t-106 195.5t106 195.5t281 73.5q176 0 282 -73.5t106 -195.5t-106 -195.5t-282 -73.5zM411 104q85 0 136 39.5t51 106.5t-51 106.5t-136 39.5q-84 0 -135.5 -40t-51.5 -106t51.5 -106t135.5 -40z" />
    <glyph glyph-name="p" unicode="p" horiz-adv-x="875" 
d="M82 -195v695h190v-87q84 106 264 106q142 0 228.5 -73t86.5 -192q0 -122 -89.5 -197.5t-231.5 -75.5q-83 0 -149 26t-106 72v-274h-193zM463 105q87 0 137 40t50 109q0 66 -49 104t-135 38q-87 0 -141 -38t-54 -99v-9q0 -66 52.5 -105.5t139.5 -39.5z" />
    <glyph glyph-name="q" unicode="q" horiz-adv-x="875" 
d="M600 -195v276q-88 -102 -255 -102q-143 0 -232 77t-89 199q0 119 87 192.5t229 73.5q85 0 154 -27.5t110 -79.5l4 86h185v-695h-193zM411 104q88 0 137.5 40.5t49.5 105.5v10q0 60 -51 99t-139 39q-87 0 -138 -37t-51 -105v-1q0 -70 52.5 -110.5t139.5 -40.5z" />
    <glyph glyph-name="r" unicode="r" horiz-adv-x="561" 
d="M251 352q21 74 81.5 117.5t146.5 43.5q31 0 66 -5v-164q-43 8 -80 8q-91 0 -137 -46q-53 -49 -53 -144v-162h-193v500h169v-148z" />
    <glyph glyph-name="s" unicode="s" horiz-adv-x="758" 
d="M404 -19q-265 0 -388 118l93 88q101 -92 313 -92q67 0 96 11t29 36q0 19 -14.5 28t-52.5 12l-216 18q-109 10 -160.5 47.5t-51.5 106.5q0 165 323 165q222 0 339 -90l-77 -91q-98 69 -279 69q-129 0 -129 -43q0 -18 16 -27t54 -12l220 -17q109 -9 157.5 -44.5
t48.5 -104.5q0 -178 -321 -178z" />
    <glyph glyph-name="t" unicode="t" horiz-adv-x="607" 
d="M3 379v121h148v117l193 68v-185h225v-121h-225v-145q0 -103 122 -103q53 0 103 13v-135q-51 -23 -153 -23q-265 0 -265 211v182h-148z" />
    <glyph glyph-name="u" unicode="u" horiz-adv-x="871" 
d="M335 -19q-129 0 -200 64t-71 184v271h193v-225q0 -84 41.5 -122t112.5 -38q90 0 137.5 49.5t47.5 123.5v212h193v-500h-190v117q-33 -67 -103 -101.5t-161 -34.5z" />
    <glyph glyph-name="v" unicode="v" horiz-adv-x="789" 
d="M285 0l-291 500h211l160 -296q16 -30 27 -57h5q11 27 27 57l160 296h211l-291 -500h-219z" />
    <glyph glyph-name="w" unicode="w" horiz-adv-x="1138" 
d="M219 0l-207 500h194l109 -304q8 -26 13 -55h2q1 11 15 55l126 304h196l125 -304q13 -35 16 -55h2q5 29 13 55l109 304h194l-207 -500h-211l-120 288q-14 34 -17 61h-4q-3 -27 -17 -61l-121 -288h-210z" />
    <glyph glyph-name="x" unicode="x" horiz-adv-x="797" 
d="M4 0l262 255l-253 245h237l114 -115q26 -28 35 -47h2q13 24 36 47l114 115h226l-249 -242l266 -258h-240l-128 122q-25 25 -36 46h-2q-15 -25 -38 -46l-126 -122h-220z" />
    <glyph glyph-name="y" unicode="y" horiz-adv-x="774" 
d="M169 -211q-79 0 -120 10v144q49 -7 89 -7q50 0 94 14.5t63 40.5l3 6l-304 503h216l157 -298q19 -39 26 -57h3q5 13 24 54l152 301h207l-290 -525q-55 -99 -129 -142.5t-191 -43.5z" />
    <glyph glyph-name="z" unicode="z" horiz-adv-x="739" 
d="M45 121l396 261h-382v118h630v-119l-393 -263h409v-118h-660v121z" />
    <glyph glyph-name="braceleft" unicode="{" horiz-adv-x="431" 
d="M310 -121q-103 0 -150 37t-47 120v148q0 24 -2.5 37t-11.5 27t-29.5 20.5t-53.5 7.5v106q64 1 80.5 20.5t16.5 67.5v135q0 78 49.5 118.5t145.5 40.5h111v-121h-55q-41 0 -59.5 -17.5t-18.5 -60.5v-93q0 -56 -22 -92t-80 -50q59 -17 80.5 -55t21.5 -94v-111
q0 -41 18.5 -56t60.5 -15h54v-120h-109z" />
    <glyph glyph-name="bar" unicode="|" horiz-adv-x="287" 
d="M87 -117v877h113v-877h-113z" />
    <glyph glyph-name="braceright" unicode="}" horiz-adv-x="431" 
d="M121 -121h-109v120h54q42 0 60.5 15t18.5 56v111q0 56 21.5 94t80.5 55q-58 14 -80 50t-22 92v93q0 43 -18.5 60.5t-59.5 17.5h-55v121h111q96 0 145.5 -40.5t49.5 -118.5v-135q0 -48 16.5 -67.5t80.5 -20.5v-106q-63 -1 -80 -23t-17 -69v-148q0 -83 -47 -120t-150 -37z
" />
    <glyph glyph-name="asciitilde" unicode="~" 
d="M515 219q-45 0 -83 16.5t-69.5 33t-60.5 16.5q-73 0 -82 -67l-116 29q11 72 61 109t123 37q47 0 86.5 -16.5t71.5 -33.5t59 -17q66 0 78 71l115 -21q-10 -80 -61.5 -118.5t-121.5 -38.5z" />
    <glyph glyph-name="uni00A0" unicode="&#xa0;" horiz-adv-x="399" 
 />
    <glyph glyph-name="exclamdown" unicode="&#xa1;" horiz-adv-x="409" 
d="M314 424h-219v156h219v-156zM122 343h166l27 -488h-220z" />
    <glyph glyph-name="cent" unicode="&#xa2;" horiz-adv-x="810" 
d="M449 103q123 12 153 101l184 -30q-22 -83 -112 -134t-225 -58v-86h-72v86q-164 8 -258.5 79.5t-94.5 189.5t94 188.5t259 78.5v75h72v-75q138 -6 226 -56.5t112 -137.5l-187 -25q-27 89 -151 101v-297zM207 251q0 -63 45.5 -102.5t124.5 -46.5v299q-80 -7 -125 -46.5
t-45 -103.5z" />
    <glyph glyph-name="sterling" unicode="&#xa3;" horiz-adv-x="852" 
d="M658 214l187 -23q-16 -98 -87.5 -154t-179.5 -56q-51 0 -139 15t-155 15q-109 0 -239 -19l-32 93q146 39 146 165q0 32 -6 61h-108v92h86q-9 40 -9 72q0 113 91 177.5t249 64.5q299 0 344 -192l-186 -34q-23 96 -155 96q-151 0 -151 -112q0 -32 9 -72h247v-92h-225
q3 -19 3 -41q0 -99 -95 -135q58 10 92 10q37 0 98.5 -9t97.5 -9q102 0 117 87z" />
    <glyph glyph-name="currency" unicode="&#xa4;" horiz-adv-x="696" 
d="M656 303q0 -85 -55 -146l65 -56l-72 -68l-76 66q-70 -32 -166 -32q-102 0 -180 38l-77 -66l-71 67l69 61q-47 58 -47 136q0 80 48 137l-70 61l71 67l79 -66q74 37 178 37q100 0 172 -35l76 65l72 -67l-67 -58q51 -59 51 -141zM352 181q74 0 117.5 33t43.5 89
q0 54 -43.5 86t-117.5 32q-75 0 -119 -32t-44 -86q0 -56 44 -89t119 -33z" />
    <glyph glyph-name="yen" unicode="&#xa5;" horiz-adv-x="922" 
d="M932 695l-346 -391h264v-71h-289v-57h289v-71h-289v-105h-200v105h-282v71h282v57h-282v71h257l-346 391h227l179 -211q37 -44 66 -88h4q32 46 67 88l184 211h215z" />
    <glyph glyph-name="brokenbar" unicode="&#xa6;" horiz-adv-x="287" 
d="M200 760v-375h-113v375h113zM200 264v-381h-113v381h113z" />
    <glyph glyph-name="section" unicode="&#xa7;" horiz-adv-x="728" 
d="M621 196q55 -38 55 -118q0 -93 -92.5 -146.5t-252.5 -53.5q-237 0 -331 112l99 84q79 -79 255 -79q137 0 137 62q0 26 -17 39t-60 18l-193 22q-107 13 -155.5 48.5t-48.5 102.5q0 77 85 120q-64 36 -64 119q0 87 88.5 138t238.5 51q207 0 307 -91l-93 -86q-87 63 -230 63
q-129 0 -129 -56q0 -25 16.5 -36.5t58.5 -16.5l198 -22q109 -12 156 -47.5t47 -105.5q0 -75 -75 -121zM291 258l195 -21q3 0 5 -1q28 18 28 49q0 28 -21 41.5t-77 21.5l-184 21q-44 -16 -44 -52q0 -26 21.5 -39t76.5 -20z" />
    <glyph glyph-name="dieresis" unicode="&#xa8;" horiz-adv-x="600" 
d="M44 579v144h182v-144h-182zM374 579v144h182v-144h-182z" />
    <glyph glyph-name="copyright" unicode="&#xa9;" horiz-adv-x="931" 
d="M465 -25q-203 0 -323.5 102t-120.5 278t120.5 278t323.5 102t324 -102t121 -278t-121 -278t-324 -102zM465 38q168 0 271 85.5t103 231.5t-103 231.5t-271 85.5t-270.5 -85.5t-102.5 -231.5t102.5 -231.5t270.5 -85.5zM475 140q-127 0 -197 58.5t-70 156.5t69 156.5
t197 58.5q108 0 174 -41t79 -110l-143 -20q-7 32 -36 52t-76 20q-56 0 -90.5 -32t-34.5 -84t34 -83.5t91 -31.5q96 0 113 73l143 -21q-14 -68 -79.5 -110t-173.5 -42z" />
    <glyph glyph-name="ordfeminine" unicode="&#xaa;" horiz-adv-x="641" 
d="M227 296q-89 0 -136.5 30t-47.5 86q0 60 50 85t138 30l180 11v9q0 60 -87 60t-98 -51h-174q12 62 86 98t186 36q132 0 193 -42.5t61 -127.5v-103q0 -69 6 -107h-163q-5 25 -5 65q-17 -36 -68 -57.5t-121 -21.5zM288 380q56 0 91.5 22.5t35.5 59.5v16l-129 -10
q-80 -6 -80 -43q0 -21 22 -33t60 -12z" />
    <glyph glyph-name="guillemotleft" unicode="&#xab;" horiz-adv-x="791" 
d="M266 67l-242 209l247 206h183l-245 -205l242 -210h-185zM586 67l-242 209l247 206h183l-245 -205l242 -210h-185z" />
    <glyph glyph-name="logicalnot" unicode="&#xac;" 
d="M116 387h569v-265h-118v154h-451v111z" />
    <glyph glyph-name="registered" unicode="&#xae;" horiz-adv-x="931" 
d="M465 735q203 0 324 -102t121 -278t-121 -278t-324 -102t-323.5 102t-120.5 278t120.5 278t323.5 102zM465 38q168 0 271 85.5t103 231.5t-103 231.5t-271 85.5t-270.5 -85.5t-102.5 -231.5t102.5 -231.5t270.5 -85.5zM722 431q0 -96 -100 -125l101 -150h-149l-83 136
h-100v-136h-132v406h301q78 0 120 -34.5t42 -96.5zM391 478v-103h127q67 0 67 52q0 51 -66 51h-128z" />
    <glyph glyph-name="macron" unicode="&#xaf;" horiz-adv-x="600" 
d="M56 593v104h497v-104h-497z" />
    <glyph glyph-name="degree" unicode="&#xb0;" horiz-adv-x="515" 
d="M258 269q-102 0 -169 62t-67 162q0 101 67 162.5t169 61.5t169 -61.5t67 -162.5q0 -100 -67 -162t-169 -62zM258 368q56 0 91.5 34.5t35.5 90.5q0 57 -35.5 91.5t-91.5 34.5t-91.5 -34.5t-35.5 -91.5q0 -56 35.5 -90.5t91.5 -34.5z" />
    <glyph glyph-name="plusminus" unicode="&#xb1;" 
d="M465 410h245v-118h-245v-152h-129v152h-243v118h243v152h129v-152zM93 0v107h617v-107h-617z" />
    <glyph glyph-name="acute" unicode="&#xb4;" horiz-adv-x="600" 
d="M44 573l162 157h197l-198 -157h-161z" />
    <glyph glyph-name="uni00B5" unicode="&#xb5;" horiz-adv-x="888" 
d="M614 500h193v-500h-190v117q-33 -67 -103 -101.5t-161 -34.5q-49 0 -95 11v-187h-176v695h193v-225q0 -84 41.5 -122t112.5 -38q90 0 137.5 49.5t47.5 123.5v212z" />
    <glyph glyph-name="paragraph" unicode="&#xb6;" horiz-adv-x="888" 
d="M361 323q-155 0 -231 47.5t-76 149.5q0 200 328 200h458v-90h-123v-730h-101v730h-154v-730h-101v423z" />
    <glyph glyph-name="periodcentered" unicode="&#xb7;" horiz-adv-x="340" 
d="M275 419v-164h-209v164h209z" />
    <glyph glyph-name="cedilla" unicode="&#xb8;" horiz-adv-x="600" 
d="M146 3h90l-48 -60q29 16 77 16q61 0 96 -24.5t35 -67.5q0 -46 -46 -71.5t-129 -25.5q-112 0 -156 57l92 29q22 -25 65 -25q52 0 52 36q0 35 -50 35q-31 0 -52 -16l-94 18z" />
    <glyph glyph-name="ordmasculine" unicode="&#xba;" horiz-adv-x="635" 
d="M318 296q-134 0 -213.5 53t-79.5 144q0 90 79.5 143.5t213.5 53.5q133 0 212 -53.5t79 -143.5q0 -91 -79 -144t-212 -53zM318 395q54 0 88 26.5t34 71.5q0 44 -34 70.5t-88 26.5q-55 0 -89 -26.5t-34 -70.5q0 -45 34 -71.5t89 -26.5z" />
    <glyph glyph-name="guillemotright" unicode="&#xbb;" horiz-adv-x="791" 
d="M205 67h-185l242 210l-245 205h183l247 -206zM525 67h-185l242 210l-245 205h183l247 -206z" />
    <glyph glyph-name="onequarter" unicode="&#xbc;" horiz-adv-x="1099" 
d="M111 -17l585 744h159l-585 -744h-159zM155 317v251q-32 -26 -102 -26h-30v100h17q97 0 131 68h102v-393h-118zM1083 82h-89v-82h-116v82h-302v74l282 237h136v-231h89v-80zM878 314l-177 -152h177v152z" />
    <glyph glyph-name="onehalf" unicode="&#xbd;" horiz-adv-x="1152" 
d="M111 -17l585 744h159l-585 -744h-159zM155 317v251q-32 -26 -102 -26h-30v100h17q97 0 131 68h102v-393h-118zM644 0v83q196 60 252 88q81 40 81 86q0 29 -26.5 46t-72.5 17q-47 0 -76 -18.5t-29 -55.5q0 -9 4 -19l-124 11q-3 14 -3 23q0 66 64.5 106t162.5 40
q105 0 166 -36.5t61 -104.5q0 -115 -233 -174h242v-92h-469z" />
    <glyph glyph-name="threequarters" unicode="&#xbe;" horiz-adv-x="1281" 
d="M293 -17l585 744h159l-585 -744h-159zM264 303q-106 0 -167.5 36.5t-69.5 104.5l121 11q13 -67 116 -67q110 0 110 47q0 23 -22 32.5t-76 9.5h-61v76h62q88 0 88 40q0 46 -100 46q-108 0 -115 -68l-118 13q5 66 66 103t169 37q100 0 160 -31t60 -88q0 -38 -28.5 -60
t-76.5 -26q117 -13 117 -91q0 -58 -64.5 -91.5t-170.5 -33.5zM1265 82h-89v-82h-116v82h-302v74l282 237h136v-231h89v-80zM1060 314l-177 -152h177v152z" />
    <glyph glyph-name="questiondown" unicode="&#xbf;" horiz-adv-x="802" 
d="M521 580v-156h-215v156h215zM507 378v-30q0 -51 -22 -85.5t-77 -55.5l-95 -38q-44 -17 -65 -39.5t-21 -58.5q0 -42 43.5 -69.5t124.5 -27.5q85 0 135 31.5t50 91.5q0 27 -5 46l199 -18q6 -17 6 -46q0 -107 -104.5 -171t-280.5 -64q-168 0 -267.5 57.5t-99.5 157.5
q0 68 36.5 110t105.5 71l91 38q36 16 49.5 34.5t13.5 44.5v21h183z" />
    <glyph glyph-name="Agrave" unicode="&#xc0;" horiz-adv-x="981" 
d="M571 760h-167l-180 118h196zM753 0l-65 143h-395l-65 -143h-218l354 710h253l354 -710h-218zM353 273h275l-70 153q-52 108 -66 164h-3q-14 -56 -66 -164z" />
    <glyph glyph-name="Aacute" unicode="&#xc1;" horiz-adv-x="981" 
d="M754 878l-180 -118h-167l151 118h196zM753 0l-65 143h-395l-65 -143h-218l354 710h253l354 -710h-218zM353 273h275l-70 153q-52 108 -66 164h-3q-14 -56 -66 -164z" />
    <glyph glyph-name="Acircumflex" unicode="&#xc2;" horiz-adv-x="981" 
d="M491 825l-88 -65h-165l152 118h202l152 -118h-165zM753 0l-65 143h-395l-65 -143h-218l354 710h253l354 -710h-218zM353 273h275l-70 153q-52 108 -66 164h-3q-14 -56 -66 -164z" />
    <glyph glyph-name="Atilde" unicode="&#xc3;" horiz-adv-x="981" 
d="M399 804q-53 0 -67 -54l-99 41q33 114 161 114q52 0 108.5 -24.5t82.5 -24.5q52 0 68 53l99 -41q-33 -113 -161 -113q-52 0 -109 24.5t-83 24.5zM753 0l-65 143h-395l-65 -143h-218l354 710h253l354 -710h-218zM353 273h275l-70 153q-52 108 -66 164h-3q-14 -56 -66 -164
z" />
    <glyph glyph-name="Adieresis" unicode="&#xc4;" horiz-adv-x="981" 
d="M417 878v-118h-181v118h181zM746 878v-118h-182v118h182zM753 0l-65 143h-395l-65 -143h-218l354 710h253l354 -710h-218zM353 273h275l-70 153q-52 108 -66 164h-3q-14 -56 -66 -164z" />
    <glyph glyph-name="Aring" unicode="&#xc5;" horiz-adv-x="981" 
d="M491 742q-65 0 -105.5 32.5t-40.5 85.5t40.5 85.5t105.5 32.5t105.5 -32.5t40.5 -85.5t-40.5 -85.5t-105.5 -32.5zM491 913q-27 0 -43 -15t-16 -38t16 -38t43 -15q25 0 41.5 15t16.5 38t-16.5 38t-41.5 15zM753 0l-65 143h-395l-65 -143h-218l354 710h253l354 -710h-218z
M353 273h275l-70 153q-52 108 -66 164h-3q-14 -56 -66 -164z" />
    <glyph glyph-name="AE" unicode="&#xc6;" horiz-adv-x="1484" 
d="M883 142h538v-142h-741v142h-338l-109 -142h-231l591 710h821v-142h-531v-142h514v-132h-514v-152zM439 268h241v312z" />
    <glyph glyph-name="Ccedilla" unicode="&#xc7;" horiz-adv-x="965" 
d="M494 129q191 0 237 144l206 -44q-40 -113 -145 -178.5t-260 -74.5l-27 -33q29 16 77 16q61 0 96 -24.5t35 -67.5q0 -46 -46 -71.5t-129 -25.5q-112 0 -156 57l92 29q22 -25 65 -25q52 0 52 36q0 35 -50 35q-31 0 -52 -16l-94 18l50 72q-196 11 -310 112t-114 264
q0 170 131.5 276.5t341.5 106.5q173 0 291.5 -71t153.5 -196l-210 -37q-41 150 -237 150q-120 0 -189 -61t-69 -165t70 -165t190 -61z" />
    <glyph glyph-name="Egrave" unicode="&#xc8;" horiz-adv-x="880" 
d="M543 760h-167l-180 118h196zM294 142h522v-142h-724v710h717v-142h-515v-142h498v-132h-498v-152z" />
    <glyph glyph-name="Eacute" unicode="&#xc9;" horiz-adv-x="880" 
d="M726 878l-180 -118h-167l151 118h196zM294 142h522v-142h-724v710h717v-142h-515v-142h498v-132h-498v-152z" />
    <glyph glyph-name="Ecircumflex" unicode="&#xca;" horiz-adv-x="880" 
d="M463 825l-88 -65h-165l152 118h202l152 -118h-165zM294 142h522v-142h-724v710h717v-142h-515v-142h498v-132h-498v-152z" />
    <glyph glyph-name="Edieresis" unicode="&#xcb;" horiz-adv-x="880" 
d="M389 878v-118h-181v118h181zM718 878v-118h-182v118h182zM294 142h522v-142h-724v710h717v-142h-515v-142h498v-132h-498v-152z" />
    <glyph glyph-name="Igrave" unicode="&#xcc;" horiz-adv-x="386" 
d="M275 760h-165l-128 118h181zM294 0h-202v710h202v-710z" />
    <glyph glyph-name="Iacute" unicode="&#xcd;" horiz-adv-x="386" 
d="M110 760l112 118h181l-128 -118h-165zM294 0h-202v710h202v-710z" />
    <glyph glyph-name="Icircumflex" unicode="&#xce;" horiz-adv-x="386" 
d="M357 760h-119l-45 74l-44 -74h-120l79 119h171zM294 0h-202v710h202v-710z" />
    <glyph glyph-name="Idieresis" unicode="&#xcf;" horiz-adv-x="386" 
d="M22 760v118h150v-118h-150zM214 760v118h150v-118h-150zM294 0h-202v710h202v-710z" />
    <glyph glyph-name="Eth" unicode="&#xd0;" horiz-adv-x="992" 
d="M543 710q199 0 313.5 -89.5t114.5 -253.5q0 -165 -120 -266t-312 -101h-447v307h-80v115h80v288h451zM513 137q114 0 179 60t65 166q0 102 -66.5 156t-178.5 54h-218v-151h247v-115h-247v-170h219z" />
    <glyph glyph-name="Ntilde" unicode="&#xd1;" horiz-adv-x="1012" 
d="M612 755q-52 0 -109 24.5t-83 24.5q-53 0 -67 -54l-99 41q33 114 161 114q52 0 108.5 -24.5t82.5 -24.5q52 0 68 53l99 -41q-33 -113 -161 -113zM92 0v710h216l369 -403q43 -53 56 -80h4v102v381h183v-710h-201l-383 407q-41 47 -57 81h-4v-99v-389h-183z" />
    <glyph glyph-name="Ograve" unicode="&#xd2;" horiz-adv-x="993" 
d="M577 760h-167l-180 118h196zM497 -25q-217 0 -346.5 103.5t-129.5 276.5t129.5 276.5t346.5 103.5q216 0 346 -103.5t130 -276.5t-130 -276.5t-346 -103.5zM497 125q118 0 190 63.5t72 166.5t-72 166.5t-190 63.5t-190.5 -63t-72.5 -167q0 -103 72.5 -166.5t190.5 -63.5z
" />
    <glyph glyph-name="Oacute" unicode="&#xd3;" horiz-adv-x="993" 
d="M413 760l151 118h196l-180 -118h-167zM497 -25q-217 0 -346.5 103.5t-129.5 276.5t129.5 276.5t346.5 103.5q216 0 346 -103.5t130 -276.5t-130 -276.5t-346 -103.5zM497 125q118 0 190 63.5t72 166.5t-72 166.5t-190 63.5t-190.5 -63t-72.5 -167q0 -103 72.5 -166.5
t190.5 -63.5z" />
    <glyph glyph-name="Ocircumflex" unicode="&#xd4;" horiz-adv-x="993" 
d="M750 760h-165l-88 65l-88 -65h-165l152 118h202zM497 -25q-217 0 -346.5 103.5t-129.5 276.5t129.5 276.5t346.5 103.5q216 0 346 -103.5t130 -276.5t-130 -276.5t-346 -103.5zM497 125q118 0 190 63.5t72 166.5t-72 166.5t-190 63.5t-190.5 -63t-72.5 -167
q0 -103 72.5 -166.5t190.5 -63.5z" />
    <glyph glyph-name="Otilde" unicode="&#xd5;" horiz-adv-x="993" 
d="M597 755q-52 0 -109 24.5t-83 24.5q-53 0 -67 -54l-99 41q33 114 161 114q52 0 108.5 -24.5t82.5 -24.5q52 0 68 53l99 -41q-33 -113 -161 -113zM497 -25q-217 0 -346.5 103.5t-129.5 276.5t129.5 276.5t346.5 103.5q216 0 346 -103.5t130 -276.5t-130 -276.5
t-346 -103.5zM497 125q118 0 190 63.5t72 166.5t-72 166.5t-190 63.5t-190.5 -63t-72.5 -167q0 -103 72.5 -166.5t190.5 -63.5z" />
    <glyph glyph-name="Odieresis" unicode="&#xd6;" horiz-adv-x="993" 
d="M242 760v118h181v-118h-181zM570 760v118h182v-118h-182zM497 -25q-217 0 -346.5 103.5t-129.5 276.5t129.5 276.5t346.5 103.5q216 0 346 -103.5t130 -276.5t-130 -276.5t-346 -103.5zM497 125q118 0 190 63.5t72 166.5t-72 166.5t-190 63.5t-190.5 -63t-72.5 -167
q0 -103 72.5 -166.5t190.5 -63.5z" />
    <glyph glyph-name="multiply" unicode="&#xd7;" 
d="M698 504l-209 -178l209 -179l-85 -78l-212 182l-212 -181l-84 77l208 178l-208 179l85 77l211 -180l211 180z" />
    <glyph glyph-name="Oslash" unicode="&#xd8;" horiz-adv-x="993" 
d="M859 618q114 -103 114 -263q0 -173 -130 -276.5t-346 -103.5q-172 0 -293 68l-81 -71l-63 55l75 65q-114 103 -114 263q0 173 129.5 276.5t346.5 103.5q172 0 293 -68l80 70l64 -54zM234 355q0 -79 44 -137l375 328q-66 39 -156 39q-118 0 -190.5 -63t-72.5 -167z
M497 125q118 0 190 63.5t72 166.5q0 78 -44 136l-374 -328q67 -38 156 -38z" />
    <glyph glyph-name="Ugrave" unicode="&#xd9;" horiz-adv-x="961" 
d="M561 760h-167l-180 118h196zM63 710h203v-371q0 -93 56 -149t159 -56q100 0 157 56.5t57 148.5v371h202v-392q0 -157 -109 -250t-307 -93t-308 94t-110 251v390z" />
    <glyph glyph-name="Uacute" unicode="&#xda;" horiz-adv-x="961" 
d="M397 760l151 118h196l-180 -118h-167zM63 710h203v-371q0 -93 56 -149t159 -56q100 0 157 56.5t57 148.5v371h202v-392q0 -157 -109 -250t-307 -93t-308 94t-110 251v390z" />
    <glyph glyph-name="Ucircumflex" unicode="&#xdb;" horiz-adv-x="961" 
d="M734 760h-165l-88 65l-88 -65h-165l152 118h202zM63 710h203v-371q0 -93 56 -149t159 -56q100 0 157 56.5t57 148.5v371h202v-392q0 -157 -109 -250t-307 -93t-308 94t-110 251v390z" />
    <glyph glyph-name="Udieresis" unicode="&#xdc;" horiz-adv-x="961" 
d="M226 760v118h181v-118h-181zM554 760v118h182v-118h-182zM63 710h203v-371q0 -93 56 -149t159 -56q100 0 157 56.5t57 148.5v371h202v-392q0 -157 -109 -250t-307 -93t-308 94t-110 251v390z" />
    <glyph glyph-name="Yacute" unicode="&#xdd;" horiz-adv-x="895" 
d="M367 760l151 118h196l-180 -118h-167zM345 0v242l-355 468h230l205 -288q20 -26 24 -40h2q5 16 23 40l212 288h218l-357 -468v-242h-202z" />
    <glyph glyph-name="Thorn" unicode="&#xde;" horiz-adv-x="830" 
d="M521 607q137 0 215 -63t78 -179q0 -115 -78 -178t-215 -63h-227v-124h-202v710h202v-103h227zM466 259q133 0 133 106t-133 106h-172v-212h172z" />
    <glyph glyph-name="germandbls" unicode="&#xdf;" horiz-adv-x="900" 
d="M80 464q0 133 96.5 202.5t288.5 69.5q167 0 262 -51t95 -143q0 -67 -48 -108.5t-137 -51.5q109 -9 169 -56.5t60 -124.5q0 -105 -91 -160t-263 -55q-70 0 -148 13v124q60 -12 117 -12q183 0 183 100q0 99 -194 99h-102v114h91q160 2 160 94q0 95 -163 95
q-95 0 -139 -36.5t-44 -116.5v-460h-193v464z" />
    <glyph glyph-name="agrave" unicode="&#xe0;" horiz-adv-x="834" 
d="M510 573h-161l-198 157h197zM295 -19q-120 0 -185 41t-65 117q0 74 64 114q60 36 196 44l260 15v12q0 41 -37.5 62.5t-104.5 21.5t-108.5 -20.5t-49.5 -58.5h-206q15 87 113.5 138.5t250.5 51.5q173 0 255 -56.5t82 -169.5v-137q0 -96 9 -156h-193q-7 42 -7 92
q-29 -53 -100 -82t-174 -29zM368 89q89 0 144 33.5t55 89.5v17l-200 -14q-67 -5 -94.5 -19.5t-27.5 -44.5q0 -62 123 -62z" />
    <glyph glyph-name="aacute" unicode="&#xe1;" horiz-adv-x="834" 
d="M337 573l162 157h197l-198 -157h-161zM295 -19q-120 0 -185 41t-65 117q0 74 64 114q60 36 196 44l260 15v12q0 41 -37.5 62.5t-104.5 21.5t-108.5 -20.5t-49.5 -58.5h-206q15 87 113.5 138.5t250.5 51.5q173 0 255 -56.5t82 -169.5v-137q0 -96 9 -156h-193q-7 42 -7 92
q-29 -53 -100 -82t-174 -29zM368 89q89 0 144 33.5t55 89.5v17l-200 -14q-67 -5 -94.5 -19.5t-27.5 -44.5q0 -62 123 -62z" />
    <glyph glyph-name="acircumflex" unicode="&#xe2;" horiz-adv-x="834" 
d="M680 573h-155l-101 101l-101 -101h-155l155 157h201zM295 -19q-120 0 -185 41t-65 117q0 74 64 114q60 36 196 44l260 15v12q0 41 -37.5 62.5t-104.5 21.5t-108.5 -20.5t-49.5 -58.5h-206q15 87 113.5 138.5t250.5 51.5q173 0 255 -56.5t82 -169.5v-137q0 -96 9 -156
h-193q-7 42 -7 92q-29 -53 -100 -82t-174 -29zM368 89q89 0 144 33.5t55 89.5v17l-200 -14q-67 -5 -94.5 -19.5t-27.5 -44.5q0 -62 123 -62z" />
    <glyph glyph-name="atilde" unicode="&#xe3;" horiz-adv-x="834" 
d="M533 585q-55 0 -115.5 29t-88.5 29q-55 0 -70 -62l-103 41q30 123 158 123q56 0 116 -29t89 -29q55 0 70 62l102 -41q-29 -123 -158 -123zM295 -19q-120 0 -185 41t-65 117q0 74 64 114q60 36 196 44l260 15v12q0 41 -37.5 62.5t-104.5 21.5t-108.5 -20.5t-49.5 -58.5
h-206q15 87 113.5 138.5t250.5 51.5q173 0 255 -56.5t82 -169.5v-137q0 -96 9 -156h-193q-7 42 -7 92q-29 -53 -100 -82t-174 -29zM368 89q89 0 144 33.5t55 89.5v17l-200 -14q-67 -5 -94.5 -19.5t-27.5 -44.5q0 -62 123 -62z" />
    <glyph glyph-name="adieresis" unicode="&#xe4;" horiz-adv-x="834" 
d="M168 579v144h182v-144h-182zM498 579v144h182v-144h-182zM295 -19q-120 0 -185 41t-65 117q0 74 64 114q60 36 196 44l260 15v12q0 41 -37.5 62.5t-104.5 21.5t-108.5 -20.5t-49.5 -58.5h-206q15 87 113.5 138.5t250.5 51.5q173 0 255 -56.5t82 -169.5v-137q0 -96 9 -156
h-193q-7 42 -7 92q-29 -53 -100 -82t-174 -29zM368 89q89 0 144 33.5t55 89.5v17l-200 -14q-67 -5 -94.5 -19.5t-27.5 -44.5q0 -62 123 -62z" />
    <glyph glyph-name="aring" unicode="&#xe5;" horiz-adv-x="834" 
d="M424 557q-87 0 -136 33t-49 88q0 56 49 88.5t136 32.5q88 0 136.5 -32.5t48.5 -88.5q0 -55 -48.5 -88t-136.5 -33zM424 623q43 0 66 15t23 40t-23 40t-66 15t-66 -15t-23 -40t23 -40t66 -15zM295 -19q-120 0 -185 41t-65 117q0 74 64 114q60 36 196 44l260 15v12
q0 41 -37.5 62.5t-104.5 21.5t-108.5 -20.5t-49.5 -58.5h-206q15 87 113.5 138.5t250.5 51.5q173 0 255 -56.5t82 -169.5v-137q0 -96 9 -156h-193q-7 42 -7 92q-29 -53 -100 -82t-174 -29zM368 89q89 0 144 33.5t55 89.5v17l-200 -14q-67 -5 -94.5 -19.5t-27.5 -44.5
q0 -62 123 -62z" />
    <glyph glyph-name="ae" unicode="&#xe6;" horiz-adv-x="1285" 
d="M1258 237v-28h-520q10 -51 57 -79t123 -28q117 0 173 75l148 -65q-104 -131 -329 -131q-212 0 -303 111q-89 -111 -297 -111q-127 0 -196 40.5t-69 114.5q0 72 64.5 112t189.5 44l247 9v12q0 93 -133 93q-67 0 -107 -21t-45 -59h-202q12 88 108.5 140.5t247.5 52.5
q167 0 241 -67q93 67 249 67q167 0 260 -74.5t93 -207.5zM737 308h329q-5 49 -49.5 78t-112.5 29q-73 0 -116.5 -27.5t-50.5 -79.5zM548 206v16l-196 -8q-107 -3 -107 -64t119 -61q82 0 133 32t51 85z" />
    <glyph glyph-name="ccedilla" unicode="&#xe7;" horiz-adv-x="804" 
d="M404 111q143 0 173 93l203 -29q-22 -84 -110.5 -135t-222.5 -58l-31 -39q29 16 77 16q61 0 96 -24.5t35 -67.5q0 -46 -46 -71.5t-129 -25.5q-112 0 -156 57l92 29q22 -25 65 -25q52 0 52 36q0 35 -50 35q-31 0 -52 -16l-94 18l54 79q-156 10 -246 82t-90 187
q0 125 103 196t283 71q152 0 248.5 -50.5t121.5 -144.5l-204 -26q-32 93 -172 93q-83 0 -131.5 -37t-48.5 -101t49.5 -103t130.5 -39z" />
    <glyph glyph-name="egrave" unicode="&#xe8;" horiz-adv-x="794" 
d="M482 573h-161l-198 157h197zM767 236v-28h-557q11 -51 62.5 -78.5t135.5 -27.5q62 0 113 19.5t79 54.5l148 -64q-109 -131 -348 -131q-177 0 -276.5 70.5t-99.5 196.5q0 127 100.5 199t270.5 72q176 0 274 -75t98 -208zM209 308h366q-2 47 -52 77t-129 30q-78 0 -127 -29
t-58 -78z" />
    <glyph glyph-name="eacute" unicode="&#xe9;" horiz-adv-x="794" 
d="M668 730l-198 -157h-161l162 157h197zM767 236v-28h-557q11 -51 62.5 -78.5t135.5 -27.5q62 0 113 19.5t79 54.5l148 -64q-109 -131 -348 -131q-177 0 -276.5 70.5t-99.5 196.5q0 127 100.5 199t270.5 72q176 0 274 -75t98 -208zM209 308h366q-2 47 -52 77t-129 30
q-78 0 -127 -29t-58 -78z" />
    <glyph glyph-name="ecircumflex" unicode="&#xea;" horiz-adv-x="794" 
d="M396 674l-101 -101h-155l155 157h201l156 -157h-155zM767 236v-28h-557q11 -51 62.5 -78.5t135.5 -27.5q62 0 113 19.5t79 54.5l148 -64q-109 -131 -348 -131q-177 0 -276.5 70.5t-99.5 196.5q0 127 100.5 199t270.5 72q176 0 274 -75t98 -208zM209 308h366q-2 47 -52 77
t-129 30q-78 0 -127 -29t-58 -78z" />
    <glyph glyph-name="edieresis" unicode="&#xeb;" horiz-adv-x="794" 
d="M322 723v-144h-182v144h182zM652 723v-144h-182v144h182zM767 236v-28h-557q11 -51 62.5 -78.5t135.5 -27.5q62 0 113 19.5t79 54.5l148 -64q-109 -131 -348 -131q-177 0 -276.5 70.5t-99.5 196.5q0 127 100.5 199t270.5 72q176 0 274 -75t98 -208zM209 308h366
q-2 47 -52 77t-129 30q-78 0 -127 -29t-58 -78z" />
    <glyph glyph-name="igrave" unicode="&#xec;" horiz-adv-x="357" 
d="M256 573h-158l-126 157h177zM82 0v500h193v-500h-193z" />
    <glyph glyph-name="iacute" unicode="&#xed;" horiz-adv-x="357" 
d="M99 573l107 157h177l-126 -157h-158zM82 0v500h193v-500h-193z" />
    <glyph glyph-name="icircumflex" unicode="&#xee;" horiz-adv-x="357" 
d="M336 573h-113l-45 107l-44 -107h-113l76 158h162zM82 0v500h193v-500h-193z" />
    <glyph glyph-name="idieresis" unicode="&#xef;" horiz-adv-x="357" 
d="M-3 579v144h157v-144h-157zM202 579v144h156v-144h-156zM82 0v500h193v-500h-193z" />
    <glyph glyph-name="eth" unicode="&#xf0;" horiz-adv-x="851" 
d="M666 623q140 -132 140 -329q0 -141 -107 -227t-298 -86t-284 69.5t-93 191.5q0 112 88 183t238 71q169 0 254 -101h2q-20 96 -128 175l-146 -41l-22 48l109 31q-46 26 -103 48l177 83q70 -34 125 -75l109 31l20 -49zM415 111q92 0 143 36t51 96t-52 97.5t-142 37.5
q-92 0 -141 -37t-49 -98q0 -60 49 -96t141 -36z" />
    <glyph glyph-name="ntilde" unicode="&#xf1;" horiz-adv-x="881" 
d="M603 585q-55 0 -115.5 29t-88.5 29q-55 0 -70 -62l-103 41q30 123 158 123q56 0 116 -29t89 -29q55 0 70 62l102 -41q-29 -123 -158 -123zM82 0v500h189v-116q72 135 266 135q137 0 208.5 -72t71.5 -210v-237h-193v208q0 173 -165 173q-88 0 -136 -45.5t-48 -129.5v-206
h-193z" />
    <glyph glyph-name="ograve" unicode="&#xf2;" horiz-adv-x="823" 
d="M497 573h-161l-198 157h197zM411 -19q-175 0 -281 73.5t-106 195.5t106 195.5t281 73.5q176 0 282 -73.5t106 -195.5t-106 -195.5t-282 -73.5zM411 104q85 0 136 39.5t51 106.5t-51 106.5t-136 39.5q-84 0 -135.5 -40t-51.5 -106t51.5 -106t135.5 -40z" />
    <glyph glyph-name="oacute" unicode="&#xf3;" horiz-adv-x="823" 
d="M324 573l162 157h197l-198 -157h-161zM411 -19q-175 0 -281 73.5t-106 195.5t106 195.5t281 73.5q176 0 282 -73.5t106 -195.5t-106 -195.5t-282 -73.5zM411 104q85 0 136 39.5t51 106.5t-51 106.5t-136 39.5q-84 0 -135.5 -40t-51.5 -106t51.5 -106t135.5 -40z" />
    <glyph glyph-name="ocircumflex" unicode="&#xf4;" horiz-adv-x="823" 
d="M667 573h-155l-101 101l-101 -101h-155l155 157h201zM411 -19q-175 0 -281 73.5t-106 195.5t106 195.5t281 73.5q176 0 282 -73.5t106 -195.5t-106 -195.5t-282 -73.5zM411 104q85 0 136 39.5t51 106.5t-51 106.5t-136 39.5q-84 0 -135.5 -40t-51.5 -106t51.5 -106
t135.5 -40z" />
    <glyph glyph-name="otilde" unicode="&#xf5;" horiz-adv-x="823" 
d="M520 585q-55 0 -115.5 29t-88.5 29q-29 0 -45.5 -14.5t-24.5 -47.5l-103 41q30 123 158 123q55 0 116 -29t89 -29q55 0 70 62l102 -41q-28 -123 -158 -123zM411 -19q-175 0 -281 73.5t-106 195.5t106 195.5t281 73.5q176 0 282 -73.5t106 -195.5t-106 -195.5t-282 -73.5z
M411 104q85 0 136 39.5t51 106.5t-51 106.5t-136 39.5q-84 0 -135.5 -40t-51.5 -106t51.5 -106t135.5 -40z" />
    <glyph glyph-name="odieresis" unicode="&#xf6;" horiz-adv-x="823" 
d="M155 579v144h182v-144h-182zM485 579v144h182v-144h-182zM411 -19q-175 0 -281 73.5t-106 195.5t106 195.5t281 73.5q176 0 282 -73.5t106 -195.5t-106 -195.5t-282 -73.5zM411 104q85 0 136 39.5t51 106.5t-51 106.5t-136 39.5q-84 0 -135.5 -40t-51.5 -106t51.5 -106
t135.5 -40z" />
    <glyph glyph-name="divide" unicode="&#xf7;" horiz-adv-x="710" 
d="M354 446q-34 0 -56 21.5t-22 55.5t22 56t56 22t56.5 -21.5t22.5 -56.5q0 -34 -22.5 -55.5t-56.5 -21.5zM46 268v119h618v-119h-618zM354 52q-34 0 -56 21.5t-22 55.5t22 56t56 22t56.5 -21.5t22.5 -56.5q0 -34 -22.5 -55.5t-56.5 -21.5z" />
    <glyph glyph-name="oslash" unicode="&#xf8;" horiz-adv-x="823" 
d="M715 428q84 -70 84 -178q0 -122 -106 -195.5t-282 -73.5q-141 0 -241 50l-87 -64l-51 48l77 56q-85 70 -85 179q0 122 106 195.5t281 73.5q143 0 243 -50l87 63l48 -50zM224 250q0 -45 24 -78l274 200q-45 24 -111 24q-84 0 -135.5 -40t-51.5 -106zM411 104
q85 0 136 39.5t51 106.5q0 44 -23 76l-273 -199q46 -23 109 -23z" />
    <glyph glyph-name="ugrave" unicode="&#xf9;" horiz-adv-x="871" 
d="M509 573h-161l-198 157h197zM335 -19q-129 0 -200 64t-71 184v271h193v-225q0 -84 41.5 -122t112.5 -38q90 0 137.5 49.5t47.5 123.5v212h193v-500h-190v117q-33 -67 -103 -101.5t-161 -34.5z" />
    <glyph glyph-name="uacute" unicode="&#xfa;" horiz-adv-x="871" 
d="M336 573l162 157h197l-198 -157h-161zM335 -19q-129 0 -200 64t-71 184v271h193v-225q0 -84 41.5 -122t112.5 -38q90 0 137.5 49.5t47.5 123.5v212h193v-500h-190v117q-33 -67 -103 -101.5t-161 -34.5z" />
    <glyph glyph-name="ucircumflex" unicode="&#xfb;" horiz-adv-x="871" 
d="M679 573h-155l-101 101l-101 -101h-155l155 157h201zM335 -19q-129 0 -200 64t-71 184v271h193v-225q0 -84 41.5 -122t112.5 -38q90 0 137.5 49.5t47.5 123.5v212h193v-500h-190v117q-33 -67 -103 -101.5t-161 -34.5z" />
    <glyph glyph-name="udieresis" unicode="&#xfc;" horiz-adv-x="871" 
d="M167 579v144h182v-144h-182zM497 579v144h182v-144h-182zM335 -19q-129 0 -200 64t-71 184v271h193v-225q0 -84 41.5 -122t112.5 -38q90 0 137.5 49.5t47.5 123.5v212h193v-500h-190v117q-33 -67 -103 -101.5t-161 -34.5z" />
    <glyph glyph-name="yacute" unicode="&#xfd;" horiz-adv-x="774" 
d="M301 573l162 157h197l-198 -157h-161zM169 -211q-79 0 -120 10v144q49 -7 89 -7q50 0 94 14.5t63 40.5l3 6l-304 503h216l157 -298q19 -39 26 -57h3q5 13 24 54l152 301h207l-290 -525q-55 -99 -129 -142.5t-191 -43.5z" />
    <glyph glyph-name="thorn" unicode="&#xfe;" horiz-adv-x="880" 
d="M87 -195v920h193v-310q84 104 262 104q141 0 227.5 -73.5t86.5 -193.5q0 -121 -89 -196t-232 -75q-167 0 -255 99v-275h-193zM469 105q87 0 136.5 39.5t49.5 108.5q0 66 -49.5 104.5t-134.5 38.5q-87 0 -141 -38t-54 -100v-10q0 -64 53 -103.5t140 -39.5z" />
    <glyph glyph-name="ydieresis" unicode="&#xff;" horiz-adv-x="774" 
d="M132 579v144h182v-144h-182zM462 579v144h182v-144h-182zM169 -211q-79 0 -120 10v144q49 -7 89 -7q50 0 94 14.5t63 40.5l3 6l-304 503h216l157 -298q19 -39 26 -57h3q5 13 24 54l152 301h207l-290 -525q-55 -99 -129 -142.5t-191 -43.5z" />
    <glyph glyph-name="Amacron" unicode="&#x100;" horiz-adv-x="981" 
d="M736 863v-102h-490v102h490zM753 0l-65 143h-395l-65 -143h-218l354 710h253l354 -710h-218zM353 273h275l-70 153q-52 108 -66 164h-3q-14 -56 -66 -164z" />
    <glyph glyph-name="amacron" unicode="&#x101;" horiz-adv-x="834" 
d="M175 593v104h497v-104h-497zM295 -19q-120 0 -185 41t-65 117q0 74 64 114q60 36 196 44l260 15v12q0 41 -37.5 62.5t-104.5 21.5t-108.5 -20.5t-49.5 -58.5h-206q15 87 113.5 138.5t250.5 51.5q173 0 255 -56.5t82 -169.5v-137q0 -96 9 -156h-193q-7 42 -7 92
q-29 -53 -100 -82t-174 -29zM368 89q89 0 144 33.5t55 89.5v17l-200 -14q-67 -5 -94.5 -19.5t-27.5 -44.5q0 -62 123 -62z" />
    <glyph glyph-name="Abreve" unicode="&#x102;" horiz-adv-x="981" 
d="M491 755q-94 0 -153 32t-66 91h124q12 -45 95 -45q84 0 96 45h124q-7 -59 -66 -91t-154 -32zM753 0l-65 143h-395l-65 -143h-218l354 710h253l354 -710h-218zM353 273h275l-70 153q-52 108 -66 164h-3q-14 -56 -66 -164z" />
    <glyph glyph-name="abreve" unicode="&#x103;" horiz-adv-x="834" 
d="M331 730q11 -78 93 -78q83 0 92 78h130q-7 -80 -65 -121t-157 -41t-157.5 41t-65.5 121h130zM295 -19q-120 0 -185 41t-65 117q0 74 64 114q60 36 196 44l260 15v12q0 41 -37.5 62.5t-104.5 21.5t-108.5 -20.5t-49.5 -58.5h-206q15 87 113.5 138.5t250.5 51.5
q173 0 255 -56.5t82 -169.5v-137q0 -96 9 -156h-193q-7 42 -7 92q-29 -53 -100 -82t-174 -29zM368 89q89 0 144 33.5t55 89.5v17l-200 -14q-67 -5 -94.5 -19.5t-27.5 -44.5q0 -62 123 -62z" />
    <glyph glyph-name="Aogonek" unicode="&#x104;" horiz-adv-x="981" 
d="M865 -90l116 -15q-7 -49 -55 -76t-127 -27q-76 0 -120 27t-44 74q0 79 116 111l-63 139h-395l-65 -143h-218l354 710h253l354 -710h-57q-76 -7 -112.5 -32t-36.5 -57q0 -19 13 -31t33 -12q43 0 54 42zM353 273h275l-70 153q-52 108 -66 164h-3q-14 -56 -66 -164z" />
    <glyph glyph-name="aogonek" unicode="&#x105;" horiz-adv-x="834" 
d="M688 -90l116 -15q-7 -49 -55 -76t-127 -27q-76 0 -120 27t-44 74q0 80 117 112q-6 48 -6 87q-29 -53 -100 -82t-174 -29q-120 0 -185 41t-65 117q0 74 64 114q60 36 196 44l260 15v12q0 41 -37.5 62.5t-104.5 21.5t-108.5 -20.5t-49.5 -58.5h-206q15 87 113.5 138.5
t250.5 51.5q173 0 255 -56.5t82 -169.5v-137q0 -96 9 -156h-32q-76 -7 -112.5 -32t-36.5 -57q0 -19 13 -31t33 -12q44 0 54 42zM567 212v17l-200 -14q-67 -5 -94.5 -19.5t-27.5 -44.5q0 -62 123 -62q89 0 144 33.5t55 89.5z" />
    <glyph glyph-name="Cacute" unicode="&#x106;" horiz-adv-x="965" 
d="M407 760l151 118h196l-180 -118h-167zM486 -25q-213 0 -339 102.5t-126 274.5q0 170 131.5 276.5t341.5 106.5q173 0 291.5 -71t153.5 -196l-210 -37q-41 150 -237 150q-120 0 -189 -61t-69 -165t70 -165t190 -61q191 0 237 144l206 -44q-44 -122 -161 -188t-290 -66z
" />
    <glyph glyph-name="cacute" unicode="&#x107;" horiz-adv-x="804" 
d="M318 573l162 157h197l-198 -157h-161zM408 -19q-177 0 -280.5 73t-103.5 198t103 196t283 71q152 0 248.5 -50.5t121.5 -144.5l-204 -26q-32 93 -172 93q-83 0 -131.5 -37t-48.5 -101t49.5 -103t130.5 -39q143 0 173 93l203 -29q-24 -90 -123.5 -142t-248.5 -52z" />
    <glyph glyph-name="Ccircumflex" unicode="&#x108;" horiz-adv-x="965" 
d="M744 760h-165l-88 65l-88 -65h-165l152 118h202zM486 -25q-213 0 -339 102.5t-126 274.5q0 170 131.5 276.5t341.5 106.5q173 0 291.5 -71t153.5 -196l-210 -37q-41 150 -237 150q-120 0 -189 -61t-69 -165t70 -165t190 -61q191 0 237 144l206 -44q-44 -122 -161 -188
t-290 -66z" />
    <glyph glyph-name="ccircumflex" unicode="&#x109;" horiz-adv-x="804" 
d="M661 573h-155l-101 101l-101 -101h-155l155 157h201zM408 -19q-177 0 -280.5 73t-103.5 198t103 196t283 71q152 0 248.5 -50.5t121.5 -144.5l-204 -26q-32 93 -172 93q-83 0 -131.5 -37t-48.5 -101t49.5 -103t130.5 -39q143 0 173 93l203 -29q-24 -90 -123.5 -142
t-248.5 -52z" />
    <glyph glyph-name="Cdotaccent" unicode="&#x10a;" horiz-adv-x="965" 
d="M388 760v118h205v-118h-205zM486 -25q-213 0 -339 102.5t-126 274.5q0 170 131.5 276.5t341.5 106.5q173 0 291.5 -71t153.5 -196l-210 -37q-41 150 -237 150q-120 0 -189 -61t-69 -165t70 -165t190 -61q191 0 237 144l206 -44q-44 -122 -161 -188t-290 -66z" />
    <glyph glyph-name="cdotaccent" unicode="&#x10b;" horiz-adv-x="804" 
d="M303 574v153h204v-153h-204zM408 -19q-177 0 -280.5 73t-103.5 198t103 196t283 71q152 0 248.5 -50.5t121.5 -144.5l-204 -26q-32 93 -172 93q-83 0 -131.5 -37t-48.5 -101t49.5 -103t130.5 -39q143 0 173 93l203 -29q-24 -90 -123.5 -142t-248.5 -52z" />
    <glyph glyph-name="Ccaron" unicode="&#x10c;" horiz-adv-x="965" 
d="M744 874l-152 -118h-202l-152 118h165l88 -65l88 65h165zM486 -25q-213 0 -339 102.5t-126 274.5q0 170 131.5 276.5t341.5 106.5q173 0 291.5 -71t153.5 -196l-210 -37q-41 150 -237 150q-120 0 -189 -61t-69 -165t70 -165t190 -61q191 0 237 144l206 -44
q-44 -122 -161 -188t-290 -66z" />
    <glyph glyph-name="ccaron" unicode="&#x10d;" horiz-adv-x="804" 
d="M149 725h155l101 -101l101 101h155l-155 -157h-201zM408 -19q-177 0 -280.5 73t-103.5 198t103 196t283 71q152 0 248.5 -50.5t121.5 -144.5l-204 -26q-32 93 -172 93q-83 0 -131.5 -37t-48.5 -101t49.5 -103t130.5 -39q143 0 173 93l203 -29q-24 -90 -123.5 -142
t-248.5 -52z" />
    <glyph glyph-name="Dcaron" unicode="&#x10e;" horiz-adv-x="992" 
d="M752 874l-152 -118h-202l-152 118h165l88 -65l88 65h165zM92 0v710h451q199 0 313.5 -89.5t114.5 -253.5q0 -165 -120 -266t-312 -101h-447zM294 137h219q114 0 179 60t65 166q0 102 -66.5 156t-178.5 54h-218v-436z" />
    <glyph glyph-name="dcaron" unicode="&#x10f;" horiz-adv-x="880" 
d="M338 -19q-139 0 -226.5 75.5t-87.5 196.5q0 119 89 192.5t233 73.5q166 0 254 -93v299h193v-725h-188v98q-85 -117 -267 -117zM894 520l-24 52q57 7 62 38h-93v100h182v-69q0 -106 -127 -121zM411 105q84 0 138.5 39t54.5 101v12q0 62 -55 101t-142 39q-85 0 -133.5 -39
t-48.5 -106q0 -68 50.5 -107.5t135.5 -39.5z" />
    <glyph glyph-name="Dcroat" unicode="&#x110;" horiz-adv-x="992" 
d="M543 710q199 0 313.5 -89.5t114.5 -253.5q0 -165 -120 -266t-312 -101h-447v307h-80v115h80v288h451zM513 137q114 0 179 60t65 166q0 102 -66.5 156t-178.5 54h-218v-151h247v-115h-247v-170h219z" />
    <glyph glyph-name="dcroat" unicode="&#x111;" horiz-adv-x="880" 
d="M896 659v-89h-103v-570h-188v98q-85 -117 -267 -117q-139 0 -226.5 75.5t-87.5 196.5q0 119 89 192.5t233 73.5q166 0 254 -93v144h-247v89h247v66h193v-66h103zM604 245v12q0 62 -55 101t-142 39q-85 0 -133.5 -39t-48.5 -106q0 -68 50.5 -107.5t135.5 -39.5
q84 0 138.5 39t54.5 101z" />
    <glyph glyph-name="Emacron" unicode="&#x112;" horiz-adv-x="880" 
d="M708 863v-102h-490v102h490zM294 142h522v-142h-724v710h717v-142h-515v-142h498v-132h-498v-152z" />
    <glyph glyph-name="emacron" unicode="&#x113;" horiz-adv-x="794" 
d="M644 697v-104h-497v104h497zM767 236v-28h-557q11 -51 62.5 -78.5t135.5 -27.5q62 0 113 19.5t79 54.5l148 -64q-109 -131 -348 -131q-177 0 -276.5 70.5t-99.5 196.5q0 127 100.5 199t270.5 72q176 0 274 -75t98 -208zM209 308h366q-2 47 -52 77t-129 30q-78 0 -127 -29
t-58 -78z" />
    <glyph glyph-name="Ebreve" unicode="&#x114;" horiz-adv-x="880" 
d="M463 755q-94 0 -153 32t-66 91h124q12 -45 95 -45q84 0 96 45h124q-7 -59 -66 -91t-154 -32zM294 142h522v-142h-724v710h717v-142h-515v-142h498v-132h-498v-152z" />
    <glyph glyph-name="ebreve" unicode="&#x115;" horiz-adv-x="794" 
d="M396 568q-99 0 -157.5 41t-65.5 121h130q11 -78 93 -78q83 0 92 78h130q-7 -80 -65 -121t-157 -41zM767 236v-28h-557q11 -51 62.5 -78.5t135.5 -27.5q62 0 113 19.5t79 54.5l148 -64q-109 -131 -348 -131q-177 0 -276.5 70.5t-99.5 196.5q0 127 100.5 199t270.5 72
q176 0 274 -75t98 -208zM209 308h366q-2 47 -52 77t-129 30q-78 0 -127 -29t-58 -78z" />
    <glyph glyph-name="Edotaccent" unicode="&#x116;" horiz-adv-x="880" 
d="M565 878v-118h-205v118h205zM294 142h522v-142h-724v710h717v-142h-515v-142h498v-132h-498v-152z" />
    <glyph glyph-name="edotaccent" unicode="&#x117;" horiz-adv-x="794" 
d="M498 727v-153h-204v153h204zM767 236v-28h-557q11 -51 62.5 -78.5t135.5 -27.5q62 0 113 19.5t79 54.5l148 -64q-109 -131 -348 -131q-177 0 -276.5 70.5t-99.5 196.5q0 127 100.5 199t270.5 72q176 0 274 -75t98 -208zM209 308h366q-2 47 -52 77t-129 30q-78 0 -127 -29
t-58 -78z" />
    <glyph glyph-name="Eogonek" unicode="&#x118;" horiz-adv-x="880" 
d="M766 -90l116 -15q-7 -49 -55 -76t-127 -27q-76 0 -120 27t-44 74q0 74 101 107h-545v710h717v-142h-515v-142h498v-132h-498v-152h522v-142h-1q-76 -7 -112.5 -32t-36.5 -57q0 -19 13 -31t33 -12q44 0 54 42z" />
    <glyph glyph-name="eogonek" unicode="&#x119;" horiz-adv-x="794" 
d="M767 236v-28h-557q11 -51 62.5 -78.5t135.5 -27.5q62 0 113 19.5t79 54.5l148 -64q-86 -103 -256 -125q-61 -26 -61 -70q0 -19 13 -31t33 -12q43 0 54 42l116 -15q-7 -49 -55 -76t-127 -27q-76 0 -120 27t-44 74q0 51 49 84q-154 10 -240 79t-86 186q0 127 100.5 199
t270.5 72q176 0 274 -75t98 -208zM209 308h366q-2 47 -52 77t-129 30q-78 0 -127 -29t-58 -78z" />
    <glyph glyph-name="Ecaron" unicode="&#x11a;" horiz-adv-x="880" 
d="M564 756h-202l-152 118h165l88 -65l88 65h165zM294 142h522v-142h-724v710h717v-142h-515v-142h498v-132h-498v-152z" />
    <glyph glyph-name="ecaron" unicode="&#x11b;" horiz-adv-x="794" 
d="M497 568h-201l-156 157h155l101 -101l101 101h155zM767 236v-28h-557q11 -51 62.5 -78.5t135.5 -27.5q62 0 113 19.5t79 54.5l148 -64q-109 -131 -348 -131q-177 0 -276.5 70.5t-99.5 196.5q0 127 100.5 199t270.5 72q176 0 274 -75t98 -208zM209 308h366q-2 47 -52 77
t-129 30q-78 0 -127 -29t-58 -78z" />
    <glyph glyph-name="Gcircumflex" unicode="&#x11c;" horiz-adv-x="983" 
d="M754 760h-165l-88 65l-88 -65h-165l152 118h202zM438 -25q-192 0 -304.5 104t-112.5 268q0 170 128.5 279t343.5 109q168 0 285 -62.5t149 -170.5l-219 -36q-20 55 -77 88.5t-144 33.5q-120 0 -187 -64t-67 -175q0 -106 68 -169t188 -63q110 0 177 44t72 107v3h-268v125
h456v-396h-155l-9 122q-38 -63 -118.5 -105t-205.5 -42z" />
    <glyph glyph-name="gcircumflex" unicode="&#x11d;" horiz-adv-x="830" 
d="M396 683l-101 -82h-155l155 129h201l156 -129h-155zM803 469q-27 6 -60 6q-45 0 -73 -14q66 -43 66 -114q0 -83 -88.5 -129.5t-246.5 -46.5q-96 0 -167 18q-30 -9 -30 -31q0 -34 61 -34l320 -1q111 -1 163 -37t52 -111q0 -99 -100 -144t-320 -45q-178 0 -262 29.5
t-84 91.5q0 67 90 87q-80 30 -80 97q0 44 33.5 74.5t95.5 43.5q-108 46 -108 138q0 82 87.5 127t248.5 45q113 0 191 -23q27 97 163 97q25 0 48 -4v-120zM401 262q65 0 101.5 22.5t36.5 62.5q0 81 -138 81q-139 0 -139 -81q0 -40 36.5 -62.5t102.5 -22.5zM564 -22h-340
q-17 0 -25 1q-21 -16 -21 -39q0 -38 52 -53.5t167 -15.5q140 0 190.5 14t50.5 50q0 43 -74 43z" />
    <glyph glyph-name="Gbreve" unicode="&#x11e;" horiz-adv-x="983" 
d="M406 878q12 -45 95 -45q84 0 96 45h124q-7 -59 -66 -91t-154 -32q-94 0 -153 32t-66 91h124zM438 -25q-192 0 -304.5 104t-112.5 268q0 170 128.5 279t343.5 109q168 0 285 -62.5t149 -170.5l-219 -36q-20 55 -77 88.5t-144 33.5q-120 0 -187 -64t-67 -175
q0 -106 68 -169t188 -63q110 0 177 44t72 107v3h-268v125h456v-396h-155l-9 122q-38 -63 -118.5 -105t-205.5 -42z" />
    <glyph glyph-name="gbreve" unicode="&#x11f;" horiz-adv-x="830" 
d="M396 568q-99 0 -157.5 41t-65.5 121h130q11 -78 93 -78q83 0 92 78h130q-7 -80 -65 -121t-157 -41zM803 469q-27 6 -60 6q-45 0 -73 -14q66 -43 66 -114q0 -83 -88.5 -129.5t-246.5 -46.5q-96 0 -167 18q-30 -9 -30 -31q0 -34 61 -34l320 -1q111 -1 163 -37t52 -111
q0 -99 -100 -144t-320 -45q-178 0 -262 29.5t-84 91.5q0 67 90 87q-80 30 -80 97q0 44 33.5 74.5t95.5 43.5q-108 46 -108 138q0 82 87.5 127t248.5 45q113 0 191 -23q27 97 163 97q25 0 48 -4v-120zM401 262q65 0 101.5 22.5t36.5 62.5q0 81 -138 81q-139 0 -139 -81
q0 -40 36.5 -62.5t102.5 -22.5zM564 -22h-340q-17 0 -25 1q-21 -16 -21 -39q0 -38 52 -53.5t167 -15.5q140 0 190.5 14t50.5 50q0 43 -74 43z" />
    <glyph glyph-name="Gdotaccent" unicode="&#x120;" horiz-adv-x="983" 
d="M398 760v118h205v-118h-205zM438 -25q-192 0 -304.5 104t-112.5 268q0 170 128.5 279t343.5 109q168 0 285 -62.5t149 -170.5l-219 -36q-20 55 -77 88.5t-144 33.5q-120 0 -187 -64t-67 -175q0 -106 68 -169t188 -63q110 0 177 44t72 107v3h-268v125h456v-396h-155
l-9 122q-38 -63 -118.5 -105t-205.5 -42z" />
    <glyph glyph-name="gdotaccent" unicode="&#x121;" horiz-adv-x="830" 
d="M498 727v-153h-204v153h204zM803 469q-27 6 -60 6q-45 0 -73 -14q66 -43 66 -114q0 -83 -88.5 -129.5t-246.5 -46.5q-96 0 -167 18q-30 -9 -30 -31q0 -34 61 -34l320 -1q111 -1 163 -37t52 -111q0 -99 -100 -144t-320 -45q-178 0 -262 29.5t-84 91.5q0 67 90 87
q-80 30 -80 97q0 44 33.5 74.5t95.5 43.5q-108 46 -108 138q0 82 87.5 127t248.5 45q113 0 191 -23q27 97 163 97q25 0 48 -4v-120zM401 262q65 0 101.5 22.5t36.5 62.5q0 81 -138 81q-139 0 -139 -81q0 -40 36.5 -62.5t102.5 -22.5zM564 -22h-340q-17 0 -25 1
q-21 -16 -21 -39q0 -38 52 -53.5t167 -15.5q140 0 190.5 14t50.5 50q0 43 -74 43z" />
    <glyph glyph-name="Gcommaaccent" unicode="&#x122;" horiz-adv-x="983" 
d="M438 -25q-192 0 -304.5 104t-112.5 268q0 170 128.5 279t343.5 109q168 0 285 -62.5t149 -170.5l-219 -36q-20 55 -77 88.5t-144 33.5q-120 0 -187 -64t-67 -175q0 -106 68 -169t188 -63q110 0 177 44t72 107v3h-268v125h456v-396h-155l-9 122q-38 -63 -118.5 -105
t-205.5 -42zM462 -250l-26 53q39 8 53.5 19t16.5 30h-99v100h188v-76q0 -105 -133 -126z" />
    <glyph glyph-name="gcommaaccent" unicode="&#x123;" horiz-adv-x="830" 
d="M486 672v-100h-188v76q0 105 133 126l26 -53q-39 -8 -53.5 -19t-16.5 -30h99zM803 469q-27 6 -60 6q-45 0 -73 -14q66 -43 66 -114q0 -83 -88.5 -129.5t-246.5 -46.5q-96 0 -167 18q-30 -9 -30 -31q0 -34 61 -34l320 -1q111 -1 163 -37t52 -111q0 -99 -100 -144t-320 -45
q-178 0 -262 29.5t-84 91.5q0 67 90 87q-80 30 -80 97q0 44 33.5 74.5t95.5 43.5q-108 46 -108 138q0 82 87.5 127t248.5 45q113 0 191 -23q27 97 163 97q25 0 48 -4v-120zM401 262q65 0 101.5 22.5t36.5 62.5q0 81 -138 81q-139 0 -139 -81q0 -40 36.5 -62.5t102.5 -22.5z
M564 -22h-340q-17 0 -25 1q-21 -16 -21 -39q0 -38 52 -53.5t167 -15.5q140 0 190.5 14t50.5 50q0 43 -74 43z" />
    <glyph glyph-name="Hcircumflex" unicode="&#x124;" horiz-adv-x="1015" 
d="M760 760h-165l-88 65l-88 -65h-165l152 118h202zM923 710v-710h-203v289h-426v-289h-202v710h202v-280h426v280h203z" />
    <glyph glyph-name="hcircumflex" unicode="&#x125;" horiz-adv-x="886" 
d="M436 760h-165l-88 65l-88 -65h-165l152 118h202zM87 0v725h193v-332q34 61 101.5 94t156.5 33q136 0 210 -76.5t74 -218.5v-225h-193v204q0 180 -170 180q-84 0 -131.5 -46t-47.5 -129v-209h-193z" />
    <glyph glyph-name="Hbar" unicode="&#x126;" horiz-adv-x="1015" 
d="M1014 608v-88h-91v-520h-203v289h-426v-289h-202v520h-92v88h92v102h202v-102h426v102h203v-102h91zM720 430v90h-426v-90h426z" />
    <glyph glyph-name="hbar" unicode="&#x127;" horiz-adv-x="859" 
d="M538 520q136 0 210 -76.5t74 -218.5v-225h-193v204q0 180 -170 180q-84 0 -131.5 -46t-47.5 -129v-209h-193v571h-100v89h100v65h193v-65h301v-89h-301v-178q34 61 101.5 94t156.5 33z" />
    <glyph glyph-name="Itilde" unicode="&#x128;" horiz-adv-x="386" 
d="M267 754q-29 0 -55 15.5t-46 31t-35 15.5q-29 0 -32 -49l-75 28q3 50 28 80t68 30q29 0 55 -15.5t46 -31t35 -15.5q29 0 32 49l75 -28q-3 -50 -28 -80t-68 -30zM294 0h-202v710h202v-710z" />
    <glyph glyph-name="itilde" unicode="&#x129;" horiz-adv-x="357" 
d="M243 581q-27 0 -50.5 17t-41 34t-29.5 17q-21 0 -28 -56l-78 27q8 59 34.5 92.5t66.5 33.5q27 0 50.5 -17t41 -33.5t29.5 -16.5q21 0 28 56l78 -28q-8 -59 -34.5 -92.5t-66.5 -33.5zM82 0v500h193v-500h-193z" />
    <glyph glyph-name="Imacron" unicode="&#x12a;" horiz-adv-x="386" 
d="M29 761v104h325v-104h-325zM294 0h-202v710h202v-710z" />
    <glyph glyph-name="imacron" unicode="&#x12b;" horiz-adv-x="357" 
d="M37 594v103h283v-103h-283zM82 0v500h193v-500h-193z" />
    <glyph glyph-name="Ibreve" unicode="&#x12c;" horiz-adv-x="386" 
d="M138 878q2 -22 16.5 -35t39.5 -13t39.5 13t16.5 35h102q-4 -59 -46 -91t-112 -32t-112 32t-46 91h102zM294 0h-202v710h202v-710z" />
    <glyph glyph-name="ibreve" unicode="&#x12d;" horiz-adv-x="357" 
d="M138 730q-1 -81 40 -81q39 0 40 81h100q-3 -162 -140 -162q-138 0 -141 162h101zM82 0v500h193v-500h-193z" />
    <glyph glyph-name="Iogonek" unicode="&#x12e;" horiz-adv-x="386" 
d="M204 -90l116 -15q-7 -49 -55 -76t-127 -27q-76 0 -120 27t-44 74q0 80 118 112v705h202v-710h-41q-76 -7 -112.5 -32t-36.5 -57q0 -19 13 -31t33 -12q44 0 54 42z" />
    <glyph glyph-name="iogonek" unicode="&#x12f;" horiz-adv-x="357" 
d="M280 727v-153h-204v153h204zM194 -90l116 -15q-7 -49 -55 -76t-127 -27q-76 0 -120 27t-44 74q0 80 118 112v495h193v-500h-32q-76 -7 -112.5 -32t-36.5 -57q0 -19 13 -31t33 -12q44 0 54 42z" />
    <glyph glyph-name="Idotaccent" unicode="&#x130;" horiz-adv-x="386" 
d="M90 760v118h205v-118h-205zM294 0h-202v710h202v-710z" />
    <glyph glyph-name="dotlessi" unicode="&#x131;" horiz-adv-x="357" 
d="M82 0v500h193v-500h-193z" />
    <glyph glyph-name="IJ" unicode="&#x132;" horiz-adv-x="902" 
d="M294 0h-202v710h202v-710zM839 258q0 -271 -304 -271q-85 0 -135 11v156q47 -7 88 -7q71 0 109.5 32t38.5 113v418h203v-452z" />
    <glyph glyph-name="ij" unicode="&#x133;" horiz-adv-x="737" 
d="M76 574v153h204v-153h-204zM454 574v153h204v-153h-204zM82 0v500h193v-500h-193zM417 -206q-53 0 -85 9v138q28 -5 61 -5q35 0 52 24t17 78v462h193v-488q0 -109 -55 -163.5t-183 -54.5z" />
    <glyph glyph-name="Jcircumflex" unicode="&#x134;" horiz-adv-x="516" 
d="M515 760h-119l-45 74l-44 -74h-120l79 119h171zM453 258q0 -271 -304 -271q-85 0 -135 11v156q47 -7 88 -7q71 0 109.5 32t38.5 113v418h203v-452z" />
    <glyph glyph-name="jcircumflex" unicode="&#x135;" horiz-adv-x="368" 
d="M345 573h-113l-45 107l-44 -107h-113l76 158h162zM48 -206q-53 0 -85 9v138q28 -5 61 -5q35 0 52 24t17 78v462h193v-488q0 -109 -55 -163.5t-183 -54.5z" />
    <glyph glyph-name="Kcommaaccent" unicode="&#x136;" horiz-adv-x="956" 
d="M606 439l333 -439h-235l-250 323l-160 -143v-180h-202v710h202v-330l378 330h249l-313 -270zM391 -148v100h188v-76q0 -105 -133 -126l-26 53q39 8 53.5 19t16.5 30h-99z" />
    <glyph glyph-name="kcommaaccent" unicode="&#x137;" horiz-adv-x="846" 
d="M575 323l250 -323h-220l-177 231l-148 -104v-127h-193v725h193v-434l281 209h254zM323 -148v100h188v-76q0 -105 -133 -126l-26 53q39 8 53.5 19t16.5 30h-99z" />
    <glyph glyph-name="kgreenlandic" unicode="&#x138;" horiz-adv-x="841" 
d="M600 0l-177 231l-148 -104v-127h-193v500h193v-209l281 209h254l-240 -177l250 -323h-220z" />
    <glyph glyph-name="Lacute" unicode="&#x139;" horiz-adv-x="802" 
d="M110 760l151 118h196l-180 -118h-167zM92 0v710h202v-552h481v-158h-683z" />
    <glyph glyph-name="lacute" unicode="&#x13a;" horiz-adv-x="367" 
d="M99 760l151 118h196l-180 -118h-167zM280 725v-725h-193v725h193z" />
    <glyph glyph-name="Lcommaaccent" unicode="&#x13b;" horiz-adv-x="802" 
d="M92 0v710h202v-552h481v-158h-683zM400 -250l-26 53q39 8 53.5 19t16.5 30h-99v100h188v-76q0 -105 -133 -126z" />
    <glyph glyph-name="lcommaaccent" unicode="&#x13c;" horiz-adv-x="367" 
d="M280 725v-725h-193v725h193zM144 -250l-26 53q39 8 53.5 19t16.5 30h-99v100h188v-76q0 -105 -133 -126z" />
    <glyph glyph-name="Lcaron" unicode="&#x13d;" horiz-adv-x="802" 
d="M92 0v710h202v-552h481v-158h-683zM426 520l-24 52q57 7 62 38h-93v100h182v-69q0 -106 -127 -121z" />
    <glyph glyph-name="lcaron" unicode="&#x13e;" horiz-adv-x="367" 
d="M280 725v-725h-193v725h193zM380 520l-24 52q57 7 62 38h-93v100h182v-69q0 -106 -127 -121z" />
    <glyph glyph-name="Ldot" unicode="&#x13f;" horiz-adv-x="802" 
d="M92 0v710h202v-552h481v-158h-683zM614 501v-164h-209v164h209z" />
    <glyph glyph-name="ldot" unicode="&#x140;" horiz-adv-x="535" 
d="M280 725v-725h-193v725h193zM555 501v-164h-209v164h209z" />
    <glyph glyph-name="Lslash" unicode="&#x141;" horiz-adv-x="802" 
d="M294 158h481v-158h-683v244l-106 -48v119l106 48v347h202v-257l284 128v-119l-284 -128v-176z" />
    <glyph glyph-name="lslash" unicode="&#x142;" horiz-adv-x="367" 
d="M343 559v-102l-63 -49v-408h-193v259l-64 -50v101l64 50v365h193v-215z" />
    <glyph glyph-name="Nacute" unicode="&#x143;" horiz-adv-x="1012" 
d="M428 760l151 118h196l-180 -118h-167zM92 0v710h216l369 -403q43 -53 56 -80h4v102v381h183v-710h-201l-383 407q-41 47 -57 81h-4v-99v-389h-183z" />
    <glyph glyph-name="nacute" unicode="&#x144;" horiz-adv-x="881" 
d="M407 573l162 157h197l-198 -157h-161zM82 0v500h189v-116q72 135 266 135q137 0 208.5 -72t71.5 -210v-237h-193v208q0 173 -165 173q-88 0 -136 -45.5t-48 -129.5v-206h-193z" />
    <glyph glyph-name="Ncommaaccent" unicode="&#x145;" horiz-adv-x="1012" 
d="M92 0v710h216l369 -403q43 -53 56 -80h4v102v381h183v-710h-201l-383 407q-41 47 -57 81h-4v-99v-389h-183zM473 -250l-26 53q39 8 53.5 19t16.5 30h-99v100h188v-76q0 -105 -133 -126z" />
    <glyph glyph-name="ncommaaccent" unicode="&#x146;" horiz-adv-x="881" 
d="M82 0v500h189v-116q72 135 266 135q137 0 208.5 -72t71.5 -210v-237h-193v208q0 173 -165 173q-88 0 -136 -45.5t-48 -129.5v-206h-193zM402 -250l-26 53q39 8 53.5 19t16.5 30h-99v100h188v-76q0 -105 -133 -126z" />
    <glyph glyph-name="Ncaron" unicode="&#x147;" horiz-adv-x="1012" 
d="M765 874l-152 -118h-202l-152 118h165l88 -65l88 65h165zM92 0v710h216l369 -403q43 -53 56 -80h4v102v381h183v-710h-201l-383 407q-41 47 -57 81h-4v-99v-389h-183z" />
    <glyph glyph-name="ncaron" unicode="&#x148;" horiz-adv-x="881" 
d="M238 725h155l101 -101l101 101h155l-155 -157h-201zM82 0v500h189v-116q72 135 266 135q137 0 208.5 -72t71.5 -210v-237h-193v208q0 173 -165 173q-88 0 -136 -45.5t-48 -129.5v-206h-193z" />
    <glyph glyph-name="napostrophe" unicode="&#x149;" horiz-adv-x="881" 
d="M36 520l-24 52q57 7 62 38h-93v100h182v-69q0 -106 -127 -121zM82 0v500h189v-116q72 135 266 135q137 0 208.5 -72t71.5 -210v-237h-193v208q0 173 -165 173q-88 0 -136 -45.5t-48 -129.5v-206h-193z" />
    <glyph glyph-name="Eng" unicode="&#x14a;" horiz-adv-x="1012" 
d="M737 710h183v-713q0 -109 -70.5 -160.5t-188.5 -51.5q-85 0 -146 10v147q68 -6 108 -6q90 0 108 64h-12l-383 407q-41 47 -57 81h-4v-99v-389h-183v710h216l369 -403q43 -53 56 -80h4v102v381z" />
    <glyph glyph-name="eng" unicode="&#x14b;" horiz-adv-x="881" 
d="M537 519q137 0 208.5 -72t71.5 -210v-240q0 -98 -57 -147t-190 -49q-62 0 -90 9v134q27 -5 58 -5q45 0 65.5 17t20.5 61v191q0 173 -165 173q-88 0 -136 -45.5t-48 -129.5v-206h-193v500h189v-116q72 135 266 135z" />
    <glyph glyph-name="Omacron" unicode="&#x14c;" horiz-adv-x="993" 
d="M252 761v102h490v-102h-490zM497 -25q-217 0 -346.5 103.5t-129.5 276.5t129.5 276.5t346.5 103.5q216 0 346 -103.5t130 -276.5t-130 -276.5t-346 -103.5zM497 125q118 0 190 63.5t72 166.5t-72 166.5t-190 63.5t-190.5 -63t-72.5 -167q0 -103 72.5 -166.5t190.5 -63.5z
" />
    <glyph glyph-name="omacron" unicode="&#x14d;" horiz-adv-x="823" 
d="M162 593v104h497v-104h-497zM411 -19q-175 0 -281 73.5t-106 195.5t106 195.5t281 73.5q176 0 282 -73.5t106 -195.5t-106 -195.5t-282 -73.5zM411 104q85 0 136 39.5t51 106.5t-51 106.5t-136 39.5q-84 0 -135.5 -40t-51.5 -106t51.5 -106t135.5 -40z" />
    <glyph glyph-name="Obreve" unicode="&#x14e;" horiz-adv-x="993" 
d="M402 878q12 -45 95 -45q84 0 96 45h124q-7 -59 -66 -91t-154 -32q-94 0 -153 32t-66 91h124zM497 -25q-217 0 -346.5 103.5t-129.5 276.5t129.5 276.5t346.5 103.5q216 0 346 -103.5t130 -276.5t-130 -276.5t-346 -103.5zM497 125q118 0 190 63.5t72 166.5t-72 166.5
t-190 63.5t-190.5 -63t-72.5 -167q0 -103 72.5 -166.5t190.5 -63.5z" />
    <glyph glyph-name="obreve" unicode="&#x14f;" horiz-adv-x="823" 
d="M318 730q10 -78 93 -78t92 78h130q-7 -80 -65 -121t-157 -41t-157.5 41t-65.5 121h130zM411 -19q-175 0 -281 73.5t-106 195.5t106 195.5t281 73.5q176 0 282 -73.5t106 -195.5t-106 -195.5t-282 -73.5zM411 104q85 0 136 39.5t51 106.5t-51 106.5t-136 39.5
q-84 0 -135.5 -40t-51.5 -106t51.5 -106t135.5 -40z" />
    <glyph glyph-name="Ohungarumlaut" unicode="&#x150;" horiz-adv-x="993" 
d="M302 760l149 118h161l-160 -118h-150zM542 760l149 118h161l-161 -118h-149zM497 -25q-217 0 -346.5 103.5t-129.5 276.5t129.5 276.5t346.5 103.5q216 0 346 -103.5t130 -276.5t-130 -276.5t-346 -103.5zM497 125q118 0 190 63.5t72 166.5t-72 166.5t-190 63.5
t-190.5 -63t-72.5 -167q0 -103 72.5 -166.5t190.5 -63.5z" />
    <glyph glyph-name="ohungarumlaut" unicode="&#x151;" horiz-adv-x="823" 
d="M224 573l155 157h153l-166 -157h-142zM456 573l155 157h154l-166 -157h-143zM411 -19q-175 0 -281 73.5t-106 195.5t106 195.5t281 73.5q176 0 282 -73.5t106 -195.5t-106 -195.5t-282 -73.5zM411 104q85 0 136 39.5t51 106.5t-51 106.5t-136 39.5q-84 0 -135.5 -40
t-51.5 -106t51.5 -106t135.5 -40z" />
    <glyph glyph-name="OE" unicode="&#x152;" horiz-adv-x="1472" 
d="M887 142h522v-142h-976q-186 0 -299 98.5t-113 268.5q0 165 121 254t314 89h946v-142h-515v-142h498v-132h-498v-152zM474 137h211v436h-210q-111 0 -176 -55t-65 -155q0 -108 64.5 -167t175.5 -59z" />
    <glyph glyph-name="oe" unicode="&#x153;" horiz-adv-x="1380" 
d="M1353 236v-28h-557q11 -51 62.5 -78.5t135.5 -27.5q62 0 113 19.5t79 54.5l148 -64q-109 -131 -348 -131q-190 0 -290 81q-109 -81 -279 -81q-175 0 -284 73.5t-109 195.5q0 124 108.5 196.5t284.5 72.5q172 0 280 -82q101 82 284 82q176 0 274 -75t98 -208zM795 308h366
q-2 47 -52 77t-129 30q-78 0 -127 -29t-58 -78zM417 109q90 0 141.5 39.5t51.5 101.5t-51.5 101.5t-141.5 39.5t-141.5 -39.5t-51.5 -101.5t51.5 -101.5t141.5 -39.5z" />
    <glyph glyph-name="Racute" unicode="&#x154;" horiz-adv-x="926" 
d="M682 878l-180 -118h-167l151 118h196zM668 0l-169 251h-205v-251h-202v710h484q82 0 141.5 -19.5t91.5 -53t46.5 -71.5t14.5 -81q0 -67 -38 -125.5t-121 -85.5l185 -274h-228zM294 575v-195h236q67 0 96.5 28t29.5 71q0 42 -29.5 69t-96.5 27h-236z" />
    <glyph glyph-name="racute" unicode="&#x155;" horiz-adv-x="561" 
d="M203 573l162 157h197l-198 -157h-161zM251 352q21 74 81.5 117.5t146.5 43.5q31 0 66 -5v-164q-43 8 -80 8q-91 0 -137 -46q-53 -49 -53 -144v-162h-193v500h169v-148z" />
    <glyph glyph-name="Rcommaaccent" unicode="&#x156;" horiz-adv-x="926" 
d="M711 274l185 -274h-228l-169 251h-205v-251h-202v710h484q82 0 141.5 -19.5t91.5 -53t46.5 -71.5t14.5 -81q0 -67 -38 -125.5t-121 -85.5zM294 575v-195h236q67 0 96.5 28t29.5 71q0 42 -29.5 69t-96.5 27h-236zM351 -148v100h188v-76q0 -105 -133 -126l-26 53
q39 8 53.5 19t16.5 30h-99z" />
    <glyph glyph-name="rcommaaccent" unicode="&#x157;" horiz-adv-x="561" 
d="M251 352q21 74 81.5 117.5t146.5 43.5q31 0 66 -5v-164q-43 8 -80 8q-91 0 -137 -46q-53 -49 -53 -144v-162h-193v500h169v-148zM139 -250l-26 53q39 8 53.5 19t16.5 30h-99v100h188v-76q0 -105 -133 -126z" />
    <glyph glyph-name="Rcaron" unicode="&#x158;" horiz-adv-x="926" 
d="M520 756h-202l-152 118h165l88 -65l88 65h165zM668 0l-169 251h-205v-251h-202v710h484q82 0 141.5 -19.5t91.5 -53t46.5 -71.5t14.5 -81q0 -67 -38 -125.5t-121 -85.5l185 -274h-228zM294 575v-195h236q67 0 96.5 28t29.5 71q0 42 -29.5 69t-96.5 27h-236z" />
    <glyph glyph-name="rcaron" unicode="&#x159;" horiz-adv-x="561" 
d="M34 725h155l101 -101l101 101h155l-155 -157h-201zM251 352q21 74 81.5 117.5t146.5 43.5q31 0 66 -5v-164q-43 8 -80 8q-91 0 -137 -46q-53 -49 -53 -144v-162h-193v500h169v-148z" />
    <glyph glyph-name="Sacute" unicode="&#x15a;" horiz-adv-x="883" 
d="M359 760l151 118h196l-180 -118h-167zM447 -25q-156 0 -274 48.5t-173 133.5l144 101q46 -65 127 -102.5t186 -37.5q189 0 189 83q0 33 -25.5 48.5t-88.5 22.5l-218 24q-131 14 -194.5 65.5t-63.5 148.5q0 106 100 165.5t281 59.5q277 0 408 -147l-128 -107
q-83 113 -290 113q-169 0 -169 -75q0 -32 26 -47t94 -22l195 -20q148 -15 212.5 -63t64.5 -146q0 -118 -105 -182t-298 -64z" />
    <glyph glyph-name="sacute" unicode="&#x15b;" horiz-adv-x="758" 
d="M287 573l162 157h197l-198 -157h-161zM404 -19q-265 0 -388 118l93 88q101 -92 313 -92q67 0 96 11t29 36q0 19 -14.5 28t-52.5 12l-216 18q-109 10 -160.5 47.5t-51.5 106.5q0 165 323 165q222 0 339 -90l-77 -91q-98 69 -279 69q-129 0 -129 -43q0 -18 16 -27t54 -12
l220 -17q109 -9 157.5 -44.5t48.5 -104.5q0 -178 -321 -178z" />
    <glyph glyph-name="Scircumflex" unicode="&#x15c;" horiz-adv-x="883" 
d="M696 760h-165l-88 65l-88 -65h-165l152 118h202zM447 -25q-156 0 -274 48.5t-173 133.5l144 101q46 -65 127 -102.5t186 -37.5q189 0 189 83q0 33 -25.5 48.5t-88.5 22.5l-218 24q-131 14 -194.5 65.5t-63.5 148.5q0 106 100 165.5t281 59.5q277 0 408 -147l-128 -107
q-83 113 -290 113q-169 0 -169 -75q0 -32 26 -47t94 -22l195 -20q148 -15 212.5 -63t64.5 -146q0 -118 -105 -182t-298 -64z" />
    <glyph glyph-name="scircumflex" unicode="&#x15d;" horiz-adv-x="758" 
d="M630 573h-155l-101 101l-101 -101h-155l155 157h201zM404 -19q-265 0 -388 118l93 88q101 -92 313 -92q67 0 96 11t29 36q0 19 -14.5 28t-52.5 12l-216 18q-109 10 -160.5 47.5t-51.5 106.5q0 165 323 165q222 0 339 -90l-77 -91q-98 69 -279 69q-129 0 -129 -43
q0 -18 16 -27t54 -12l220 -17q109 -9 157.5 -44.5t48.5 -104.5q0 -178 -321 -178z" />
    <glyph glyph-name="Scedilla" unicode="&#x15e;" horiz-adv-x="883" 
d="M850 221q0 -112 -95 -175.5t-272 -69.5l-26 -33q29 16 77 16q61 0 96 -24.5t35 -67.5q0 -46 -46 -71.5t-129 -25.5q-112 0 -156 57l92 29q22 -25 65 -25q52 0 52 36q0 35 -50 35q-31 0 -52 -16l-94 18l50 72q-139 8 -243 55.5t-154 125.5l144 101q46 -65 127 -102.5
t186 -37.5q189 0 189 83q0 33 -25.5 48.5t-88.5 22.5l-218 24q-131 14 -194.5 65.5t-63.5 148.5q0 106 100 165.5t281 59.5q277 0 408 -147l-128 -107q-83 113 -290 113q-169 0 -169 -75q0 -32 26 -47t94 -22l195 -20q148 -15 212.5 -63t64.5 -146z" />
    <glyph glyph-name="scedilla" unicode="&#x15f;" horiz-adv-x="758" 
d="M725 159q0 -172 -301 -178l-31 -38q29 16 77 16q61 0 96 -24.5t35 -67.5q0 -46 -46 -71.5t-129 -25.5q-112 0 -156 57l92 29q22 -25 65 -25q52 0 52 36q0 35 -50 35q-31 0 -52 -16l-94 18l54 79q-214 13 -321 116l93 88q101 -92 313 -92q67 0 96 11t29 36q0 19 -14.5 28
t-52.5 12l-216 18q-109 10 -160.5 47.5t-51.5 106.5q0 165 323 165q222 0 339 -90l-77 -91q-98 69 -279 69q-129 0 -129 -43q0 -18 16 -27t54 -12l220 -17q109 -9 157.5 -44.5t48.5 -104.5z" />
    <glyph glyph-name="Scaron" unicode="&#x160;" horiz-adv-x="883" 
d="M696 874l-152 -118h-202l-152 118h165l88 -65l88 65h165zM447 -25q-156 0 -274 48.5t-173 133.5l144 101q46 -65 127 -102.5t186 -37.5q189 0 189 83q0 33 -25.5 48.5t-88.5 22.5l-218 24q-131 14 -194.5 65.5t-63.5 148.5q0 106 100 165.5t281 59.5q277 0 408 -147
l-128 -107q-83 113 -290 113q-169 0 -169 -75q0 -32 26 -47t94 -22l195 -20q148 -15 212.5 -63t64.5 -146q0 -118 -105 -182t-298 -64z" />
    <glyph glyph-name="scaron" unicode="&#x161;" horiz-adv-x="758" 
d="M118 725h155l101 -101l101 101h155l-155 -157h-201zM404 -19q-265 0 -388 118l93 88q101 -92 313 -92q67 0 96 11t29 36q0 19 -14.5 28t-52.5 12l-216 18q-109 10 -160.5 47.5t-51.5 106.5q0 165 323 165q222 0 339 -90l-77 -91q-98 69 -279 69q-129 0 -129 -43
q0 -18 16 -27t54 -12l220 -17q109 -9 157.5 -44.5t48.5 -104.5q0 -178 -321 -178z" />
    <glyph glyph-name="uni0162" unicode="&#x162;" horiz-adv-x="812" 
d="M507 0h-57l-46 -57q29 16 77 16q61 0 96 -24.5t35 -67.5q0 -46 -46 -71.5t-129 -25.5q-112 0 -156 57l92 29q22 -25 65 -25q52 0 52 36q0 35 -50 35q-31 0 -52 -16l-94 18l66 96h-55v553h-295v157h792v-157h-295v-553z" />
    <glyph glyph-name="uni0163" unicode="&#x163;" horiz-adv-x="607" 
d="M468 -41q61 0 96 -24.5t35 -67.5q0 -46 -46 -71.5t-129 -25.5q-112 0 -156 57l92 29q22 -25 65 -25q52 0 52 36q0 35 -50 35q-31 0 -52 -16l-94 18l60 87q-190 28 -190 206v182h-148v121h148v117l193 68v-185h225v-121h-225v-145q0 -103 122 -103q53 0 103 13v-135
q-50 -22 -144 -23l-34 -43q29 16 77 16z" />
    <glyph glyph-name="Tcaron" unicode="&#x164;" horiz-adv-x="812" 
d="M507 756h-202l-152 118h165l88 -65l88 65h165zM802 710v-157h-295v-553h-202v553h-295v157h792z" />
    <glyph glyph-name="tcaron" unicode="&#x165;" horiz-adv-x="607" 
d="M453 520l-24 52q57 7 62 38h-93v100h182v-69q0 -106 -127 -121zM3 379v121h148v117l193 68v-185h225v-121h-225v-145q0 -103 122 -103q53 0 103 13v-135q-51 -23 -153 -23q-265 0 -265 211v182h-148z" />
    <glyph glyph-name="Tbar" unicode="&#x166;" horiz-adv-x="812" 
d="M802 553h-295v-131h218v-88h-218v-334h-202v334h-219v88h219v131h-295v157h792v-157z" />
    <glyph glyph-name="tbar" unicode="&#x167;" horiz-adv-x="607" 
d="M569 379h-225v-66h225v-84h-225q3 -98 122 -98q53 0 103 13v-135q-51 -23 -153 -23q-265 0 -265 211v32h-147v84h147v66h-148v121h148v117l193 68v-185h225v-121z" />
    <glyph glyph-name="Utilde" unicode="&#x168;" horiz-adv-x="961" 
d="M581 755q-52 0 -109 24.5t-83 24.5q-53 0 -67 -54l-99 41q33 114 161 114q52 0 108.5 -24.5t82.5 -24.5q52 0 68 53l99 -41q-33 -113 -161 -113zM63 710h203v-371q0 -93 56 -149t159 -56q100 0 157 56.5t57 148.5v371h202v-392q0 -157 -109 -250t-307 -93t-308 94
t-110 251v390z" />
    <glyph glyph-name="utilde" unicode="&#x169;" horiz-adv-x="871" 
d="M532 585q-55 0 -115.5 29t-88.5 29q-29 0 -45.5 -14.5t-24.5 -47.5l-103 41q30 123 158 123q55 0 116 -29t89 -29q55 0 70 62l102 -41q-28 -123 -158 -123zM335 -19q-129 0 -200 64t-71 184v271h193v-225q0 -84 41.5 -122t112.5 -38q90 0 137.5 49.5t47.5 123.5v212h193
v-500h-190v117q-33 -67 -103 -101.5t-161 -34.5z" />
    <glyph glyph-name="Umacron" unicode="&#x16a;" horiz-adv-x="961" 
d="M236 761v102h490v-102h-490zM63 710h203v-371q0 -93 56 -149t159 -56q100 0 157 56.5t57 148.5v371h202v-392q0 -157 -109 -250t-307 -93t-308 94t-110 251v390z" />
    <glyph glyph-name="umacron" unicode="&#x16b;" horiz-adv-x="871" 
d="M174 593v104h497v-104h-497zM335 -19q-129 0 -200 64t-71 184v271h193v-225q0 -84 41.5 -122t112.5 -38q90 0 137.5 49.5t47.5 123.5v212h193v-500h-190v117q-33 -67 -103 -101.5t-161 -34.5z" />
    <glyph glyph-name="Ubreve" unicode="&#x16c;" horiz-adv-x="961" 
d="M386 878q12 -45 95 -45q84 0 96 45h124q-7 -59 -66 -91t-154 -32q-94 0 -153 32t-66 91h124zM63 710h203v-371q0 -93 56 -149t159 -56q100 0 157 56.5t57 148.5v371h202v-392q0 -157 -109 -250t-307 -93t-308 94t-110 251v390z" />
    <glyph glyph-name="ubreve" unicode="&#x16d;" horiz-adv-x="871" 
d="M330 730q10 -78 93 -78t92 78h130q-7 -80 -65 -121t-157 -41t-157.5 41t-65.5 121h130zM335 -19q-129 0 -200 64t-71 184v271h193v-225q0 -84 41.5 -122t112.5 -38q90 0 137.5 49.5t47.5 123.5v212h193v-500h-190v117q-33 -67 -103 -101.5t-161 -34.5z" />
    <glyph glyph-name="Uring" unicode="&#x16e;" horiz-adv-x="961" 
d="M481 742q-65 0 -105.5 32.5t-40.5 85.5t40.5 85.5t105.5 32.5t105.5 -32.5t40.5 -85.5t-40.5 -85.5t-105.5 -32.5zM481 807q25 0 41.5 15t16.5 38t-16.5 38t-41.5 15q-27 0 -43 -15t-16 -38t16 -38t43 -15zM63 710h203v-371q0 -93 56 -149t159 -56q100 0 157 56.5
t57 148.5v371h202v-392q0 -157 -109 -250t-307 -93t-308 94t-110 251v390z" />
    <glyph glyph-name="uring" unicode="&#x16f;" horiz-adv-x="871" 
d="M423 557q-87 0 -136 33t-49 88q0 56 49 88.5t136 32.5q88 0 136.5 -32.5t48.5 -88.5q0 -55 -48.5 -88t-136.5 -33zM423 623q43 0 66 15t23 40t-23 40t-66 15t-66 -15t-23 -40t23 -40t66 -15zM335 -19q-129 0 -200 64t-71 184v271h193v-225q0 -84 41.5 -122t112.5 -38
q90 0 137.5 49.5t47.5 123.5v212h193v-500h-190v117q-33 -67 -103 -101.5t-161 -34.5z" />
    <glyph glyph-name="Uhungarumlaut" unicode="&#x170;" horiz-adv-x="961" 
d="M286 760l149 118h161l-160 -118h-150zM526 760l149 118h161l-161 -118h-149zM63 710h203v-371q0 -93 56 -149t159 -56q100 0 157 56.5t57 148.5v371h202v-392q0 -157 -109 -250t-307 -93t-308 94t-110 251v390z" />
    <glyph glyph-name="uhungarumlaut" unicode="&#x171;" horiz-adv-x="871" 
d="M236 573l155 157h153l-166 -157h-142zM468 573l155 157h154l-166 -157h-143zM335 -19q-129 0 -200 64t-71 184v271h193v-225q0 -84 41.5 -122t112.5 -38q90 0 137.5 49.5t47.5 123.5v212h193v-500h-190v117q-33 -67 -103 -101.5t-161 -34.5z" />
    <glyph glyph-name="Uogonek" unicode="&#x172;" horiz-adv-x="961" 
d="M695 710h202v-392q0 -138 -86.5 -228.5t-244.5 -109.5q-60 -25 -60 -69q0 -19 13 -31t33 -12q44 0 54 42l116 -15q-7 -49 -55 -76t-127 -27q-76 0 -120 27t-44 74q0 52 50 84q-173 13 -268 105t-95 238v390h203v-371q0 -93 56 -149t159 -56q100 0 157 56.5t57 148.5v371z
" />
    <glyph glyph-name="uogonek" unicode="&#x173;" horiz-adv-x="871" 
d="M711 -90l116 -15q-7 -49 -55 -76t-127 -27q-76 0 -120 27t-44 74q0 80 118 112v112q-33 -67 -103 -101.5t-161 -34.5q-129 0 -200 64t-71 184v271h193v-225q0 -84 41.5 -122t112.5 -38q90 0 137.5 49.5t47.5 123.5v212h193v-500h-29q-76 -7 -112.5 -32t-36.5 -57
q0 -19 13 -31t33 -12q43 0 54 42z" />
    <glyph glyph-name="Wcircumflex" unicode="&#x174;" horiz-adv-x="1357" 
d="M932 760h-165l-88 65l-88 -65h-165l152 118h202zM264 0l-246 710h206l141 -459q14 -55 15 -68h4q2 21 19 68l170 459h211l169 -459q18 -51 20 -68h4q1 22 15 68l141 459h205l-245 -710h-231l-166 453q-14 39 -15 62h-5q-1 -23 -15 -62l-166 -453h-231z" />
    <glyph glyph-name="wcircumflex" unicode="&#x175;" horiz-adv-x="1138" 
d="M825 573h-155l-101 101l-101 -101h-155l155 157h201zM219 0l-207 500h194l109 -304q8 -26 13 -55h2q1 11 15 55l126 304h196l125 -304q13 -35 16 -55h2q5 29 13 55l109 304h194l-207 -500h-211l-120 288q-14 34 -17 61h-4q-3 -27 -17 -61l-121 -288h-210z" />
    <glyph glyph-name="Ycircumflex" unicode="&#x176;" horiz-adv-x="895" 
d="M704 760h-165l-88 65l-88 -65h-165l152 118h202zM345 0v242l-355 468h230l205 -288q20 -26 24 -40h2q5 16 23 40l212 288h218l-357 -468v-242h-202z" />
    <glyph glyph-name="ycircumflex" unicode="&#x177;" horiz-adv-x="774" 
d="M644 573h-155l-101 101l-101 -101h-155l155 157h201zM169 -211q-79 0 -120 10v144q49 -7 89 -7q50 0 94 14.5t63 40.5l3 6l-304 503h216l157 -298q19 -39 26 -57h3q5 13 24 54l152 301h207l-290 -525q-55 -99 -129 -142.5t-191 -43.5z" />
    <glyph glyph-name="Ydieresis" unicode="&#x178;" horiz-adv-x="895" 
d="M196 760v118h181v-118h-181zM524 760v118h182v-118h-182zM345 0v242l-355 468h230l205 -288q20 -26 24 -40h2q5 16 23 40l212 288h218l-357 -468v-242h-202z" />
    <glyph glyph-name="Zacute" unicode="&#x179;" horiz-adv-x="879" 
d="M359 760l151 118h196l-180 -118h-167zM52 132l503 439h-487v139h755v-132l-503 -439h522v-139h-790v132z" />
    <glyph glyph-name="zacute" unicode="&#x17a;" horiz-adv-x="739" 
d="M286 573l162 157h197l-198 -157h-161zM45 121l396 261h-382v118h630v-119l-393 -263h409v-118h-660v121z" />
    <glyph glyph-name="Zdotaccent" unicode="&#x17b;" horiz-adv-x="879" 
d="M340 760v118h205v-118h-205zM52 132l503 439h-487v139h755v-132l-503 -439h522v-139h-790v132z" />
    <glyph glyph-name="zdotaccent" unicode="&#x17c;" horiz-adv-x="739" 
d="M271 574v153h204v-153h-204zM45 121l396 261h-382v118h630v-119l-393 -263h409v-118h-660v121z" />
    <glyph glyph-name="Zcaron" unicode="&#x17d;" horiz-adv-x="879" 
d="M696 874l-152 -118h-202l-152 118h165l88 -65l88 65h165zM52 132l503 439h-487v139h755v-132l-503 -439h522v-139h-790v132z" />
    <glyph glyph-name="zcaron" unicode="&#x17e;" horiz-adv-x="739" 
d="M117 725h155l101 -101l101 101h155l-155 -157h-201zM45 121l396 261h-382v118h630v-119l-393 -263h409v-118h-660v121z" />
    <glyph glyph-name="florin" unicode="&#x192;" horiz-adv-x="665" 
d="M571 582q-65 0 -95.5 -28t-39.5 -95l-4 -31h185v-126h-203l-64 -452h-214l65 452h-162v126h181l4 30q21 149 102.5 206.5t228.5 57.5q49 0 99 -11v-138q-30 9 -83 9z" />
    <glyph glyph-name="AEacute" unicode="&#x1fc;" horiz-adv-x="1484" 
d="M1284 878l-180 -118h-167l151 118h196zM883 142h538v-142h-741v142h-338l-109 -142h-231l591 710h821v-142h-531v-142h514v-132h-514v-152zM439 268h241v312z" />
    <glyph glyph-name="aeacute" unicode="&#x1fd;" horiz-adv-x="1285" 
d="M916 730l-198 -157h-161l162 157h197zM1258 237v-28h-520q10 -51 57 -79t123 -28q117 0 173 75l148 -65q-104 -131 -329 -131q-212 0 -303 111q-89 -111 -297 -111q-127 0 -196 40.5t-69 114.5q0 72 64.5 112t189.5 44l247 9v12q0 93 -133 93q-67 0 -107 -21t-45 -59
h-202q12 88 108.5 140.5t247.5 52.5q167 0 241 -67q93 67 249 67q167 0 260 -74.5t93 -207.5zM737 308h329q-5 49 -49.5 78t-112.5 29q-73 0 -116.5 -27.5t-50.5 -79.5zM548 206v16l-196 -8q-107 -3 -107 -64t119 -61q82 0 133 32t51 85z" />
    <glyph glyph-name="Oslashacute" unicode="&#x1fe;" horiz-adv-x="993" 
d="M763 878l-180 -118h-167l151 118h196zM859 618q114 -103 114 -263q0 -173 -130 -276.5t-346 -103.5q-172 0 -293 68l-81 -71l-63 55l75 65q-114 103 -114 263q0 173 129.5 276.5t346.5 103.5q172 0 293 -68l80 70l64 -54zM234 355q0 -79 44 -137l375 328q-66 39 -156 39
q-118 0 -190.5 -63t-72.5 -167zM497 125q118 0 190 63.5t72 166.5q0 78 -44 136l-374 -328q67 -38 156 -38z" />
    <glyph glyph-name="oslashacute" unicode="&#x1ff;" horiz-adv-x="823" 
d="M694 730l-198 -157h-161l162 157h197zM715 428q84 -70 84 -178q0 -122 -106 -195.5t-282 -73.5q-141 0 -241 50l-87 -64l-51 48l77 56q-85 70 -85 179q0 122 106 195.5t281 73.5q143 0 243 -50l87 63l48 -50zM224 250q0 -45 24 -78l274 200q-45 24 -111 24
q-84 0 -135.5 -40t-51.5 -106zM411 104q85 0 136 39.5t51 106.5q0 44 -23 76l-273 -199q46 -23 109 -23z" />
    <glyph glyph-name="Scommaaccent" unicode="&#x218;" horiz-adv-x="883" 
d="M447 -25q-156 0 -274 48.5t-173 133.5l144 101q46 -65 127 -102.5t186 -37.5q189 0 189 83q0 33 -25.5 48.5t-88.5 22.5l-218 24q-131 14 -194.5 65.5t-63.5 148.5q0 106 100 165.5t281 59.5q277 0 408 -147l-128 -107q-83 113 -290 113q-169 0 -169 -75q0 -32 26 -47
t94 -22l195 -20q148 -15 212.5 -63t64.5 -146q0 -118 -105 -182t-298 -64zM420 -250l-26 53q39 8 53.5 19t16.5 30h-99v100h188v-76q0 -105 -133 -126z" />
    <glyph glyph-name="scommaaccent" unicode="&#x219;" horiz-adv-x="758" 
d="M404 -19q-265 0 -388 118l93 88q101 -92 313 -92q67 0 96 11t29 36q0 19 -14.5 28t-52.5 12l-216 18q-109 10 -160.5 47.5t-51.5 106.5q0 165 323 165q222 0 339 -90l-77 -91q-98 69 -279 69q-129 0 -129 -43q0 -18 16 -27t54 -12l220 -17q109 -9 157.5 -44.5
t48.5 -104.5q0 -178 -321 -178zM356 -250l-26 53q39 8 53.5 19t16.5 30h-99v100h188v-76q0 -105 -133 -126z" />
    <glyph glyph-name="uni021A" unicode="&#x21a;" horiz-adv-x="812" 
d="M802 710v-157h-295v-553h-202v553h-295v157h792zM312 -148v100h188v-76q0 -105 -133 -126l-26 53q39 8 53.5 19t16.5 30h-99z" />
    <glyph glyph-name="uni021B" unicode="&#x21b;" horiz-adv-x="607" 
d="M3 379v121h148v117l193 68v-185h225v-121h-225v-145q0 -103 122 -103q53 0 103 13v-135q-51 -23 -153 -23q-265 0 -265 211v182h-148zM354 -250l-26 53q39 8 53.5 19t16.5 30h-99v100h188v-76q0 -105 -133 -126z" />
    <glyph glyph-name="uni0237" unicode="&#x237;" horiz-adv-x="368" 
d="M48 -206q-53 0 -85 9v138q28 -5 61 -5q35 0 52 24t17 78v462h193v-488q0 -109 -55 -163.5t-183 -54.5z" />
    <glyph glyph-name="uni0243" unicode="&#x243;" horiz-adv-x="948" 
d="M748 362q158 -26 158 -166q0 -93 -70 -144.5t-198 -51.5h-2v-105h-79v105h-174v-105h-79v105h-212v695h212v93h79v-93h174v93h79v-93q123 -1 187.5 -46.5t64.5 -131.5q0 -59 -37 -100t-103 -55zM579 567h-287v-157h287q100 0 100 80q0 77 -100 77zM589 128q108 0 108 83
q0 38 -29 59.5t-81 21.5h-295v-164h297z" />
    <glyph glyph-name="circumflex" unicode="&#x2c6;" horiz-adv-x="600" 
d="M548 573h-155l-101 101l-101 -101h-155l155 157h201z" />
    <glyph glyph-name="caron" unicode="&#x2c7;" horiz-adv-x="600" 
d="M36 725h155l101 -101l101 101h155l-155 -157h-201z" />
    <glyph glyph-name="breve" unicode="&#x2d8;" horiz-adv-x="600" 
d="M185 730q10 -78 93 -78t92 78h130q-7 -80 -65 -121t-157 -41t-157.5 41t-65.5 121h130z" />
    <glyph glyph-name="dotaccent" unicode="&#x2d9;" horiz-adv-x="600" 
d="M50 574v153h204v-153h-204z" />
    <glyph glyph-name="ring" unicode="&#x2da;" horiz-adv-x="600" 
d="M219 557q-87 0 -136 33t-49 88q0 56 49 88.5t136 32.5q88 0 136.5 -32.5t48.5 -88.5q0 -55 -48.5 -88t-136.5 -33zM219 623q43 0 66 15t23 40t-23 40t-66 15t-66 -15t-23 -40t23 -40t66 -15z" />
    <glyph glyph-name="ogonek" unicode="&#x2db;" horiz-adv-x="600" 
d="M396 -105q-7 -49 -55 -76t-127 -27q-76 0 -120 27t-44 74q0 80 118 112l161 -5q-76 -7 -112.5 -32t-36.5 -57q0 -19 13 -31t33 -12q44 0 54 42z" />
    <glyph glyph-name="tilde" unicode="&#x2dc;" horiz-adv-x="600" 
d="M433 585q-55 0 -115.5 29t-88.5 29q-55 0 -70 -62l-103 41q30 123 158 123q56 0 116 -29t89 -29q55 0 70 62l102 -41q-29 -123 -158 -123z" />
    <glyph glyph-name="hungarumlaut" unicode="&#x2dd;" horiz-adv-x="600" 
d="M80 573l155 157h153l-166 -157h-142zM312 573l155 157h154l-166 -157h-143z" />
    <glyph glyph-name="gravecomb" unicode="&#x300;" horiz-adv-x="0" 
d="M8 573h-161l-198 157h197z" />
    <glyph glyph-name="acutecomb" unicode="&#x301;" horiz-adv-x="0" 
d="M-355 573l162 157h197l-198 -157h-161z" />
    <glyph glyph-name="uni0302" unicode="&#x302;" horiz-adv-x="0" 
d="M-36 573h-155l-101 101l-101 -101h-155l155 157h201z" />
    <glyph glyph-name="tildecomb" unicode="&#x303;" horiz-adv-x="0" 
d="M-214 585q-55 0 -115.5 29t-88.5 29q-29 0 -45.5 -14.5t-24.5 -47.5l-103 41q30 123 158 123q56 0 116.5 -29t88.5 -29q55 0 70 62l102 -41q-29 -123 -158 -123z" />
    <glyph glyph-name="uni0304" unicode="&#x304;" horiz-adv-x="0" 
d="M-553 593v104h497v-104h-497z" />
    <glyph glyph-name="uni0306" unicode="&#x306;" horiz-adv-x="0" 
d="M-370 730q11 -78 93 -78q83 0 92 78h130q-7 -80 -65 -121t-157 -41t-157.5 41t-65.5 121h130z" />
    <glyph glyph-name="uni0307" unicode="&#x307;" horiz-adv-x="0" 
d="M-254 574v153h204v-153h-204z" />
    <glyph glyph-name="uni0308" unicode="&#x308;" horiz-adv-x="0" 
d="M-550 579v144h182v-144h-182zM-220 579v144h182v-144h-182z" />
    <glyph glyph-name="uni030A" unicode="&#x30a;" horiz-adv-x="0" 
d="M-219 557q-87 0 -136 33t-49 88q0 56 49 88.5t136 32.5q88 0 136.5 -32.5t48.5 -88.5q0 -55 -48.5 -88t-136.5 -33zM-219 623q43 0 66 15t23 40t-23 40t-66 15t-66 -15t-23 -40t23 -40t66 -15z" />
    <glyph glyph-name="uni030B" unicode="&#x30b;" horiz-adv-x="0" 
d="M-569 573l155 157h153l-166 -157h-142zM-337 573l155 157h154l-166 -157h-143z" />
    <glyph glyph-name="uni030C" unicode="&#x30c;" horiz-adv-x="0" 
d="M-548 725h155l101 -101l101 101h155l-155 -157h-201z" />
    <glyph glyph-name="uni0312" unicode="&#x312;" horiz-adv-x="0" 
d="M-105 774l26 -53q-39 -8 -53.5 -19t-16.5 -30h99v-100h-188v76q0 105 133 126z" />
    <glyph glyph-name="uni0326" unicode="&#x326;" horiz-adv-x="0" 
d="M-183 -250l-26 53q39 8 53.5 19t16.5 30h-99v100h188v-76q0 -105 -133 -126z" />
    <glyph glyph-name="uni0327" unicode="&#x327;" horiz-adv-x="0" 
d="M-300 3h90l-48 -60q29 16 77 16q61 0 96 -24.5t35 -67.5q0 -46 -46 -71.5t-129 -25.5q-112 0 -156 57l92 29q22 -25 65 -25q52 0 52 36q0 35 -50 35q-31 0 -52 -16l-94 18z" />
    <glyph glyph-name="uni0328" unicode="&#x328;" horiz-adv-x="0" 
d="M-51 -105q-7 -49 -55 -76t-127 -27q-76 0 -120 27t-44 74q0 80 118 112l161 -5q-76 -7 -112.5 -32t-36.5 -57q0 -19 13 -31t33 -12q43 0 54 42z" />
    <glyph glyph-name="uni0394" unicode="&#x394;" horiz-adv-x="981" 
d="M16 0l383 706h184l383 -706h-950zM489 534l-207 -393h413z" />
    <glyph glyph-name="uni03A9" unicode="&#x3a9;" horiz-adv-x="953" 
d="M893 0h-351l-22 267q88 10 133 52t45 111q0 73 -58 118t-164 45q-105 0 -163 -45t-58 -118q0 -69 44.5 -111t132.5 -52l-22 -267h-351v142h206l6 43q-105 25 -164 87.5t-59 159.5q0 136 117 217t311 81t311.5 -81t117.5 -217q0 -97 -59 -159.5t-164 -87.5l5 -43h206v-142
z" />
    <glyph glyph-name="uni03BC" unicode="&#x3bc;" horiz-adv-x="888" 
d="M614 500h193v-500h-190v117q-33 -67 -103 -101.5t-161 -34.5q-49 0 -95 11v-187h-176v695h193v-225q0 -84 41.5 -122t112.5 -38q90 0 137.5 49.5t47.5 123.5v212z" />
    <glyph glyph-name="pi" unicode="&#x3c0;" horiz-adv-x="941" 
d="M916 1q-49 -13 -106 -13q-60 0 -100.5 12t-61 36t-28.5 51.5t-8 65.5v227h-275v-380h-193v380h-120v120h893v-120h-113v-204q0 -60 64 -60q16 0 32 2l16 3v-120z" />
    <glyph glyph-name="uni0E3F" unicode="&#xe3f;" horiz-adv-x="948" 
d="M745 360q161 -24 161 -163q0 -95 -71 -146t-197 -51h-124v-105h-72v105h-350v695h350v93h72v-93h117q257 0 257 -178q0 -59 -37.5 -100.5t-105.5 -56.5zM282 575v-173h160v173h-160zM589 575h-75v-173h75q49 0 74.5 23t25.5 67q0 83 -100 83zM282 120h160v177h-160v-177z
M600 120q107 0 107 90q0 42 -28 64.5t-80 22.5h-85v-177h86z" />
    <glyph glyph-name="Wgrave" unicode="&#x1e80;" horiz-adv-x="1357" 
d="M759 760h-167l-180 118h196zM264 0l-246 710h206l141 -459q14 -55 15 -68h4q2 21 19 68l170 459h211l169 -459q18 -51 20 -68h4q1 22 15 68l141 459h205l-245 -710h-231l-166 453q-14 39 -15 62h-5q-1 -23 -15 -62l-166 -453h-231z" />
    <glyph glyph-name="wgrave" unicode="&#x1e81;" horiz-adv-x="1138" 
d="M655 573h-161l-198 157h197zM219 0l-207 500h194l109 -304q8 -26 13 -55h2q1 11 15 55l126 304h196l125 -304q13 -35 16 -55h2q5 29 13 55l109 304h194l-207 -500h-211l-120 288q-14 34 -17 61h-4q-3 -27 -17 -61l-121 -288h-210z" />
    <glyph glyph-name="Wacute" unicode="&#x1e82;" horiz-adv-x="1357" 
d="M595 760l151 118h196l-180 -118h-167zM264 0l-246 710h206l141 -459q14 -55 15 -68h4q2 21 19 68l170 459h211l169 -459q18 -51 20 -68h4q1 22 15 68l141 459h205l-245 -710h-231l-166 453q-14 39 -15 62h-5q-1 -23 -15 -62l-166 -453h-231z" />
    <glyph glyph-name="wacute" unicode="&#x1e83;" horiz-adv-x="1138" 
d="M482 573l162 157h197l-198 -157h-161zM219 0l-207 500h194l109 -304q8 -26 13 -55h2q1 11 15 55l126 304h196l125 -304q13 -35 16 -55h2q5 29 13 55l109 304h194l-207 -500h-211l-120 288q-14 34 -17 61h-4q-3 -27 -17 -61l-121 -288h-210z" />
    <glyph glyph-name="Wdieresis" unicode="&#x1e84;" horiz-adv-x="1357" 
d="M424 760v118h181v-118h-181zM752 760v118h182v-118h-182zM264 0l-246 710h206l141 -459q14 -55 15 -68h4q2 21 19 68l170 459h211l169 -459q18 -51 20 -68h4q1 22 15 68l141 459h205l-245 -710h-231l-166 453q-14 39 -15 62h-5q-1 -23 -15 -62l-166 -453h-231z" />
    <glyph glyph-name="wdieresis" unicode="&#x1e85;" horiz-adv-x="1138" 
d="M313 579v144h182v-144h-182zM643 579v144h182v-144h-182zM219 0l-207 500h194l109 -304q8 -26 13 -55h2q1 11 15 55l126 304h196l125 -304q13 -35 16 -55h2q5 29 13 55l109 304h194l-207 -500h-211l-120 288q-14 34 -17 61h-4q-3 -27 -17 -61l-121 -288h-210z" />
    <glyph glyph-name="Ygrave" unicode="&#x1ef2;" horiz-adv-x="895" 
d="M531 760h-167l-180 118h196zM345 0v242l-355 468h230l205 -288q20 -26 24 -40h2q5 16 23 40l212 288h218l-357 -468v-242h-202z" />
    <glyph glyph-name="ygrave" unicode="&#x1ef3;" horiz-adv-x="774" 
d="M474 573h-161l-198 157h197zM169 -211q-79 0 -120 10v144q49 -7 89 -7q50 0 94 14.5t63 40.5l3 6l-304 503h216l157 -298q19 -39 26 -57h3q5 13 24 54l152 301h207l-290 -525q-55 -99 -129 -142.5t-191 -43.5z" />
    <glyph glyph-name="uni2002" unicode="&#x2002;" horiz-adv-x="500" 
 />
    <glyph glyph-name="uni2003" unicode="&#x2003;" horiz-adv-x="1000" 
 />
    <glyph glyph-name="uni2004" unicode="&#x2004;" horiz-adv-x="0" 
 />
    <glyph glyph-name="uni2005" unicode="&#x2005;" horiz-adv-x="250" 
 />
    <glyph glyph-name="uni2009" unicode="&#x2009;" horiz-adv-x="135" 
 />
    <glyph glyph-name="uni200A" unicode="&#x200a;" horiz-adv-x="75" 
 />
    <glyph glyph-name="endash" unicode="&#x2013;" horiz-adv-x="787" 
d="M46 359h695v-163h-695v163z" />
    <glyph glyph-name="emdash" unicode="&#x2014;" horiz-adv-x="1067" 
d="M46 362h975v-169h-975v169z" />
    <glyph glyph-name="quoteleft" unicode="&#x2018;" horiz-adv-x="328" 
d="M229 734l19 -75q-87 -16 -87 -85v-5h101v-180h-196v167q0 71 38.5 119t124.5 59z" />
    <glyph glyph-name="quoteright" unicode="&#x2019;" horiz-adv-x="328" 
d="M99 365l-19 75q87 16 87 85v5h-101v180h196v-167q0 -71 -38.5 -119t-124.5 -59z" />
    <glyph glyph-name="quotesinglbase" unicode="&#x201a;" horiz-adv-x="328" 
d="M99 -165l-19 75q87 16 87 85v5h-101v180h196v-167q0 -71 -38.5 -119t-124.5 -59z" />
    <glyph glyph-name="quotedblleft" unicode="&#x201c;" horiz-adv-x="587" 
d="M229 734l19 -75q-87 -16 -87 -85v-5h101v-180h-196v167q0 71 38.5 119t124.5 59zM488 734l19 -75q-87 -16 -87 -85v-5h101v-180h-196v167q0 71 38.5 119t124.5 59z" />
    <glyph glyph-name="quotedblright" unicode="&#x201d;" horiz-adv-x="587" 
d="M99 366l-19 75q87 16 87 85v5h-101v180h196v-167q0 -71 -38.5 -119t-124.5 -59zM358 366l-19 75q87 16 87 85v5h-101v180h196v-167q0 -71 -38.5 -119t-124.5 -59z" />
    <glyph glyph-name="quotedblbase" unicode="&#x201e;" horiz-adv-x="587" 
d="M99 -164l-19 75q87 16 87 85v5h-101v180h196v-167q0 -71 -38.5 -119t-124.5 -59zM358 -164l-19 75q87 16 87 85v5h-101v180h196v-167q0 -71 -38.5 -119t-124.5 -59z" />
    <glyph glyph-name="dagger" unicode="&#x2020;" horiz-adv-x="653" 
d="M390 396v-467h-127v467h-225v104h225v220h127v-220h225v-104h-225z" />
    <glyph glyph-name="daggerdbl" unicode="&#x2021;" horiz-adv-x="653" 
d="M615 396h-225v-143h225v-104h-225v-220h-127v220h-225v104h225v143h-225v104h225v220h127v-220h225v-104z" />
    <glyph glyph-name="bullet" unicode="&#x2022;" horiz-adv-x="392" 
d="M195 211q-56 0 -92.5 35.5t-36.5 91.5q0 59 36.5 95t92.5 36q58 0 94.5 -36t36.5 -95q0 -56 -37 -91.5t-94 -35.5z" />
    <glyph glyph-name="ellipsis" unicode="&#x2026;" horiz-adv-x="1101" 
d="M275 162v-162h-209v162h209zM656 162v-162h-209v162h209zM1036 162v-162h-209v162h209z" />
    <glyph glyph-name="perthousand" unicode="&#x2030;" horiz-adv-x="1740" 
d="M144 -17l751 743h152l-752 -743h-151zM284 332q-118 0 -190 53t-72 142q0 86 72 139t189 53q116 0 189 -53.5t73 -141.5q0 -86 -72.5 -139t-188.5 -53zM284 432q50 0 79.5 24.5t29.5 67.5q0 44 -30 69.5t-80 25.5q-51 0 -81 -25t-30 -67q0 -45 30 -70t82 -25zM900 -18
q-118 0 -190 53t-72 142q0 86 72 139t189 53q116 0 189 -53.5t73 -141.5q0 -86 -72.5 -139t-188.5 -53zM1457 -18q-118 0 -190 53t-72 142q0 86 72 139t189 53q116 0 189 -53.5t73 -141.5q0 -86 -72.5 -139t-188.5 -53zM900 82q50 0 79.5 24.5t29.5 67.5q0 44 -30 69.5
t-80 25.5q-51 0 -81 -25t-30 -67q0 -45 30 -70t82 -25zM1457 82q50 0 79.5 24.5t29.5 67.5q0 44 -30 69.5t-80 25.5q-51 0 -81 -25t-30 -67q0 -45 30.5 -70t81.5 -25z" />
    <glyph glyph-name="guilsinglleft" unicode="&#x2039;" horiz-adv-x="470" 
d="M266 67l-242 209l247 206h183l-245 -205l242 -210h-185z" />
    <glyph glyph-name="guilsinglright" unicode="&#x203a;" horiz-adv-x="470" 
d="M204 67h-185l242 210l-245 205h183l247 -206z" />
    <glyph glyph-name="fraction" unicode="&#x2044;" horiz-adv-x="264" 
d="M-240 -17l585 744h159l-585 -744h-159z" />
    <glyph glyph-name="uni20A9" unicode="&#x20a9;" horiz-adv-x="1399" 
d="M1369 379h-120l-22 -62h142v-63h-164l-89 -254h-222l-89 254h-211l-90 -254h-221l-89 254h-164v63h142l-22 62h-120v63h98l-89 253h188l73 -253h205l91 253h207l91 -253h205l73 253h188l-89 -253h98v-63zM663 451l-3 -9h79l-3 9q-26 75 -34 133h-5q-8 -58 -34 -133z
M319 379l18 -62h123l22 62h-163zM616 317h167l-22 62h-123zM1062 317l18 62h-164l22 -62h124zM432 240l5 14h-82l3 -11q24 -83 31 -136h5q7 48 38 133zM1041 243l3 11h-83l5 -14q33 -90 39 -133h5q7 53 31 136z" />
    <glyph glyph-name="Euro" unicode="&#x20ac;" horiz-adv-x="1011" 
d="M570 123q162 0 227 115l182 -68q-55 -92 -162.5 -143t-253.5 -51q-184 0 -297.5 76.5t-146.5 202.5h-114v64h103q-2 24 -2 36q0 17 1 25h-102v64h113q34 122 152.5 198t301.5 76q146 0 254.5 -50t158.5 -137l-192 -61q-61 101 -223 101q-189 0 -242 -127h362v-64h-378
q-1 -8 -1 -25q0 -12 2 -36h377v-64h-360q56 -132 240 -132z" />
    <glyph glyph-name="uni20B9" unicode="&#x20b9;" horiz-adv-x="913" 
d="M857 584h-236q26 -36 32 -85h204v-70h-205q-13 -81 -82 -132.5t-209 -54.5h-22l297 -242h-248l-309 263v78h207q135 0 155 88h-362v70h362q-20 85 -141 85h-221v111h778v-111z" />
    <glyph glyph-name="uni20BA" unicode="&#x20ba;" horiz-adv-x="841" 
d="M644 282l190 -23q-23 -86 -61 -140t-111.5 -86.5t-183.5 -32.5h-340v269l-115 -23v68l115 23v69l-115 -23v69l115 23v220h201v-180l316 63v-69l-316 -63v-69l316 63v-69l-316 -62v-165h106q82 0 131.5 38t67.5 100z" />
    <glyph glyph-name="uni20BD" unicode="&#x20bd;" horiz-adv-x="909" 
d="M604 238h-274v-69h284v-70h-284v-99h-200v99h-123v70h123v69h-123v128h123v329h471q136 0 213.5 -59.5t77.5 -164.5q0 -107 -77.5 -170t-210.5 -63zM330 560v-194h227q58 0 91 26t33 72q0 45 -32.5 70.5t-91.5 25.5h-227z" />
    <glyph glyph-name="uni2105" unicode="&#x2105;" horiz-adv-x="1222" 
d="M25 537q0 87 72 140t191 53q101 0 170 -39.5t86 -107.5l-160 -16q-19 56 -97 56q-48 0 -77 -23t-29 -63q0 -42 29 -65.5t78 -23.5q79 0 97 59l160 -11q-12 -70 -82.5 -112t-174.5 -42q-120 0 -191.5 53t-71.5 142zM323 -14h-181l755 744h181zM937 -13q-119 0 -190.5 52.5
t-71.5 142.5q0 88 71.5 140.5t189.5 52.5q116 0 188.5 -53.5t72.5 -142.5q0 -87 -72.5 -139.5t-187.5 -52.5zM1039 179q0 42 -28 65.5t-75 23.5q-48 0 -76.5 -23t-28.5 -63q0 -42 29 -65.5t77 -23.5q46 0 74 23.5t28 62.5z" />
    <glyph glyph-name="uni2113" unicode="&#x2113;" horiz-adv-x="657" 
d="M330 222q20 -97 148 -97q50 0 105 13v-138q-66 -16 -138 -16q-146 0 -213 46.5t-80 139.5q-63 -15 -130 -27l-34 124q115 24 160 35v209q0 61 21 106.5t57.5 71.5t80.5 38.5t94 12.5q115 0 174.5 -55.5t59.5 -151.5q0 -198 -305 -311zM326 530v-172q138 63 138 170
q0 88 -69 88q-33 0 -51 -22.5t-18 -63.5z" />
    <glyph glyph-name="uni2116" unicode="&#x2116;" horiz-adv-x="1664" 
d="M92 0v710h216l369 -403q43 -53 56 -80h4v102v381h183v-710h-201l-383 407q-41 47 -57 81h-4v-99v-389h-183zM1285 198q-143 0 -229 64t-86 166t85 165t230 63t230 -63t85 -165q0 -103 -85.5 -166.5t-229.5 -63.5zM1285 317q70 -1 110.5 29.5t40.5 81.5q0 50 -40.5 80
t-110.5 30t-110.5 -30t-40.5 -80t40.5 -80.5t110.5 -30.5zM977 0v119h616v-119h-616z" />
    <glyph glyph-name="trademark" unicode="&#x2122;" horiz-adv-x="1111" 
d="M164 307v308h-158v98h451v-98h-164v-308h-129zM506 307v406h182l78 -214q17 -47 25 -86h1q8 39 25 86l77 214h182v-406h-112v228q0 39 3 89h-1q-6 -18 -26 -75l-92 -242h-114l-91 242q-20 57 -26 75h-1q3 -49 3 -89v-228h-113z" />
    <glyph glyph-name="uni2126" unicode="&#x2126;" horiz-adv-x="953" 
d="M893 0h-351l-22 267q88 10 133 52t45 111q0 73 -58 118t-164 45q-105 0 -163 -45t-58 -118q0 -69 44.5 -111t132.5 -52l-22 -267h-351v142h206l6 43q-105 25 -164 87.5t-59 159.5q0 136 117 217t311 81t311.5 -81t117.5 -217q0 -97 -59 -159.5t-164 -87.5l5 -43h206v-142
z" />
    <glyph glyph-name="estimated" unicode="&#x212e;" horiz-adv-x="907" 
d="M887 345h-623v-248q89 -43 213 -43q109 0 187 31.5t141 102.5l62 -45q-130 -162 -390 -162q-74 0 -140 13t-124 42t-100.5 71.5t-67 105t-24.5 138.5q0 90 36.5 162.5t99 117.5t143 69t171.5 24q190 0 303 -92.5t113 -245.5v-41zM672 613q-80 44 -206 44q-117 0 -202 -44
v-199h408v199z" />
    <glyph glyph-name="uni2153" unicode="&#x2153;" horiz-adv-x="1148" 
d="M111 -17l585 744h159l-585 -744h-159zM155 317v251q-32 -26 -102 -26h-30v100h17q97 0 131 68h102v-393h-118zM879 -14q-106 0 -167.5 36.5t-69.5 104.5l121 11q13 -67 116 -67q110 0 110 47q0 23 -22 32.5t-76 9.5h-61v76h62q88 0 88 40q0 46 -100 46q-108 0 -115 -68
l-118 13q5 66 66 103t169 37q100 0 160 -31t60 -88q0 -38 -28.5 -60t-76.5 -26q117 -13 117 -91q0 -58 -64.5 -91.5t-170.5 -33.5z" />
    <glyph glyph-name="uni2154" unicode="&#x2154;" horiz-adv-x="1334" 
d="M297 -17l585 744h159l-585 -744h-159zM29 317v83q196 60 252 88q80 41 81 86q0 29 -26.5 46t-72.5 17q-47 0 -76 -18.5t-29 -55.5q0 -9 4 -19l-124 11q-3 13 -3 23q0 66 64.5 106t162.5 40q105 0 166 -36.5t61 -104.5q0 -115 -233 -174h242v-92h-469zM1065 -14
q-106 0 -167.5 36.5t-69.5 104.5l121 11q13 -67 116 -67q110 0 110 47q0 23 -22 32.5t-76 9.5h-61v76h62q88 0 88 40q0 46 -100 46q-108 0 -115 -68l-118 13q5 66 66 103t169 37q100 0 160 -31t60 -88q0 -38 -28.5 -60t-76.5 -26q117 -13 117 -91q0 -58 -64.5 -91.5
t-170.5 -33.5z" />
    <glyph glyph-name="oneeighth" unicode="&#x215b;" horiz-adv-x="1156" 
d="M696 727h159l-585 -744h-159zM155 317v251q-32 -26 -102 -26h-30v100h17q97 0 131 68h102v-393h-118zM1025 216q53 -16 76 -41t23 -64q0 -59 -62.5 -92t-172.5 -33q-115 0 -178.5 30.5t-63.5 85.5q0 72 103 93q-48 16 -68.5 39t-20.5 57q0 53 61 84.5t165 31.5
q102 0 162.5 -30t60.5 -80q0 -29 -22.5 -50t-62.5 -31zM887 334q-105 0 -105 -43q0 -18 21 -29t72 -18l56 -8l7 -1q51 23 51 52q0 47 -102 47zM889 65q52 0 82 13t30 36q0 20 -20 30.5t-89 21.5l-55 9q-67 -19 -67 -59q0 -51 119 -51z" />
    <glyph glyph-name="threeeighths" unicode="&#x215c;" horiz-adv-x="1338" 
d="M878 727h159l-585 -744h-159zM499 428q0 -58 -64.5 -91.5t-170.5 -33.5t-167.5 36.5t-69.5 104.5l121 11q13 -67 116 -67q110 0 110 47q0 23 -22 32.5t-76 9.5h-61v76h62q88 0 88 40q0 46 -100 46q-108 0 -115 -68l-118 13q5 66 66 103t169 37q100 0 160 -31t60 -88
q0 -38 -28.5 -60t-76.5 -26q117 -13 117 -91zM1207 216q53 -16 76 -41t23 -64q0 -59 -62.5 -92t-172.5 -33q-115 0 -178.5 30.5t-63.5 85.5q0 72 103 93q-48 16 -68.5 39t-20.5 57q0 53 61 84.5t165 31.5q102 0 162.5 -30t60.5 -80q0 -29 -22.5 -50t-62.5 -31zM1069 334
q-105 0 -105 -43q0 -18 21 -29t72 -18l56 -8l7 -1q51 23 51 52q0 47 -102 47zM1071 65q52 0 82 13t30 36q0 20 -20 30.5t-89 21.5l-55 9q-67 -19 -67 -59q0 -51 119 -51z" />
    <glyph glyph-name="fiveeighths" unicode="&#x215d;" horiz-adv-x="1328" 
d="M868 727h159l-585 -744h-159zM491 454q0 -70 -62 -110.5t-168 -40.5q-94 0 -155 31.5t-74 87.5l118 16q16 -51 115 -51q50 0 77 17.5t27 48.5q0 61 -101 61q-80 0 -109 -40l-107 8l28 228h379v-73h-287l-13 -92q38 48 149 48q88 0 135.5 -36.5t47.5 -102.5zM1197 216
q53 -16 76 -41t23 -64q0 -59 -62.5 -92t-172.5 -33q-115 0 -178.5 30.5t-63.5 85.5q0 72 103 93q-48 16 -68.5 39t-20.5 57q0 53 61 84.5t165 31.5q102 0 162.5 -30t60.5 -80q0 -29 -22.5 -50t-62.5 -31zM1059 334q-105 0 -105 -43q0 -18 21 -29t72 -18l56 -8l7 -1
q51 23 51 52q0 47 -102 47zM1061 65q52 0 82 13t30 36q0 20 -20 30.5t-89 21.5l-55 9q-67 -19 -67 -59q0 -51 119 -51z" />
    <glyph glyph-name="seveneighths" unicode="&#x215e;" horiz-adv-x="1220" 
d="M760 727h159l-585 -744h-159zM121 317q15 191 203 302h-305v91h430v-84q-86 -50 -137 -129.5t-59 -178.5v-1h-132zM1089 216q53 -16 76 -41t23 -64q0 -59 -62.5 -92t-172.5 -33q-115 0 -178.5 30.5t-63.5 85.5q0 72 103 93q-48 16 -68.5 39t-20.5 57q0 53 61 84.5
t165 31.5q102 0 162.5 -30t60.5 -80q0 -29 -22.5 -50t-62.5 -31zM951 334q-105 0 -105 -43q0 -18 21 -29t72 -18l56 -8l7 -1q51 23 51 52q0 47 -102 47zM953 65q52 0 82 13t30 36q0 20 -20 30.5t-89 21.5l-55 9q-67 -19 -67 -59q0 -51 119 -51z" />
    <glyph glyph-name="arrowleft" unicode="&#x2190;" horiz-adv-x="1243" 
d="M1151 282h-854v-107l-205 155l205 155v-107h854v-96z" />
    <glyph glyph-name="arrowup" unicode="&#x2191;" horiz-adv-x="492" 
d="M196 -35v580h-104l154 205l155 -205h-104v-580h-101z" />
    <glyph glyph-name="arrowright" unicode="&#x2192;" horiz-adv-x="1243" 
d="M92 378h854v107l205 -155l-205 -155v107h-854v96z" />
    <glyph glyph-name="arrowdown" unicode="&#x2193;" horiz-adv-x="492" 
d="M296 745v-580h104l-154 -205l-155 205h104v580h101z" />
    <glyph glyph-name="arrowboth" unicode="&#x2194;" horiz-adv-x="1118" 
d="M821 282h-524v-107l-205 155l205 155v-107h524v107l205 -155l-205 -155v107z" />
    <glyph glyph-name="arrowupdn" unicode="&#x2195;" horiz-adv-x="492" 
d="M92 168h104v377h-104l154 205l155 -205h-104v-377h104l-155 -205z" />
    <glyph glyph-name="uni2196" unicode="&#x2196;" horiz-adv-x="916" 
d="M183 548l-91 -102v264h249l-89 -90l572 -572l-68 -72z" />
    <glyph glyph-name="uni2197" unicode="&#x2197;" horiz-adv-x="916" 
d="M733 549l-573 -572l-68 72l572 572l-89 90h249v-264z" />
    <glyph glyph-name="uni2198" unicode="&#x2198;" horiz-adv-x="916" 
d="M733 173l91 102v-264h-249l89 90l-572 572l68 72z" />
    <glyph glyph-name="uni2199" unicode="&#x2199;" horiz-adv-x="916" 
d="M183 173l573 572l68 -72l-572 -572l89 -90h-249v264z" />
    <glyph glyph-name="uni21A9" unicode="&#x21a9;" horiz-adv-x="1260" 
d="M297 175l-205 155l205 155v-107h593q175 0 175 118q0 112 -175 112h-443v96h442q140 0 210 -54.5t70 -153.5q0 -102 -73 -158t-226 -56h-573v-107z" />
    <glyph glyph-name="uni21AA" unicode="&#x21aa;" horiz-adv-x="1260" 
d="M963 175v107h-573q-153 0 -226 56t-73 158q0 99 70 153.5t210 54.5h442v-96h-443q-175 0 -175 -112q0 -118 175 -118h593v107l205 -155z" />
    <glyph glyph-name="uni21B0" unicode="&#x21b0;" horiz-adv-x="1244" 
d="M1051 0v552h-754v-107l-205 155l205 155v-107h855v-648h-101z" />
    <glyph glyph-name="uni21B1" unicode="&#x21b1;" horiz-adv-x="1244" 
d="M193 0h-101v648h855v107l205 -155l-205 -155v107h-754v-552z" />
    <glyph glyph-name="uni21B2" unicode="&#x21b2;" horiz-adv-x="1244" 
d="M1051 710h101v-648h-855v-107l-205 155l205 155v-107h754v552z" />
    <glyph glyph-name="uni21B3" unicode="&#x21b3;" horiz-adv-x="1244" 
d="M193 710v-552h754v107l205 -155l-205 -155v107h-855v648h101z" />
    <glyph glyph-name="uni21B4" unicode="&#x21b4;" horiz-adv-x="1347" 
d="M1151 733v-558h104l-154 -206l-155 206h104v463h-958v95h1059z" />
    <glyph glyph-name="uni21BB" unicode="&#x21bb;" horiz-adv-x="1244" 
d="M998 188l-155 205h106q-17 118 -121 189t-257 71q-166 0 -272 -83t-106 -217t106.5 -218t271.5 -84q94 0 174 28.5t132 79.5l67 -70q-139 -128 -373 -128q-213 0 -346 111t-133 280q0 170 133 281t346 111q200 0 330.5 -98t148.5 -253h102z" />
    <glyph glyph-name="uni21C4" unicode="&#x21c4;" horiz-adv-x="1302" 
d="M1146 411h-849v-107l-205 154l205 155v-107h849v-95zM1005 249v107l206 -155l-206 -154v107h-847v95h847z" />
    <glyph glyph-name="uni21C5" unicode="&#x21c5;" horiz-adv-x="781" 
d="M484 15v536h-103l154 205l155 -205h-104v-536h-102zM246 -40l-154 205h104v537h101v-537h104z" />
    <glyph glyph-name="partialdiff" unicode="&#x2202;" horiz-adv-x="833" 
d="M344 721q212 0 323.5 -99.5t111.5 -283.5q0 -169 -104 -262t-299 -93q-156 0 -250 67.5t-94 179.5q0 106 82.5 168t228.5 62q161 0 249 -83q-4 97 -67 149t-181 52q-84 0 -171 -33l-62 129q102 47 233 47zM387 107q85 0 141 40.5t63 112.5q-64 76 -203 76
q-82 0 -125.5 -29.5t-43.5 -81.5q0 -53 45.5 -85.5t122.5 -32.5z" />
    <glyph glyph-name="emptyset" unicode="&#x2205;" horiz-adv-x="671" 
d="M579 459q62 -62 62 -153q0 -107 -83.5 -172t-222.5 -65q-111 0 -188 43l-76 -61l-47 45l69 56q-62 60 -62 152q0 108 83 173t222 65q110 0 190 -43l75 60l47 -45zM174 306q0 -41 22 -72l228 183q-40 16 -88 16q-75 0 -118.5 -34.5t-43.5 -92.5zM335 177q75 0 119 34.5
t44 92.5q0 41 -22 72l-227 -182q37 -17 86 -17z" />
    <glyph glyph-name="uni2206" unicode="&#x2206;" horiz-adv-x="981" 
d="M16 0l383 706h184l383 -706h-950zM489 534l-207 -393h413z" />
    <glyph glyph-name="product" unicode="&#x220f;" horiz-adv-x="966" 
d="M687 -88v637h-408v-637h-192v793h792v-793h-192z" />
    <glyph glyph-name="summation" unicode="&#x2211;" horiz-adv-x="844" 
d="M50 -88v134l347 278l-334 248v133h718v-143h-464l322 -235l-352 -272h506v-143h-743z" />
    <glyph glyph-name="minus" unicode="&#x2212;" horiz-adv-x="710" 
d="M46 268v120h618v-120h-618z" />
    <glyph glyph-name="radical" unicode="&#x221a;" horiz-adv-x="831" 
d="M16 364h242l109 -282l254 652h199l-345 -828h-209l-128 303h-122v155z" />
    <glyph glyph-name="infinity" unicode="&#x221e;" horiz-adv-x="818" 
d="M598 499q82 0 133 -46t51 -124q0 -76 -52.5 -124t-132.5 -48q-110 0 -190 85q-82 -85 -187 -85q-82 0 -133 46t-51 124q0 77 52.5 124.5t133.5 47.5q110 0 189 -85q80 85 187 85zM236 264q55 0 107 65q-51 64 -109 64q-34 0 -55.5 -17.5t-21.5 -47.5t22.5 -47t56.5 -17z
M584 263q34 0 55.5 17.5t21.5 47.5t-22 47t-57 17q-55 0 -107 -65q51 -64 109 -64z" />
    <glyph glyph-name="integral" unicode="&#x222b;" horiz-adv-x="563" 
d="M98 -115q-38 0 -83 8v138q32 -5 59 -5q55 0 81.5 28t26.5 92v338q0 119 71 181t204 62q39 0 84 -7v-139q-25 4 -60 4q-55 0 -81 -27t-26 -93v-340q0 -117 -72 -178.5t-204 -61.5z" />
    <glyph glyph-name="approxequal" unicode="&#x2248;" 
d="M551 344q-53 0 -152.5 32.5t-140.5 32.5q-93 0 -155 -50v110q26 22 68 36t84 14q63 0 158 -32.5t135 -32.5q93 0 153 50v-111q-24 -21 -66.5 -35t-83.5 -14zM551 149q-53 0 -152.5 32.5t-140.5 32.5q-93 0 -155 -50v111q26 21 68.5 35t83.5 14q63 0 158 -32.5t135 -32.5
q93 0 153 50v-110q-24 -22 -66.5 -36t-83.5 -14z" />
    <glyph glyph-name="notequal" unicode="&#x2260;" 
d="M699 371h-232l-43 -84h275v-108h-331l-60 -116h-91l60 116h-177v108h233l43 84h-276v108h332l58 112h91l-58 -112h176v-108z" />
    <glyph glyph-name="lessequal" unicode="&#x2264;" 
d="M677 140l-565 205v110l565 205v-125l-421 -134l421 -134v-127zM117 104h564v-104h-564v104z" />
    <glyph glyph-name="greaterequal" unicode="&#x2265;" 
d="M126 140v127l421 134l-421 134v125l565 -205v-110zM686 104v-104h-564v104h564z" />
    <glyph glyph-name="uni2460" unicode="&#x2460;" horiz-adv-x="931" 
d="M465 -25q-203 0 -323.5 102t-120.5 278t120.5 278t323.5 102t324 -102t121 -278t-121 -278t-324 -102zM465 38q168 0 271 85.5t103 231.5t-103 231.5t-271 85.5t-270.5 -85.5t-102.5 -231.5t102.5 -231.5t270.5 -85.5zM431 155v251q-32 -26 -102 -26h-30v100h17
q97 0 131 68h102v-393h-118z" />
    <glyph glyph-name="uni2461" unicode="&#x2461;" horiz-adv-x="931" 
d="M465 -25q-203 0 -323.5 102t-120.5 278t120.5 278t323.5 102t324 -102t121 -278t-121 -278t-324 -102zM465 38q168 0 271 85.5t103 231.5t-103 231.5t-271 85.5t-270.5 -85.5t-102.5 -231.5t102.5 -231.5t270.5 -85.5zM231 168v83q196 60 252 88q81 40 81 86
q0 29 -26.5 46t-72.5 17q-47 0 -76 -18.5t-29 -55.5q0 -9 4 -19l-124 11q-3 14 -3 23q0 66 64.5 106t162.5 40q105 0 166 -36.5t61 -104.5q0 -115 -233 -174h242v-92h-469z" />
    <glyph glyph-name="uni2462" unicode="&#x2462;" horiz-adv-x="931" 
d="M465 -25q-203 0 -323.5 102t-120.5 278t120.5 278t323.5 102t324 -102t121 -278t-121 -278t-324 -102zM465 38q168 0 271 85.5t103 231.5t-103 231.5t-271 85.5t-270.5 -85.5t-102.5 -231.5t102.5 -231.5t270.5 -85.5zM466 144q-106 0 -167.5 36.5t-69.5 104.5l121 11
q13 -67 116 -67q110 0 110 47q0 23 -22 32.5t-76 9.5h-61v76h62q88 0 88 40q0 46 -100 46q-108 0 -115 -68l-118 13q5 66 66 103t169 37q100 0 160 -31t60 -88q0 -38 -28.5 -60t-76.5 -26q117 -13 117 -91q0 -58 -64.5 -91.5t-170.5 -33.5z" />
    <glyph glyph-name="uni2463" unicode="&#x2463;" horiz-adv-x="931" 
d="M465 -25q-203 0 -323.5 102t-120.5 278t120.5 278t323.5 102t324 -102t121 -278t-121 -278t-324 -102zM465 38q168 0 271 85.5t103 231.5t-103 231.5t-271 85.5t-270.5 -85.5t-102.5 -231.5t102.5 -231.5t270.5 -85.5zM700 247h-89v-82h-116v82h-302v74l282 237h136v-231
h89v-80zM495 479l-177 -152h177v152z" />
    <glyph glyph-name="uni2464" unicode="&#x2464;" horiz-adv-x="931" 
d="M465 -25q-203 0 -323.5 102t-120.5 278t120.5 278t323.5 102t324 -102t121 -278t-121 -278t-324 -102zM465 38q168 0 271 85.5t103 231.5t-103 231.5t-271 85.5t-270.5 -85.5t-102.5 -231.5t102.5 -231.5t270.5 -85.5zM459 151q-94 0 -155 31.5t-74 87.5l118 16
q16 -51 115 -51q50 0 77 17.5t27 48.5q0 61 -101 61q-80 0 -109 -40l-107 8l28 228h379v-73h-287l-13 -92q38 48 149 48q88 0 135.5 -36.5t47.5 -102.5q0 -70 -62 -110.5t-168 -40.5z" />
    <glyph glyph-name="uni2465" unicode="&#x2465;" horiz-adv-x="931" 
d="M465 735q203 0 324 -102t121 -278t-121 -278t-324 -102t-323.5 102t-120.5 278t120.5 278t323.5 102zM465 38q168 0 271 85.5t103 231.5t-103 231.5t-271 85.5t-270.5 -85.5t-102.5 -231.5t102.5 -231.5t270.5 -85.5zM495 429q96 0 148 -34.5t52 -103.5q0 -65 -63 -106
t-165 -41q-115 0 -179.5 54.5t-64.5 152.5q0 101 64.5 157.5t181.5 56.5q88 0 147.5 -25t74.5 -70l-122 -18q-27 39 -103 39q-115 0 -126 -105q56 43 155 43zM467 228q47 0 76.5 17.5t29.5 45.5q0 57 -101 57q-92 0 -125 -53q23 -67 120 -67z" />
    <glyph glyph-name="uni2466" unicode="&#x2466;" horiz-adv-x="931" 
d="M465 -25q-203 0 -323.5 102t-120.5 278t120.5 278t323.5 102t324 -102t121 -278t-121 -278t-324 -102zM465 38q168 0 271 85.5t103 231.5t-103 231.5t-271 85.5t-270.5 -85.5t-102.5 -231.5t102.5 -231.5t270.5 -85.5zM251 460v91h430v-84q-86 -50 -137 -129.5
t-59 -178.5v-1h-132q15 191 203 302h-305z" />
    <glyph glyph-name="uni2467" unicode="&#x2467;" horiz-adv-x="931" 
d="M465 735q203 0 324 -102t121 -278t-121 -278t-324 -102t-323.5 102t-120.5 278t120.5 278t323.5 102zM465 38q168 0 271 85.5t103 231.5t-103 231.5t-271 85.5t-270.5 -85.5t-102.5 -231.5t102.5 -231.5t270.5 -85.5zM605 374q53 -16 76 -41t23 -64q0 -59 -62.5 -92
t-172.5 -33q-115 0 -178.5 30.5t-63.5 85.5q0 72 103 93q-48 16 -68.5 39t-20.5 57q0 53 61 84.5t165 31.5q102 0 162.5 -30t60.5 -80q0 -29 -22.5 -50t-62.5 -31zM467 492q-105 0 -105 -43q0 -18 21 -29t72 -18l56 -8l7 -1q51 23 51 52q0 47 -102 47zM469 223q52 0 82 13
t30 36q0 20 -20 30.5t-89 21.5l-55 9q-67 -19 -67 -59q0 -51 119 -51z" />
    <glyph glyph-name="uni2468" unicode="&#x2468;" horiz-adv-x="931" 
d="M465 735q203 0 324 -102t121 -278t-121 -278t-324 -102t-323.5 102t-120.5 278t120.5 278t323.5 102zM465 38q168 0 271 85.5t103 231.5t-103 231.5t-271 85.5t-270.5 -85.5t-102.5 -231.5t102.5 -231.5t270.5 -85.5zM455 565q118 0 182 -54t64 -153q0 -100 -65.5 -157
t-180.5 -57q-87 0 -147.5 30t-74.5 81l121 18q22 -46 105 -46q117 0 126 111q-51 -45 -156 -45q-96 0 -147.5 34t-51.5 99q0 63 61.5 101t163.5 38zM452 373q94 0 123 46q-27 66 -118 66q-50 0 -78 -15.5t-28 -43.5q0 -53 101 -53z" />
    <glyph glyph-name="uni24EA" unicode="&#x24ea;" horiz-adv-x="931" 
d="M465 -25q-203 0 -323.5 102t-120.5 278t120.5 278t323.5 102t324 -102t121 -278t-121 -278t-324 -102zM465 38q168 0 271 85.5t103 231.5t-103 231.5t-271 85.5t-270.5 -85.5t-102.5 -231.5t102.5 -231.5t270.5 -85.5zM465 144q-113 0 -183.5 57.5t-70.5 152.5
q0 97 70 154t185 57q114 0 184.5 -57t70.5 -153t-70.5 -153.5t-185.5 -57.5zM465 231q61 0 97 31.5t36 92.5t-35.5 92.5t-96.5 31.5t-97 -31.5t-36 -93.5q0 -60 36 -91.5t96 -31.5z" />
    <glyph glyph-name="uni24FF" unicode="&#x24ff;" horiz-adv-x="931" 
d="M465 -25q-203 0 -323.5 102t-120.5 278t120.5 278t323.5 102t324 -102t121 -278t-121 -278t-324 -102zM465 145q114 0 184.5 57.5t70.5 153.5t-70.5 152.5t-184.5 56.5q-115 0 -185 -56.5t-70 -153.5q0 -96 70.5 -153t184.5 -57zM465 232q-60 0 -95.5 31.5t-35.5 91.5
q0 62 35.5 93t95.5 31t95.5 -31t35.5 -92t-35.5 -92.5t-95.5 -31.5z" />
    <glyph glyph-name="lozenge" unicode="&#x25ca;" horiz-adv-x="729" 
d="M447 -17h-167l-267 372l267 371h167l269 -371zM363 583l-161 -228l161 -228l165 228z" />
    <glyph glyph-name="circle" unicode="&#x25cb;" horiz-adv-x="931" 
d="M465 -25q-203 0 -323.5 102t-120.5 278t120.5 278t323.5 102t324 -102t121 -278t-121 -278t-324 -102zM465 38q168 0 271 85.5t103 231.5t-103 231.5t-271 85.5t-270.5 -85.5t-102.5 -231.5t102.5 -231.5t270.5 -85.5z" />
    <glyph glyph-name="uni2776" unicode="&#x2776;" horiz-adv-x="931" 
d="M465 -25q-203 0 -323.5 102t-120.5 278t120.5 278t323.5 102t324 -102t121 -278t-121 -278t-324 -102zM430 155h119v394h-102q-34 -69 -131 -69h-18v-100h30q70 0 102 26v-251z" />
    <glyph glyph-name="uni2777" unicode="&#x2777;" horiz-adv-x="931" 
d="M465 -25q-203 0 -323.5 102t-120.5 278t120.5 278t323.5 102t324 -102t121 -278t-121 -278t-324 -102zM231 165h468v93h-241q232 60 232 174q0 68 -61 104t-165 36q-97 0 -162 -39.5t-65 -105.5q0 -10 3 -22l124 -11q-3 6 -3 17q0 37 28.5 55.5t74.5 18.5t72 -16.5
t26 -45.5q0 -26 -22.5 -48t-71 -43.5t-94.5 -37t-123 -39.5q-13 -4 -20 -6v-84z" />
    <glyph glyph-name="uni2778" unicode="&#x2778;" horiz-adv-x="931" 
d="M465 -25q-203 0 -323.5 102t-120.5 278t120.5 278t323.5 102t324 -102t121 -278t-121 -278t-324 -102zM466 145q105 0 170 32.5t65 89.5q0 80 -116 93q47 4 76 26t29 60q0 58 -60.5 88.5t-161.5 30.5q-107 0 -168 -37t-65 -103l120 -13q6 69 112 69q99 0 99 -49
q0 -40 -81 -40h-63v-71h63q90 0 90 -43q0 -49 -108 -49q-103 0 -115 67l-122 -10q6 -67 67.5 -104t168.5 -37z" />
    <glyph glyph-name="uni2779" unicode="&#x2779;" horiz-adv-x="931" 
d="M465 -25q-203 0 -323.5 102t-120.5 278t120.5 278t323.5 102t324 -102t121 -278t-121 -278t-324 -102zM500 159h117v82h90v81h-90v230h-137l-282 -237v-74h302v-82zM324 322l176 150v-150h-176z" />
    <glyph glyph-name="uni277A" unicode="&#x277a;" horiz-adv-x="931" 
d="M465 -25q-203 0 -323.5 102t-120.5 278t120.5 278t323.5 102t324 -102t121 -278t-121 -278t-324 -102zM459 152q106 0 168 40.5t62 109.5q0 66 -48.5 102.5t-135.5 36.5q-108 0 -148 -48l14 91h285v75h-379l-28 -229l109 -8q26 39 107 39q100 0 100 -60q0 -31 -27 -48
t-76 -17q-97 0 -113 50l-119 -16q12 -55 73 -86.5t156 -31.5z" />
    <glyph glyph-name="uni277B" unicode="&#x277b;" horiz-adv-x="931" 
d="M465 -25q-203 0 -323.5 102t-120.5 278t120.5 278t323.5 102t324 -102t121 -278t-121 -278t-324 -102zM467 145q102 0 165 41t63 106q0 68 -52 103t-147 35q-102 0 -154 -45q6 57 37 81.5t87 24.5q75 0 102 -39l123 18q-15 45 -74.5 70t-146.5 25q-117 0 -182 -56.5
t-65 -157.5q0 -98 64 -152t180 -54zM467 229q-96 0 -119 69q33 49 123 49q101 0 101 -55q0 -28 -29.5 -45.5t-75.5 -17.5z" />
    <glyph glyph-name="uni277C" unicode="&#x277c;" horiz-adv-x="931" 
d="M465 -25q-203 0 -323.5 102t-120.5 278t120.5 278t323.5 102t324 -102t121 -278t-121 -278t-324 -102zM353 158h134q7 98 57.5 178t136.5 131v85h-430v-92h304q-184 -107 -202 -302z" />
    <glyph glyph-name="uni277D" unicode="&#x277d;" horiz-adv-x="931" 
d="M465 -25q-204 0 -324 102t-120 278t120 278t324 102t324.5 -102t120.5 -278t-120.5 -278t-324.5 -102zM469 145q111 0 173 33t62 92q0 43 -27 69t-87 38q100 17 100 79q0 50 -60.5 79.5t-162.5 29.5q-104 0 -165 -31t-61 -84q0 -37 24 -60.5t81 -38.5q-57 -5 -88 -28.5
t-31 -62.5q0 -55 63.5 -85t178.5 -30zM517 395l-61 8q-51 7 -71.5 18t-20.5 29q0 42 103 42q101 0 101 -47q0 -38 -51 -50zM469 224q-118 0 -118 56q0 39 70 54l51 -9q67 -12 87.5 -22.5t20.5 -30.5q0 -22 -30 -35t-81 -13z" />
    <glyph glyph-name="uni277E" unicode="&#x277e;" horiz-adv-x="931" 
d="M465 -25q-203 0 -323.5 102t-120.5 278t120.5 278t323.5 102t324 -102t121 -278t-121 -278t-324 -102zM460 145q116 0 182 57t66 158q0 98 -64.5 151.5t-182.5 53.5q-102 0 -164 -37.5t-62 -101.5t52 -98.5t148 -34.5q105 0 155 44q-9 -109 -125 -109q-82 0 -104 46
l-122 -18q15 -51 74.5 -81t146.5 -30zM458 373q-99 0 -99 53q0 28 27.5 44t76.5 16q90 0 114 -71q-32 -42 -119 -42z" />
    <glyph glyph-name="uniE000" unicode="&#xe000;" horiz-adv-x="1347" 
d="M196 733h1059v-95h-958v-463h104l-155 -206l-154 206h104v558z" />
    <glyph glyph-name="i.loclTRK" horiz-adv-x="357" 
d="M76 574v153h204v-153h-204zM82 0v500h193v-500h-193z" />
    <glyph glyph-name="dollar.tf" 
d="M784 207q0 -104 -84 -162.5t-240 -63.5v-86h-72v86q-131 5 -227.5 47.5t-141.5 117.5l147 88q68 -106 222 -119v177l-86 13q-117 17 -173 68t-56 139q0 96 80.5 149t234.5 57v81h72v-82q212 -10 314 -129l-129 -96q-48 80 -185 94v-164l94 -13q122 -16 176 -63.5
t54 -138.5zM364 436l24 -3v156q-133 -4 -133 -74q0 -36 23.5 -53t85.5 -26zM460 112q76 1 111 21.5t35 62.5q0 35 -21 52t-74 25l-51 8v-169z" />
    <glyph glyph-name="cent.tf" 
d="M446 96q115 14 141 107l183 -31q-23 -81 -105.5 -135t-218.5 -60v-78h-72v78q-161 8 -248 84t-87 190t86.5 188.5t248.5 83.5v71h72v-71q133 -6 217.5 -58t107.5 -136l-186 -27q-27 90 -139 104v-310zM222 251q0 -61 40.5 -103.5t111.5 -51.5v310q-71 -8 -111.5 -50.5
t-40.5 -104.5z" />
    <glyph glyph-name="sterling.tf" 
d="M600 214l187 -23q-16 -99 -83 -154.5t-169 -55.5q-44 0 -119 15t-132 15q-109 0 -237 -19l-32 93q145 39 145 165q0 34 -6 62h-108v91h85q-9 40 -9 73q0 112 84 176.5t229 64.5q275 0 317 -192l-186 -33q-9 47 -42 72t-86 25q-124 0 -124 -113q0 -33 9 -73h190v-91h-168
q3 -20 3 -42q0 -98 -95 -135q54 8 91 8q29 0 77.5 -9t76.5 -9q42 0 69 23t33 66z" />
    <glyph glyph-name="florin.tf" 
d="M632 583q-65 0 -95.5 -27.5t-39.5 -95.5l-4 -32h184v-126h-202l-63 -452h-215l65 452h-161v126h180l4 30q19 141 96.5 202.5t234.5 61.5q55 0 99 -11v-137q-47 9 -83 9z" />
    <glyph glyph-name="yen.tf" 
d="M810 695l-289 -393h214v-70h-233v-58h233v-69h-233v-105h-200v105h-233v69h233v58h-233v70h214l-290 393h219l156 -238q23 -39 33 -64h2q12 32 33 64l156 238h218z" />
    <glyph glyph-name="Euro.tf" 
d="M457 120q102 0 147 113l173 -67q-39 -90 -125 -140t-202 -50q-146 0 -238.5 75.5t-117.5 205.5h-70v62h62q-1 11 -1 35v4q0 15 1 22h-62v63h69q26 126 123 201t244 75q115 0 201 -49t123 -136l-183 -60q-42 102 -144 102q-127 0 -158 -133h211v-63h-220v-20v-7
q0 -23 1 -34h219v-62h-210q32 -137 157 -137z" />
    <glyph glyph-name="perthousand.tf" 
d="M186 403q-75 0 -121 42t-46 112t46 112t121 42t121 -42t46 -112t-46 -112t-121 -42zM122 558v-2q0 -31 17 -48.5t47 -17.5t47 17.5t17 48.5v2q0 31 -17 48.5t-47 17.5t-47 -17.5t-17 -48.5zM735 591v-93l-684 -301v95zM616 288q76 0 121.5 -42t45.5 -112
q0 -69 -45.5 -111t-121.5 -42q-68 0 -112 38q-43 -38 -112 -38q-75 0 -121 42t-46 111q0 70 46 112t121 42q69 0 112 -38q44 38 112 38zM392 67q30 0 47.5 18t17.5 49v1q0 31 -17.5 48.5t-47.5 17.5t-47 -17.5t-17 -48.5v-1q0 -31 17 -49t47 -18zM681 134v1q0 31 -17.5 48.5
t-47.5 17.5t-47 -17.5t-17 -48.5v-1q0 -31 17 -49t47 -18t47.5 18t17.5 49z" />
    <glyph glyph-name="zero.zero" horiz-adv-x="894" 
d="M447 719q182 0 294.5 -100t112.5 -271t-113 -271.5t-294 -100.5t-294.5 100.5t-113.5 271.5t113 271t295 100zM447 580q-93 0 -149 -59t-56 -173q0 -69 22 -119l330 293q-55 58 -147 58zM447 115q92 0 148.5 59.5t56.5 173.5q0 61 -17 106l-327 -289q53 -50 139 -50z" />
    <glyph glyph-name="zero.tf" 
d="M402 -24q-169 0 -269 96.5t-100 274.5q0 179 100 275.5t269 96.5q168 0 268 -96.5t100 -274.5q0 -179 -100 -275.5t-268 -96.5zM402 110q83 0 124.5 63.5t41.5 174.5t-42 174.5t-124 63.5q-84 0 -125.5 -63.5t-41.5 -174.5q0 -112 42 -175t125 -63z" />
    <glyph glyph-name="one.tf" 
d="M523 147h228v-147h-676v147h252v317q-59 -62 -195 -62h-50v162h29q89 0 152.5 34.5t91.5 96.5h168v-548z" />
    <glyph glyph-name="two.tf" 
d="M54 0v126q235 106 368 194q58 38 80 72.5t22 78.5q0 49 -32 79.5t-93 30.5q-62 0 -99 -31.5t-40 -91.5q0 -16 1 -29l-199 20q-1 13 -1 36q3 72 52 126.5t125 81t165 26.5q152 0 239.5 -60t87.5 -172q0 -66 -27.5 -114t-93.5 -94q-50 -36 -114.5 -65t-171.5 -70h425v-144
h-694z" />
    <glyph glyph-name="three.tf" 
d="M401 -24q-158 0 -249.5 62.5t-96.5 173.5l199 16q9 -119 150 -119q140 0 140 96q0 92 -132 92h-55l2 109h45q58 0 92 24.5t34 70.5q0 39 -32.5 62t-93.5 23q-68 0 -105.5 -32.5t-38.5 -93.5l-199 18q0 104 88.5 172.5t253.5 68.5q156 0 242.5 -55t86.5 -153
q0 -69 -50 -107t-122 -46q89 -10 139.5 -52t50.5 -115q0 -99 -94 -157t-255 -58z" />
    <glyph glyph-name="four.tf" 
d="M452 0v149h-426v112l400 434h212v-416h136v-130h-136v-149h-186zM201 279h251v217q0 43 4 70h-4q-16 -38 -52 -78l-131 -150q-34 -37 -68 -59z" />
    <glyph glyph-name="five.tf" 
d="M395 -24q-138 0 -226.5 57.5t-102.5 153.5l191 19q9 -43 48 -69t95 -26q65 0 100 33t35 92q0 53 -34 85t-97 32q-46 0 -82 -19.5t-53 -54.5l-175 15l43 401h544v-136h-390l-19 -167q63 77 201 77q124 0 194.5 -63.5t70.5 -168.5q0 -117 -92.5 -189t-250.5 -72z" />
    <glyph glyph-name="six.tf" 
d="M455 476q140 0 217.5 -63t77.5 -181q0 -115 -92.5 -185.5t-246.5 -70.5q-169 0 -263 95t-94 266q0 182 94 282t267 100q132 0 220.5 -50t113.5 -140l-202 -26q-28 82 -139 82q-73 0 -112.5 -48t-44.5 -140q73 79 204 79zM417 110q62 0 99.5 33.5t37.5 88.5q0 57 -36 87
t-98 30q-119 0 -160 -109q30 -130 157 -130z" />
    <glyph glyph-name="seven.tf" 
d="M232 0v18q0 155 79 290.5t230 239.5h-478v147h675v-138q-291 -207 -291 -517v-40h-215z" />
    <glyph glyph-name="eight.tf" 
d="M605 380q80 -26 118.5 -71t38.5 -117q0 -101 -94.5 -158.5t-262.5 -57.5q-172 0 -268 53.5t-96 148.5q0 63 44 105.5t126 59.5q-148 49 -148 174q0 91 96 146.5t243 55.5q152 0 245.5 -52.5t93.5 -139.5q0 -55 -35.5 -93t-100.5 -54zM403 600q-66 0 -102 -22.5t-36 -62.5
q0 -65 121 -89l79 -14h3q71 33 71 96q0 44 -35 68t-101 24zM405 102q72 0 113 26t41 70q0 41 -34 63t-109 38l-74 14q-97 -34 -97 -109q0 -49 42 -75.5t118 -26.5z" />
    <glyph glyph-name="nine.tf" 
d="M390 720q175 0 269.5 -92.5t94.5 -265.5q0 -183 -93 -284.5t-265 -101.5q-133 0 -223 52.5t-115 145.5l201 26q33 -87 145 -87q143 0 152 199q-77 -70 -209 -70q-139 0 -218 60t-79 172q0 113 93 179.5t247 66.5zM382 368q66 0 111 27t58 72q-14 59 -56 91t-106 32
t-103 -30.5t-39 -84.5q0 -50 37.5 -78.5t97.5 -28.5z" />
    <glyph glyph-name="gcommaaccent.ss01" horiz-adv-x="875" 
d="M468 774l26 -53q-39 -8 -53.5 -19t-16.5 -30h99v-100h-188v76q0 105 133 126zM406 -214q-331 0 -372 194h207q25 -77 177 -77q182 0 182 130v77q-36 -49 -104 -77t-155 -28q-141 0 -229 72t-88 188q0 114 89.5 184t232.5 70q175 0 262 -106l13 87h172v-460
q0 -254 -387 -254zM410 123q88 0 141 37.5t53 99.5v8q0 58 -54.5 95t-140.5 37q-85 0 -134.5 -36.5t-49.5 -99.5q0 -66 49.5 -103.5t135.5 -37.5z" />
    <glyph glyph-name="gdotaccent.ss01" horiz-adv-x="875" 
d="M331 574v153h204v-153h-204zM406 -214q-331 0 -372 194h207q25 -77 177 -77q182 0 182 130v77q-36 -49 -104 -77t-155 -28q-141 0 -229 72t-88 188q0 114 89.5 184t232.5 70q175 0 262 -106l13 87h172v-460q0 -254 -387 -254zM410 123q88 0 141 37.5t53 99.5v8
q0 58 -54.5 95t-140.5 37q-85 0 -134.5 -36.5t-49.5 -99.5q0 -66 49.5 -103.5t135.5 -37.5z" />
    <glyph glyph-name="Iacute_J.loclNLD" horiz-adv-x="902" 
d="M110 760l112 118h181l-128 -118h-165zM654 760l112 118h181l-128 -118h-165zM294 0h-202v710h202v-710zM839 258q0 -271 -304 -271q-85 0 -135 11v156q47 -7 88 -7q71 0 109.5 32t38.5 113v418h203v-452z" />
    <glyph glyph-name="iacute_j.loclNLD" horiz-adv-x="725" 
d="M99 573l107 157h177l-126 -157h-158zM465 573l107 157h177l-126 -157h-158zM82 0v500h193v-500h-193zM405 -206q-53 0 -85 9v138q28 -5 61 -5q35 0 52 24t17 78v462h193v-488q0 -109 -55 -163.5t-183 -54.5z" />
    <glyph glyph-name="g.ss01" horiz-adv-x="875" 
d="M406 -214q-331 0 -372 194h207q25 -77 177 -77q182 0 182 130v77q-36 -49 -104 -77t-155 -28q-141 0 -229 72t-88 188q0 114 89.5 184t232.5 70q175 0 262 -106l13 87h172v-460q0 -254 -387 -254zM410 123q88 0 141 37.5t53 99.5v8q0 58 -54.5 95t-140.5 37
q-85 0 -134.5 -36.5t-49.5 -99.5q0 -66 49.5 -103.5t135.5 -37.5z" />
    <glyph glyph-name="gbreve.ss01" horiz-adv-x="875" 
d="M340 730q10 -78 93 -78t92 78h130q-7 -80 -65 -121t-157 -41t-157.5 41t-65.5 121h130zM406 -214q-331 0 -372 194h207q25 -77 177 -77q182 0 182 130v77q-36 -49 -104 -77t-155 -28q-141 0 -229 72t-88 188q0 114 89.5 184t232.5 70q175 0 262 -106l13 87h172v-460
q0 -254 -387 -254zM410 123q88 0 141 37.5t53 99.5v8q0 58 -54.5 95t-140.5 37q-85 0 -134.5 -36.5t-49.5 -99.5q0 -66 49.5 -103.5t135.5 -37.5z" />
    <glyph glyph-name="gcircumflex.ss01" horiz-adv-x="875" 
d="M689 573h-155l-101 101l-101 -101h-155l155 157h201zM406 -214q-331 0 -372 194h207q25 -77 177 -77q182 0 182 130v77q-36 -49 -104 -77t-155 -28q-141 0 -229 72t-88 188q0 114 89.5 184t232.5 70q175 0 262 -106l13 87h172v-460q0 -254 -387 -254zM410 123
q88 0 141 37.5t53 99.5v8q0 58 -54.5 95t-140.5 37q-85 0 -134.5 -36.5t-49.5 -99.5q0 -66 49.5 -103.5t135.5 -37.5z" />
    <glyph glyph-name="g.sups.ss01" horiz-adv-x="670" 
d="M312 154q-252 0 -277 138h173q15 -56 114 -54q118 0 118 93v62q-56 -75 -185 -75q-103 0 -165.5 51.5t-62.5 135.5q0 82 65.5 133.5t169.5 51.5q123 0 185 -76l9 61h148v-335q0 -186 -292 -186zM316 411q57 0 92 25.5t35 66.5v4q0 40 -34.5 64t-90.5 24t-88.5 -24
t-32.5 -66q0 -44 32 -69t87 -25z" />
    <glyph glyph-name="a.sups" horiz-adv-x="641" 
d="M227 296q-89 0 -136.5 30t-47.5 86q0 60 50 85t138 30l180 11v9q0 60 -87 60t-98 -51h-174q12 62 86 98t186 36q132 0 193 -42.5t61 -127.5v-103q0 -69 6 -107h-163q-5 25 -5 65q-17 -36 -68 -57.5t-121 -21.5zM288 380q56 0 91.5 22.5t35.5 59.5v16l-129 -10
q-80 -6 -80 -43q0 -21 22 -33t60 -12z" />
    <glyph glyph-name="b.sups" horiz-adv-x="674" 
d="M411 296q-122 0 -182 76l-10 -62h-149v529h165v-219q65 70 187 70q101 0 163.5 -53.5t62.5 -139.5q0 -91 -64.5 -146t-172.5 -55zM353 395q57 0 91 26.5t34 72.5q0 44 -33.5 70.5t-90.5 26.5q-56 0 -91 -26.5t-35 -68.5v-5q0 -43 34 -69.5t91 -26.5z" />
    <glyph glyph-name="c.sups" horiz-adv-x="624" 
d="M317 296q-135 0 -213.5 53.5t-78.5 145.5t77.5 143.5t214.5 51.5q114 0 188.5 -38.5t91.5 -105.5l-172 -22q-9 28 -39 44.5t-74 16.5q-53 0 -84.5 -24.5t-31.5 -65.5t32 -67.5t84 -26.5q99 0 113 65l172 -25q-16 -67 -91.5 -106t-188.5 -39z" />
    <glyph glyph-name="d.sups" horiz-adv-x="674" 
d="M254 296q-103 0 -165 54.5t-62 145.5q0 86 63.5 140t168.5 54q116 0 181 -65v215h164v-530h-159v72q-61 -86 -191 -86zM318 395q56 0 91 27.5t35 70.5v4q0 42 -35 68t-92 26t-88.5 -25.5t-31.5 -70.5q0 -46 32.5 -73t88.5 -27z" />
    <glyph glyph-name="e.sups" horiz-adv-x="607" 
d="M581 475v-8h-401q6 -38 41.5 -59t92.5 -21q45 0 86 16t62 40l102 -54q-80 -93 -258 -93q-133 0 -207 52t-74 145q0 90 75.5 143.5t202.5 53.5q133 0 205.5 -57t72.5 -158zM180 532h238q-2 35 -32.5 57.5t-83.5 22.5q-54 0 -86 -21.5t-36 -58.5z" />
    <glyph glyph-name="f.sups" horiz-adv-x="479" 
d="M456 675v-98h-158v-267h-165v267h-112v98h112v12q0 160 228 160q50 0 95 -9v-104q-36 7 -79 7q-44 0 -61.5 -13t-17.5 -44v-9h158z" />
    <glyph glyph-name="g.sups" horiz-adv-x="645" 
d="M619 646q-15 5 -48 5q-30 0 -48 -6q45 -31 45 -80q0 -60 -68 -93.5t-191 -33.5q-73 0 -125 12q-16 -6 -16 -23q0 -24 39 -24l251 -4q83 -1 121.5 -25.5t38.5 -75.5q0 -75 -77.5 -109.5t-250.5 -34.5q-134 0 -196.5 20t-62.5 62q0 45 65 60q-61 22 -61 76q0 34 27 58
t76 33q-88 34 -88 102q0 60 67.5 92.5t191.5 32.5q88 0 148 -17q24 73 126 73q21 0 36 -3v-97zM309 505q45 0 70.5 16t25.5 44q0 58 -96 58q-95 0 -95 -58q0 -28 25 -44t70 -16zM408 283l-253 4q-10 -10 -10 -21q0 -32 37 -44.5t137 -12.5q85 0 115 9t30 34q0 17 -12.5 24
t-43.5 7z" />
    <glyph glyph-name="h.sups" horiz-adv-x="682" 
d="M70 310v529h165v-238q23 42 72 65.5t114 23.5q98 0 151.5 -55t53.5 -155v-170h-164v154q0 115 -110 115q-57 0 -87 -30.5t-30 -88.5v-150h-165z" />
    <glyph glyph-name="i.sups" horiz-adv-x="297" 
d="M64 722v125h169v-125h-169zM66 310v365h164v-365h-164z" />
    <glyph glyph-name="j.sups" horiz-adv-x="303" 
d="M68 722v125h170v-125h-170zM51 160q-44 0 -65 7v112q16 -3 37 -3q49 0 49 67v332h165v-352q0 -85 -43.5 -124t-142.5 -39z" />
    <glyph glyph-name="k.sups" horiz-adv-x="647" 
d="M633 675l-181 -136l181 -229h-184l-120 161l-94 -68v-93h-165v529h165v-309l187 145h211z" />
    <glyph glyph-name="l.sups" horiz-adv-x="305" 
d="M235 839v-529h-165v529h165z" />
    <glyph glyph-name="m.sups" horiz-adv-x="972" 
d="M66 675h161v-80q20 45 63 70t101 25q120 0 162 -94q56 94 179 94q90 0 137.5 -51t47.5 -147v-182h-163v159q0 104 -90 104q-43 0 -67 -27t-24 -77v-159h-163v161q0 102 -90 102q-44 0 -67 -27t-23 -78v-158h-164v365z" />
    <glyph glyph-name="n.sups" horiz-adv-x="677" 
d="M66 310v365h161v-83q51 98 191 98q100 0 152 -53.5t52 -156.5v-170h-164v149q0 116 -109 116q-119 0 -119 -118v-147h-164z" />
    <glyph glyph-name="o.sups" horiz-adv-x="635" 
d="M318 296q-134 0 -213.5 53t-79.5 144q0 90 79.5 143.5t213.5 53.5q133 0 212 -53.5t79 -143.5q0 -91 -79 -144t-212 -53zM318 395q54 0 88 26.5t34 71.5q0 44 -34 70.5t-88 26.5q-55 0 -89 -26.5t-34 -70.5q0 -45 34 -71.5t89 -26.5z" />
    <glyph glyph-name="p.sups" horiz-adv-x="670" 
d="M66 168v507h161v-60q63 75 189 75q103 0 165 -53.5t62 -139.5q0 -91 -64 -146t-168 -55q-114 0 -181 70v-198h-164zM353 395q56 0 88 27.5t32 75.5q0 43 -31.5 68t-88.5 25t-92 -25t-35 -67v-2q0 -46 35 -74t92 -28z" />
    <glyph glyph-name="q.sups" horiz-adv-x="670" 
d="M440 168v202q-63 -74 -186 -74q-102 0 -164.5 55t-62.5 146q0 88 64 142t169 54q122 0 188 -79l9 61h147v-507h-164zM317 395q57 0 92 27.5t35 73.5v3q0 43 -35.5 69.5t-92.5 26.5q-56 0 -87.5 -26.5t-31.5 -71.5q0 -47 32 -74.5t88 -27.5z" />
    <glyph glyph-name="r.sups" horiz-adv-x="453" 
d="M209 560q15 58 60 90.5t112 32.5q25 0 49 -3v-137q-25 6 -64 6q-64 0 -94 -27q-42 -37 -42 -103v-109h-164v365h143v-115z" />
    <glyph glyph-name="s.sups" horiz-adv-x="580" 
d="M310 296q-95 0 -174.5 18t-122.5 50l67 76q114 -56 242 -56q84 0 84 32q0 13 -15.5 19.5t-57.5 10.5l-152 14q-70 7 -103.5 32.5t-33.5 74.5q0 62 52 92.5t178 30.5q157 0 276 -52l-64 -80q-90 50 -218 50q-78 0 -78 -30q0 -23 75 -29l137 -13q84 -8 117.5 -32t33.5 -81
q0 -127 -243 -127z" />
    <glyph glyph-name="t.sups" horiz-adv-x="477" 
d="M10 577v98h107v82l164 56v-138h159v-98h-159v-88q0 -72 88 -72q43 0 69 8v-108q-39 -17 -117 -17q-96 0 -150 34.5t-54 119.5v123h-107z" />
    <glyph glyph-name="u.sups" horiz-adv-x="672" 
d="M445 390q-24 -46 -75 -70t-118 -24q-92 0 -144.5 46.5t-52.5 129.5v203h165v-157q0 -112 103 -112q57 0 88 30.5t31 84.5v154h164v-365h-161v80z" />
    <glyph glyph-name="v.sups" horiz-adv-x="622" 
d="M218 310l-212 365h178l100 -188q14 -29 24 -53h4q16 34 26 53l100 188h178l-213 -365h-185z" />
    <glyph glyph-name="w.sups" horiz-adv-x="871" 
d="M171 310l-151 365h163l67 -200q6 -20 11 -46h2q1 5 13 46l78 200h163l78 -200q10 -24 13 -46h2q5 26 11 46l67 200h163l-151 -365h-174l-75 186q-12 37 -14 51h-3q-4 -23 -15 -51l-75 -186h-173z" />
    <glyph glyph-name="x.sups" horiz-adv-x="630" 
d="M15 310l187 186l-182 179h198l70 -71q19 -22 28 -38h2q12 20 28 38l69 71h187l-177 -175l190 -190h-200l-82 81q-12 12 -26 34h-2q-10 -18 -26 -34l-82 -81h-182z" />
    <glyph glyph-name="y.sups" horiz-adv-x="611" 
d="M150 154q-68 0 -104 9v119q36 -6 75 -6q79 0 106 27l2 3l-223 369h181l96 -189q20 -42 26 -55h3q4 8 7.5 15.5t8.5 18t9 18.5l93 192h175l-211 -381q-42 -74 -97 -107t-147 -33z" />
    <glyph glyph-name="z.sups" horiz-adv-x="566" 
d="M41 407l274 173h-265v95h472v-95l-270 -175h280v-95h-491v97z" />
    <glyph glyph-name="g_g.liga.ss01" horiz-adv-x="1750" 
d="M406 -214q-331 0 -372 194h207q25 -77 177 -77q182 0 182 130v77q-36 -49 -104 -77t-155 -28q-141 0 -229 72t-88 188q0 114 89.5 184t232.5 70q175 0 262 -106l13 87h172v-460q0 -254 -387 -254zM1281 -214q-331 0 -372 194h207q25 -77 177 -77q182 0 182 130v77
q-36 -49 -104 -77t-155 -28q-141 0 -229 72t-88 188q0 114 89.5 184t232.5 70q175 0 262 -106l13 87h172v-460q0 -254 -387 -254zM410 123q88 0 141 37.5t53 99.5v8q0 58 -54.5 95t-140.5 37q-85 0 -134.5 -36.5t-49.5 -99.5q0 -66 49.5 -103.5t135.5 -37.5zM1285 123
q88 0 141 37.5t53 99.5v8q0 58 -54.5 95t-140.5 37q-85 0 -134.5 -36.5t-49.5 -99.5q0 -66 49.5 -103.5t135.5 -37.5z" />
    <glyph glyph-name="zero.case" horiz-adv-x="894" 
d="M447 -25q-181 0 -294.5 103t-113.5 278t113 277t295 102t294.5 -102t112.5 -277t-113 -278t-294 -103zM447 115q92 0 148.5 61.5t56.5 179.5t-56.5 179t-148.5 61q-93 0 -149 -61t-56 -179t56.5 -179.5t148.5 -61.5z" />
    <glyph glyph-name="one.case" horiz-adv-x="545" 
d="M237 0v478q-50 -58 -166 -58h-49v161h28q79 0 134.5 34t79.5 95h169v-710h-196z" />
    <glyph glyph-name="two.case" horiz-adv-x="844" 
d="M36 0v132q264 99 413 184q69 39 95.5 75.5t26.5 83.5q0 52 -40.5 86t-118.5 34t-122 -36t-44 -103q0 -19 2 -31l-201 19q-3 11 -3 37q0 115 102.5 184.5t264.5 69.5q173 0 270.5 -64.5t97.5 -180.5q0 -76 -39.5 -129t-118.5 -98q-118 -67 -292 -116h465v-147h-758z" />
    <glyph glyph-name="three.case" horiz-adv-x="840" 
d="M415 -25q-175 0 -276 67t-108 185l200 17q12 -134 186 -134q84 0 129.5 26t45.5 75q0 50 -40 71t-123 21h-82v114h81q150 0 150 88q0 45 -42 70t-123 25q-172 0 -178 -135l-198 19q3 112 101 181.5t273 69.5q178 0 274.5 -56.5t96.5 -158.5q0 -71 -49 -108.5t-127 -45.5
q193 -22 193 -171q0 -99 -102 -159.5t-282 -60.5z" />
    <glyph glyph-name="four.case" horiz-adv-x="865" 
d="M855 154h-155v-154h-193v154h-496v121l470 435h219v-426h155v-130zM508 483q0 70 4 95h-4q-15 -27 -74 -85l-142 -142q-39 -39 -81 -67h297v199z" />
    <glyph glyph-name="five.case" horiz-adv-x="820" 
d="M406 -25q-153 0 -252.5 59.5t-115.5 161.5l194 23q11 -50 58 -79.5t119 -29.5q82 0 126.5 34.5t44.5 96.5q0 60 -43 91.5t-122 31.5q-128 0 -174 -91l-176 15l46 422h619v-139h-466l-21 -171q30 43 92.5 66.5t145.5 23.5q142 0 222.5 -65t80.5 -182q0 -124 -102 -196
t-276 -72z" />
    <glyph glyph-name="six.case" horiz-adv-x="847" 
d="M484 486q157 0 242 -65t85 -184q0 -118 -103 -190t-274 -72q-190 0 -292.5 96.5t-102.5 274.5q0 186 106 287.5t299 101.5q143 0 238 -53.5t121 -149.5l-201 -26q-33 95 -165 95q-98 0 -150.5 -53.5t-56.5 -156.5q87 95 254 95zM434 109q78 0 126 35.5t48 92.5
q0 59 -42.5 91t-122.5 32q-71 0 -122.5 -29t-77.5 -82q38 -140 191 -140z" />
    <glyph glyph-name="seven.case" horiz-adv-x="735" 
d="M193 0v18q0 159 83.5 299t243.5 246h-506v147h703v-138q-309 -212 -309 -532v-40h-215z" />
    <glyph glyph-name="eight.case" horiz-adv-x="853" 
d="M635 391q96 -28 138.5 -74.5t42.5 -120.5q0 -104 -102.5 -162.5t-283.5 -58.5q-185 0 -289 54.5t-104 151.5q0 66 47 110t134 61q-82 26 -120.5 69t-38.5 109q0 94 99 149.5t269 55.5q168 0 267.5 -53t99.5 -143q0 -56 -42 -94.5t-117 -53.5zM427 616q-78 0 -122 -23
t-44 -65q0 -36 35.5 -58t114.5 -35l92 -15h3q86 35 86 101q0 46 -42.5 70.5t-122.5 24.5zM430 102q84 0 133 27t49 73q0 41 -39 65t-133 40l-87 15q-111 -34 -111 -114q0 -51 49 -78.5t139 -27.5z" />
    <glyph glyph-name="nine.case" horiz-adv-x="847" 
d="M406 735q194 0 298 -94.5t104 -270.5q0 -188 -105 -291.5t-300 -103.5q-141 0 -237.5 57.5t-121.5 157.5l201 27q34 -104 165 -104q100 0 152.5 56.5t54.5 161.5q-85 -83 -254 -83q-156 0 -241.5 61.5t-85.5 176.5t101 182t269 67zM404 374q76 0 128.5 26.5t74.5 72.5
q-36 135 -196 135q-81 0 -127 -32t-46 -90q0 -53 44 -82.5t122 -29.5z" />
    <glyph glyph-name="one.ss02.case" horiz-adv-x="748" 
d="M498 147h228v-147h-676v147h252v332q-59 -62 -195 -62h-50v162h29q89 0 152.5 34.5t91.5 96.5h168v-563z" />
    <glyph glyph-name="zero.tf.case" 
d="M402 -25q-169 0 -269 99t-100 281q0 183 100.5 282t268.5 99t268 -99t100 -281q0 -183 -100 -282t-268 -99zM402 109q83 0 124.5 65.5t41.5 181.5q0 115 -41.5 180.5t-124.5 65.5q-84 0 -125.5 -65t-41.5 -181t42 -181.5t125 -65.5z" />
    <glyph glyph-name="one.tf.case" 
d="M523 147h228v-147h-676v147h252v331q-28 -30 -80.5 -47t-114.5 -17h-50v161h29q89 0 152.5 35.5t91.5 99.5h168v-563z" />
    <glyph glyph-name="two.tf.case" 
d="M54 0v125q248 118 369 202q57 39 79 74.5t22 80.5q0 52 -32 84t-93 32q-62 0 -99 -33t-40 -95q0 -16 1 -29l-199 19q-1 13 -1 36q3 74 52 130t125 83t165 27q151 0 239 -62t88 -175q0 -67 -28 -116t-93 -97q-83 -62 -286 -142h425v-144h-694z" />
    <glyph glyph-name="three.tf.case" 
d="M401 -25q-158 0 -249.5 64t-96.5 176l199 16q4 -60 43 -91.5t107 -31.5q140 0 140 101q0 97 -132 97h-55l2 108h45q58 0 92 26t34 73q0 41 -32.5 65.5t-93.5 24.5q-67 0 -105 -34t-39 -98l-199 19q0 105 88.5 175.5t253.5 70.5q156 0 242.5 -56t86.5 -157
q0 -71 -50 -109.5t-122 -46.5q89 -10 139.5 -53.5t50.5 -118.5q0 -101 -94 -160.5t-255 -59.5z" />
    <glyph glyph-name="four.tf.case" 
d="M452 0v154h-426v112l400 444h212v-427h136v-129h-136v-154h-186zM201 283h251v227q0 44 4 72h-4q-12 -30 -50 -81l-135 -156q-22 -32 -66 -62z" />
    <glyph glyph-name="five.tf.case" 
d="M395 -25q-138 0 -226.5 59t-102.5 156l191 20q9 -46 48 -73t95 -27q65 0 100 34.5t35 96.5q0 55 -34 88t-97 33q-47 0 -82.5 -20t-52.5 -56l-175 15l43 409h544v-137h-390l-19 -173q28 36 80.5 57.5t120.5 21.5q125 0 195 -64.5t70 -172.5q0 -119 -92.5 -193t-250.5 -74z
" />
    <glyph glyph-name="six.tf.case" 
d="M455 486q140 0 217.5 -64.5t77.5 -184.5q0 -118 -92.5 -190t-246.5 -72q-170 0 -263.5 97.5t-93.5 273.5q0 185 94 287.5t267 102.5q132 0 220.5 -51.5t113.5 -143.5l-202 -26q-28 87 -139 87q-73 0 -112.5 -50.5t-44.5 -147.5q74 82 204 82zM417 109q62 0 99.5 35.5
t37.5 92.5q0 60 -36 91.5t-98 31.5q-119 0 -160 -116q30 -135 157 -135z" />
    <glyph glyph-name="seven.tf.case" 
d="M232 0v18q0 159 79 299t230 246h-478v147h675v-138q-291 -212 -291 -532v-40h-215z" />
    <glyph glyph-name="eight.tf.case" 
d="M601 388q83 -28 122 -72.5t39 -118.5q0 -104 -94.5 -163t-262.5 -59q-171 0 -267.5 55t-96.5 152q0 65 44 109t126 61q-74 26 -111 68t-37 110q0 93 96 149.5t243 56.5q152 0 245.5 -53.5t93.5 -143.5q0 -57 -37 -96t-103 -55zM403 617q-66 0 -102 -23.5t-36 -65.5
q0 -71 121 -93l79 -14h2q72 35 72 99q0 47 -35 72t-101 25zM405 102q72 0 113 27t41 73q0 43 -34 66.5t-109 37.5l-75 14q-96 -34 -96 -112q0 -51 41.5 -78.5t118.5 -27.5z" />
    <glyph glyph-name="nine.tf.case" 
d="M390 737q175 0 269.5 -95.5t94.5 -271.5q0 -188 -93 -291.5t-265 -103.5q-133 0 -223 54t-115 148l201 27q32 -91 145 -91q142 0 153 209q-77 -74 -210 -74q-139 0 -218 61.5t-79 175.5q0 116 93 184t247 68zM382 374q65 0 109.5 28.5t58.5 76.5q-14 62 -55.5 95
t-105.5 33t-103 -32t-39 -89q0 -52 37.5 -82t97.5 -30z" />
    <glyph glyph-name="zero.zero.case" horiz-adv-x="894" 
d="M447 735q182 0 294.5 -102t112.5 -277t-113 -278t-294 -103t-294.5 103t-113.5 278t113 277t295 102zM447 596q-93 0 -149 -61t-56 -179q0 -68 21 -123l331 304q-55 59 -147 59zM447 115q92 0 148.5 61.5t56.5 179.5q0 63 -17 111l-327 -300q53 -52 139 -52z" />
    <glyph glyph-name="zero.tf.zero.case" 
d="M402 736q168 0 268 -99t100 -281q0 -183 -100 -282t-268 -99q-169 0 -269 99t-100 281q0 183 100.5 282t268.5 99zM402 602q-84 0 -125.5 -65t-41.5 -181q0 -49 8 -94l289 265q-42 75 -130 75zM402 109q83 0 124.5 65.5t41.5 181.5q0 48 -8 91l-288 -264q43 -74 130 -74z
" />
    <glyph glyph-name="zero.osf" horiz-adv-x="887" 
d="M444 -24q-183 0 -293 80t-110 212t110 211.5t293 79.5q182 0 292 -80t110 -212q0 -131 -110 -211t-292 -80zM444 118q92 0 147.5 40.5t55.5 108.5q0 69 -55 109.5t-148 40.5q-94 0 -149 -40.5t-55 -109.5q0 -68 55.5 -108.5t148.5 -40.5z" />
    <glyph glyph-name="one.osf" horiz-adv-x="753" 
d="M499 133h230v-133h-674v133h252v209q-71 -55 -206 -58h-36v148h32q79 0 143.5 28.5t88.5 74.5h170v-402z" />
    <glyph glyph-name="two.osf" horiz-adv-x="826" 
d="M42 119q293 75 378 109q64 25 90 50t26 60q0 40 -35.5 64t-93.5 24q-70 0 -106.5 -28t-36.5 -81q0 -11 1 -19l-200 19q-2 6 -2 23q0 99 94.5 159t250.5 60q155 0 243 -53.5t88 -147.5q0 -78 -89 -131q-100 -56 -254 -94h379v-133h-733v119z" />
    <glyph glyph-name="three.osf" horiz-adv-x="838" 
d="M412 -174q-173 0 -274.5 64.5t-106.5 180.5l197 15q10 -124 186 -124q84 0 131 25t47 72q0 42 -38.5 62t-125.5 20h-77v109h75q142 0 142 82q0 44 -40.5 67.5t-116.5 23.5q-81 0 -126 -31.5t-46 -96.5l-194 20q0 111 100 177.5t268 66.5t263.5 -54.5t95.5 -154.5
q0 -65 -46.5 -102.5t-119.5 -47.5q92 -8 141.5 -50t49.5 -111q0 -99 -105.5 -156t-279.5 -57z" />
    <glyph glyph-name="four.osf" horiz-adv-x="866" 
d="M508 -150v147h-497v121l471 417h219v-408h155v-130h-155v-147h-193zM208 127h300v206q0 44 4 71h-4q-20 -34 -67 -77l-160 -148q-41 -36 -73 -52z" />
    <glyph glyph-name="five.osf" horiz-adv-x="822" 
d="M406 -174q-153 0 -252 58.5t-116 158.5l194 23q10 -49 57.5 -76.5t119.5 -27.5q82 0 127 33t45 93q0 56 -43 86t-123 30q-126 0 -173 -86l-177 15l46 402h620v-138h-466l-21 -154q30 41 93 63.5t145 22.5q142 0 222.5 -63.5t80.5 -176.5q0 -120 -102.5 -191.5
t-276.5 -71.5z" />
    <glyph glyph-name="six.osf" horiz-adv-x="847" 
d="M484 476q157 0 242 -63.5t85 -180.5q0 -116 -103 -186t-274 -70q-190 0 -292.5 93.5t-102.5 267.5q0 182 106 282t299 100q143 0 238 -52.5t121 -146.5l-201 -26q-33 91 -165 91q-196 0 -207 -200q86 91 254 91zM434 110q79 0 126.5 33.5t47.5 88.5q0 57 -42.5 87
t-122.5 30q-146 0 -201 -106q38 -133 192 -133z" />
    <glyph glyph-name="seven.osf" horiz-adv-x="735" 
d="M193 -150v18q0 311 328 520h-507v147h704v-138q-310 -202 -310 -507v-40h-215z" />
    <glyph glyph-name="eight.osf" horiz-adv-x="853" 
d="M638 384q94 -28 136 -73.5t42 -118.5q0 -101 -102.5 -158.5t-283.5 -57.5q-185 0 -289 53.5t-104 148.5q0 63 47 105.5t133 59.5q-82 25 -120 67.5t-38 106.5q0 93 99.5 147.5t268.5 54.5q168 0 267.5 -52t99.5 -140q0 -54 -41 -91.5t-115 -51.5zM427 600
q-77 0 -121.5 -22.5t-44.5 -62.5q0 -34 35.5 -55t114.5 -34l92 -14h3l2 -1q84 35 84 97q0 44 -43 68t-122 24zM430 102q84 0 133 26t49 70q0 40 -39 62.5t-133 38.5l-87 15q-111 -34 -111 -110q0 -49 49 -75.5t139 -26.5z" />
    <glyph glyph-name="nine.osf" horiz-adv-x="847" 
d="M407 559q194 0 297.5 -93.5t103.5 -268.5q0 -183 -103 -277t-304 -94q-303 0 -354 189l190 23q23 -79 171 -79q200 0 209 197q-83 -77 -251 -77q-159 0 -244.5 61t-85.5 174q0 112 100.5 178.5t270.5 66.5zM407 206q72 0 124.5 24t76.5 67q-18 63 -69 97.5t-127 34.5
q-80 0 -126.5 -31t-46.5 -84q0 -51 44.5 -79.5t123.5 -28.5z" />
    <glyph glyph-name="one.ss02" horiz-adv-x="748" 
d="M495 147h228v-147h-676v147h252v317q-59 -62 -195 -62h-50v162h29q89 0 152.5 34.5t91.5 96.5h168v-548z" />
    <glyph glyph-name="zero.tosf" 
d="M401 -24q-166 0 -267.5 77.5t-101.5 212.5q0 133 103 213t266 80t266 -80t103 -213q0 -134 -102.5 -212t-266.5 -78zM401 118q76 0 124 38.5t48 109.5t-48.5 111t-123.5 40q-74 0 -121 -39.5t-47 -111.5t46.5 -110t121.5 -38z" />
    <glyph glyph-name="one.tosf" 
d="M521 130h201v-130h-623v130h230v228q-29 -29 -80.5 -48t-113.5 -20h-26v142h16q77 1 139.5 29t86.5 74h170v-405z" />
    <glyph glyph-name="two.tosf" 
d="M48 119q276 82 362 120q51 23 72.5 48t21.5 57q0 37 -30.5 61t-87.5 24q-63 0 -97.5 -26.5t-34.5 -77.5q0 -14 1 -22l-188 20q-2 14 -2 26q0 94 90 152t234 58q142 0 224 -53t82 -148q0 -86 -90 -138q-78 -46 -234 -87h360v-133h-683v119z" />
    <glyph glyph-name="three.tosf" 
d="M401 -174q-158 0 -249.5 62.5t-96.5 173.5l199 16q9 -120 150 -120q66 0 103 24.5t37 72.5q0 89 -132 89h-55l1 109h46q58 0 92 23t34 65q0 39 -32.5 62t-93.5 23q-68 0 -105.5 -32.5t-38.5 -93.5l-199 18q0 104 88.5 172.5t253.5 68.5q156 0 242.5 -55t86.5 -154
q0 -65 -50 -101t-122 -44q90 -10 140 -51t50 -113q0 -98 -94 -156.5t-255 -58.5z" />
    <glyph glyph-name="four.tosf" 
d="M452 -150v147h-426v112l400 426h212v-409h136v-129h-136v-147h-186zM202 126h250v211q0 42 4 69h-4q-16 -38 -52 -77l-130 -143q-30 -34 -68 -60z" />
    <glyph glyph-name="five.tosf" 
d="M395 -174q-138 0 -226.5 58t-102.5 153l191 19q9 -43 48 -69t95 -26q65 0 100 33.5t35 91.5q0 53 -34 84.5t-97 31.5q-46 0 -82 -19.5t-53 -53.5l-175 15l43 391h544v-136h-390l-19 -158q64 78 202 78q124 0 194 -63.5t70 -168.5q0 -117 -92.5 -189t-250.5 -72z" />
    <glyph glyph-name="six.tosf" 
d="M455 476q140 0 217.5 -63t77.5 -181q0 -115 -92.5 -185.5t-246.5 -70.5q-169 0 -263 95t-94 266q0 182 94 282t267 100q132 0 220.5 -50t113.5 -140l-202 -26q-28 82 -139 82q-73 0 -112.5 -48t-44.5 -140q73 79 204 79zM417 110q62 0 99.5 33.5t37.5 88.5q0 57 -36 87
t-98 30q-119 0 -160 -109q30 -130 157 -130z" />
    <glyph glyph-name="seven.tosf" 
d="M232 -150v18q0 152 79 285.5t230 234.5h-478v147h675v-138q-291 -204 -291 -507v-40h-215z" />
    <glyph glyph-name="eight.tosf" 
d="M605 380q80 -26 118.5 -71t38.5 -117q0 -101 -94.5 -158.5t-262.5 -57.5q-172 0 -268 53.5t-96 148.5q0 63 44 105.5t126 59.5q-148 49 -148 174q0 91 96 146.5t243 55.5q152 0 245.5 -52.5t93.5 -139.5q0 -55 -35.5 -93t-100.5 -54zM403 600q-66 0 -102 -22.5t-36 -62.5
q0 -65 121 -89l79 -14h3q71 33 71 96q0 44 -35 68t-101 24zM405 102q72 0 113 26t41 70q0 41 -34 63t-109 38l-74 14q-97 -34 -97 -109q0 -49 42 -75.5t118 -26.5z" />
    <glyph glyph-name="nine.tosf" 
d="M390 559q175 0 269.5 -91t94.5 -260q0 -182 -93 -282t-265 -100q-134 0 -223.5 52.5t-114.5 145.5l201 26q33 -87 145 -87q70 0 108.5 50t43.5 145q-77 -70 -209 -70q-139 0 -218 60.5t-79 172.5q0 109 93 173.5t247 64.5zM388 214q121 0 164 88q-25 127 -163 127
q-63 0 -102.5 -29t-39.5 -79t39 -78.5t102 -28.5z" />
    <glyph glyph-name="zero.osf.zero" horiz-adv-x="887" 
d="M444 559q182 0 292 -80t110 -212q0 -131 -110 -211t-292 -80q-183 0 -293 80t-110 212t110 211.5t293 79.5zM444 417q-94 0 -149 -40.5t-55 -109.5q0 -43 24 -78l319 194q-54 34 -139 34zM444 118q92 0 147.5 40.5t55.5 108.5q0 45 -24 78l-317 -193q53 -34 138 -34z" />
    <glyph glyph-name="zero.tf.zero" 
d="M402 719q168 0 268 -96.5t100 -274.5q0 -179 -100 -275.5t-268 -96.5q-169 0 -269 96.5t-100 274.5q0 179 100 275.5t269 96.5zM402 586q-84 0 -125.5 -63.5t-41.5 -174.5q0 -48 8 -91l289 256q-43 73 -130 73zM402 110q83 0 124.5 63.5t41.5 174.5q0 45 -8 87l-287 -255
q42 -70 129 -70z" />
    <glyph glyph-name="zero.tosf.zero" 
d="M401 559q163 0 266 -80t103 -213q0 -134 -102.5 -212t-266.5 -78q-166 0 -267.5 77.5t-101.5 212.5q0 133 103 213t266 80zM401 417q-74 0 -121 -39.5t-47 -111.5q0 -36 12 -63l282 171q-48 43 -126 43zM401 118q76 0 124 38.5t48 109.5q0 36 -14 66l-283 -172
q45 -42 125 -42z" />
    <glyph glyph-name="zero.subs" horiz-adv-x="684" 
d="M342 -157q-136 0 -221 71.5t-85 199.5t85 199.5t221 71.5q135 0 220.5 -71.5t85.5 -199.5t-85.5 -199.5t-220.5 -71.5zM342 -43q59 0 96.5 38.5t37.5 118.5t-37.5 118t-96.5 38t-96.5 -38t-37.5 -118t37.5 -118.5t96.5 -38.5z" />
    <glyph glyph-name="one.subs" horiz-adv-x="438" 
d="M182 -140v322q-34 -39 -116 -39h-39v135h21q122 0 158 89h143v-507h-167z" />
    <glyph glyph-name="two.subs" horiz-adv-x="651" 
d="M38 -140v104q193 75 244 100q136 68 136 134q0 32 -26.5 52t-73.5 20q-49 0 -78 -21.5t-29 -63.5q0 -12 1 -17l-170 14q-1 8 -1 24q0 85 78 132t198 47q127 0 201.5 -42.5t74.5 -128.5q0 -35 -16 -66t-42 -54t-66 -44.5t-80.5 -37t-94.5 -32.5h309v-120h-565z" />
    <glyph glyph-name="three.subs" horiz-adv-x="642" 
d="M316 -157q-133 0 -209 48.5t-78 136.5l171 12q0 -44 31.5 -66t85.5 -22q52 0 83 16t31 48q0 56 -104 56h-60v87h58q98 0 98 54q0 29 -29 45.5t-78 16.5q-114 0 -114 -87l-170 13q0 83 75 133.5t206 50.5q132 0 207.5 -40t75.5 -116q0 -96 -132 -109q142 -15 142 -120
q0 -73 -80 -115t-210 -42z" />
    <glyph glyph-name="four.subs" horiz-adv-x="681" 
d="M663 -38h-118v-102h-163v102h-362v101l344 304h181v-298h118v-107zM382 257l-202 -188h202v188z" />
    <glyph glyph-name="five.subs" horiz-adv-x="629" 
d="M308 -157q-115 0 -188.5 43t-83.5 116l162 16q6 -30 36.5 -48t76.5 -18q52 0 81 21t29 58q0 36 -28.5 55.5t-80.5 19.5q-40 0 -69 -14.5t-41 -38.5l-147 13l32 301h465v-106h-335l-12 -110q45 56 164 56q104 0 164.5 -46.5t60.5 -127.5q0 -87 -77.5 -138.5t-208.5 -51.5z
" />
    <glyph glyph-name="six.subs" horiz-adv-x="648" 
d="M374 207q116 0 178.5 -46.5t62.5 -131.5q0 -86 -77 -136t-210 -50q-143 0 -217.5 66t-74.5 193q0 136 79.5 209.5t226.5 73.5q104 0 174.5 -36t91.5 -101l-170 -18q-23 55 -104 55q-124 0 -136 -135q63 57 176 57zM328 -49q52 0 83.5 21.5t31.5 56.5q0 36 -28.5 56.5
t-79.5 20.5q-88 0 -130 -63q25 -92 123 -92z" />
    <glyph glyph-name="seven.subs" horiz-adv-x="568" 
d="M153 -140v14q0 231 234 372h-368v121h524v-115q-212 -140 -212 -359v-33h-178z" />
    <glyph glyph-name="eight.subs" horiz-adv-x="654" 
d="M489 144q69 -21 99.5 -55.5t30.5 -88.5q0 -74 -77 -115.5t-214 -41.5t-215 39t-78 107q0 45 35 75t99 41q-118 36 -118 130q0 69 74 109.5t201 40.5q128 0 203 -38t75 -102q0 -79 -115 -101zM327 288q-48 0 -76.5 -15.5t-28.5 -40.5q0 -44 102 -58l59 -8q1 0 3 -0.5
t4 -0.5q43 21 43 61q0 29 -28 45.5t-78 16.5zM328 -56q54 0 86 17t32 46q0 26 -26 41t-88 25l-61 11q-62 -22 -62 -71q0 -32 31.5 -50.5t87.5 -18.5z" />
    <glyph glyph-name="nine.subs" horiz-adv-x="648" 
d="M311 385q147 0 224 -65.5t77 -192.5q0 -138 -78.5 -211t-226.5 -73q-105 0 -176 39t-92 108l169 17q9 -27 37 -42.5t69 -15.5q121 0 135 129q-58 -43 -174 -43t-179 44.5t-63 127.5q0 82 75 130t203 48zM313 137q87 0 131 47q-21 98 -127 98q-53 0 -83 -19.5t-30 -55.5
q0 -32 30 -51t79 -19z" />
    <glyph glyph-name="zero.dnom" horiz-adv-x="578" 
d="M288 -14q-113 0 -183.5 57.5t-70.5 152.5q0 97 70 154t185 57q114 0 184.5 -57t70.5 -153t-70.5 -153.5t-185.5 -57.5zM288 73q61 0 97 31.5t36 92.5t-35.5 92.5t-96.5 31.5t-97 -31.5t-36 -93.5q0 -60 36 -91.5t96 -31.5z" />
    <glyph glyph-name="one.dnom" horiz-adv-x="351" 
d="M155 0v251q-32 -26 -102 -26h-30v100h17q97 0 131 68h102v-393h-118z" />
    <glyph glyph-name="two.dnom" horiz-adv-x="537" 
d="M29 0v83q196 60 252 88q80 41 81 86q0 29 -26.5 46t-72.5 17q-47 0 -76 -18.5t-29 -55.5q0 -9 4 -19l-124 11q-3 14 -3 23q0 66 64.5 106t162.5 40q105 0 166 -36.5t61 -104.5q0 -115 -233 -174h242v-92h-469z" />
    <glyph glyph-name="three.dnom" horiz-adv-x="533" 
d="M264 -14q-106 0 -167.5 36.5t-69.5 104.5l121 11q13 -67 116 -67q110 0 110 47q0 23 -22 32.5t-76 9.5h-61v76h62q88 0 88 40q0 46 -100 46q-108 0 -115 -68l-118 13q5 66 66 103t169 37q100 0 160 -31t60 -88q0 -38 -28.5 -60t-76.5 -26q117 -13 117 -91
q0 -58 -64.5 -91.5t-170.5 -33.5z" />
    <glyph glyph-name="four.dnom" horiz-adv-x="540" 
d="M524 82h-89v-82h-116v82h-302v74l282 237h136v-231h89v-80zM319 314l-177 -152h177v152z" />
    <glyph glyph-name="five.dnom" horiz-adv-x="523" 
d="M261 -14q-94 0 -155 31.5t-74 87.5l118 16q16 -51 115 -51q50 0 77 17.5t27 48.5q0 61 -101 61q-80 0 -109 -40l-107 8l28 228h379v-73h-287l-13 -92q38 48 149 48q88 0 135.5 -36.5t47.5 -102.5q0 -70 -62 -110.5t-168 -40.5z" />
    <glyph glyph-name="six.dnom" horiz-adv-x="538" 
d="M306 271q96 0 148 -34.5t52 -103.5q0 -65 -63 -106t-165 -41q-115 0 -179.5 54.5t-64.5 152.5q0 101 64.5 157.5t181.5 56.5q88 0 147.5 -25t74.5 -70l-122 -18q-27 39 -103 39q-115 0 -126 -105q56 43 155 43zM278 70q47 0 76.5 17.5t29.5 45.5q0 57 -101 57
q-92 0 -125 -53q23 -67 120 -67z" />
    <glyph glyph-name="seven.dnom" horiz-adv-x="468" 
d="M19 302v91h430v-84q-86 -50 -137 -129.5t-59 -178.5v-1h-132q15 191 203 302h-305z" />
    <glyph glyph-name="eight.dnom" horiz-adv-x="541" 
d="M410 216q53 -16 76 -41t23 -64q0 -59 -62.5 -92t-172.5 -33q-115 0 -178.5 30.5t-63.5 85.5q0 72 103 93q-48 16 -68.5 39t-20.5 57q0 53 61 84.5t165 31.5q102 0 162.5 -30t60.5 -80q0 -29 -22.5 -50t-62.5 -31zM272 334q-105 0 -105 -43q0 -18 21 -29t72 -18l56 -8
l7 -1q51 23 51 52q0 47 -102 47zM274 65q52 0 82 13t30 36q0 20 -20 30.5t-89 21.5l-55 9q-67 -19 -67 -59q0 -51 119 -51z" />
    <glyph glyph-name="nine.dnom" horiz-adv-x="538" 
d="M258 407q118 0 182 -54t64 -153q0 -100 -65.5 -157t-180.5 -57q-87 0 -147.5 30t-74.5 81l121 18q22 -46 105 -46q117 0 126 111q-51 -45 -156 -45q-96 0 -147.5 34t-51.5 99q0 63 61.5 101t163.5 38zM255 215q94 0 123 46q-27 66 -118 66q-50 0 -78 -15.5t-28 -43.5
q0 -53 101 -53z" />
    <glyph glyph-name="zero.numr" horiz-adv-x="578" 
d="M288 303q-113 0 -183.5 57.5t-70.5 152.5q0 97 70 154t185 57q114 0 184.5 -57t70.5 -153t-70.5 -153.5t-185.5 -57.5zM288 390q61 0 97 31.5t36 92.5t-35.5 92.5t-96.5 31.5t-97 -31.5t-36 -93.5q0 -60 36 -91.5t96 -31.5z" />
    <glyph glyph-name="one.numr" horiz-adv-x="351" 
d="M155 317v251q-32 -26 -102 -26h-30v100h17q97 0 131 68h102v-393h-118z" />
    <glyph glyph-name="two.numr" horiz-adv-x="537" 
d="M29 317v83q196 60 252 88q80 41 81 86q0 29 -26.5 46t-72.5 17q-47 0 -76 -18.5t-29 -55.5q0 -9 4 -19l-124 11q-3 13 -3 23q0 66 64.5 106t162.5 40q105 0 166 -36.5t61 -104.5q0 -115 -233 -174h242v-92h-469z" />
    <glyph glyph-name="three.numr" horiz-adv-x="533" 
d="M264 303q-106 0 -167.5 36.5t-69.5 104.5l121 11q13 -67 116 -67q110 0 110 47q0 23 -22 32.5t-76 9.5h-61v76h62q88 0 88 40q0 46 -100 46q-108 0 -115 -68l-118 13q5 66 66 103t169 37q100 0 160 -31t60 -88q0 -38 -28.5 -60t-76.5 -26q117 -13 117 -91
q0 -58 -64.5 -91.5t-170.5 -33.5z" />
    <glyph glyph-name="four.numr" horiz-adv-x="540" 
d="M524 399h-89v-82h-116v82h-302v74l282 237h136v-231h89v-80zM319 631l-177 -152h177v152z" />
    <glyph glyph-name="five.numr" horiz-adv-x="523" 
d="M261 303q-94 0 -155 31.5t-74 87.5l118 16q16 -51 115 -51q50 0 77 17.5t27 48.5q0 61 -101 61q-80 0 -109 -40l-107 8l28 228h379v-73h-287l-13 -92q38 48 149 48q88 0 135.5 -36.5t47.5 -102.5q0 -70 -62 -110.5t-168 -40.5z" />
    <glyph glyph-name="six.numr" horiz-adv-x="538" 
d="M306 588q96 0 148 -34.5t52 -103.5q0 -65 -63 -106t-165 -41q-115 0 -179.5 54.5t-64.5 152.5q0 101 64.5 157.5t181.5 56.5q88 0 147.5 -25t74.5 -70l-122 -18q-27 39 -103 39q-115 0 -126 -105q56 43 155 43zM278 387q47 0 76.5 17.5t29.5 45.5q0 57 -101 57
q-92 0 -125 -53q23 -67 120 -67z" />
    <glyph glyph-name="seven.numr" horiz-adv-x="468" 
d="M19 619v91h430v-84q-86 -50 -137 -129.5t-59 -178.5v-1h-132q15 191 203 302h-305z" />
    <glyph glyph-name="eight.numr" horiz-adv-x="541" 
d="M410 533q53 -16 76 -41t23 -64q0 -59 -62.5 -92t-172.5 -33q-115 0 -178.5 30.5t-63.5 85.5q0 72 103 93q-48 16 -68.5 39t-20.5 57q0 53 61 84.5t165 31.5q102 0 162.5 -30t60.5 -80q0 -29 -22.5 -50t-62.5 -31zM272 651q-105 0 -105 -43q0 -18 21 -29t72 -18l56 -8
l7 -1q51 23 51 52q0 47 -102 47zM274 382q52 0 82 13t30 36q0 20 -20 30.5t-89 21.5l-55 9q-67 -19 -67 -59q0 -51 119 -51z" />
    <glyph glyph-name="nine.numr" horiz-adv-x="538" 
d="M258 724q118 0 182 -54t64 -153q0 -100 -65.5 -157t-180.5 -57q-87 0 -147.5 30t-74.5 81l121 18q22 -46 105 -46q117 0 126 111q-51 -45 -156 -45q-96 0 -147.5 34t-51.5 99q0 63 61.5 101t163.5 38zM255 532q94 0 123 46q-27 66 -118 66q-50 0 -78 -15.5t-28 -43.5
q0 -53 101 -53z" />
    <glyph glyph-name="zero.sups" horiz-adv-x="684" 
d="M342 293q-136 0 -221 71.5t-85 199.5t85 199.5t221 71.5q135 0 220.5 -71.5t85.5 -199.5t-85.5 -199.5t-220.5 -71.5zM342 407q59 0 96.5 38.5t37.5 118.5t-37.5 118t-96.5 38t-96.5 -38t-37.5 -118t37.5 -118.5t96.5 -38.5z" />
    <glyph glyph-name="one.sups" horiz-adv-x="438" 
d="M182 310v322q-34 -39 -116 -39h-39v135h21q122 0 158 89h143v-507h-167z" />
    <glyph glyph-name="two.sups" horiz-adv-x="651" 
d="M38 310v104q193 75 244 100q136 68 136 134q0 32 -26.5 52t-73.5 20q-49 0 -78 -21.5t-29 -63.5q0 -12 1 -17l-170 14q-1 8 -1 24q0 85 78 132t198 47q127 0 201.5 -42.5t74.5 -128.5q0 -35 -16 -66t-42 -54t-66 -44.5t-80.5 -37t-94.5 -32.5h309v-120h-565z" />
    <glyph glyph-name="three.sups" horiz-adv-x="642" 
d="M316 293q-133 0 -209 48.5t-78 136.5l171 12q0 -44 31.5 -66t85.5 -22q52 0 83 16t31 48q0 56 -104 56h-60v87h58q98 0 98 54q0 29 -29 45.5t-78 16.5q-114 0 -114 -87l-170 13q0 83 75 133.5t206 50.5q132 0 207.5 -40t75.5 -116q0 -96 -132 -109q142 -15 142 -120
q0 -73 -80 -115t-210 -42z" />
    <glyph glyph-name="four.sups" horiz-adv-x="681" 
d="M663 412h-118v-102h-163v102h-362v101l344 304h181v-298h118v-107zM382 707l-202 -188h202v188z" />
    <glyph glyph-name="five.sups" horiz-adv-x="629" 
d="M308 293q-115 0 -188.5 43t-83.5 116l162 16q6 -30 36.5 -48t76.5 -18q52 0 81 21t29 58q0 36 -28.5 55.5t-80.5 19.5q-40 0 -69 -14.5t-41 -38.5l-147 13l32 301h465v-106h-335l-12 -110q45 56 164 56q104 0 164.5 -46.5t60.5 -127.5q0 -87 -77.5 -138.5t-208.5 -51.5z
" />
    <glyph glyph-name="six.sups" horiz-adv-x="648" 
d="M374 657q116 0 178.5 -46.5t62.5 -131.5q0 -86 -77 -136t-210 -50q-143 0 -217.5 66t-74.5 193q0 136 79.5 209.5t226.5 73.5q104 0 174.5 -36t91.5 -101l-170 -18q-23 55 -104 55q-124 0 -136 -135q63 57 176 57zM328 401q52 0 83.5 21.5t31.5 56.5q0 36 -28.5 56.5
t-79.5 20.5q-88 0 -130 -63q25 -92 123 -92z" />
    <glyph glyph-name="seven.sups" horiz-adv-x="568" 
d="M153 310v14q0 231 234 372h-368v121h524v-115q-212 -140 -212 -359v-33h-178z" />
    <glyph glyph-name="eight.sups" horiz-adv-x="654" 
d="M489 594q69 -21 99.5 -55.5t30.5 -88.5q0 -74 -77 -115.5t-214 -41.5t-215 39t-78 107q0 45 35 75t99 41q-118 36 -118 130q0 69 74 109.5t201 40.5q128 0 203 -38t75 -102q0 -79 -115 -101zM327 738q-48 0 -76.5 -15.5t-28.5 -40.5q0 -44 102 -58l59 -8q1 0 3 -0.5
t4 -0.5q43 21 43 61q0 29 -28 45.5t-78 16.5zM328 394q54 0 86 17t32 46q0 26 -26 41t-88 25l-61 11q-62 -22 -62 -71q0 -32 31.5 -50.5t87.5 -18.5z" />
    <glyph glyph-name="nine.sups" horiz-adv-x="648" 
d="M311 835q147 0 224 -65.5t77 -192.5q0 -138 -78.5 -211t-226.5 -73q-105 0 -176 39t-92 108l169 17q9 -27 37 -42.5t69 -15.5q121 0 135 129q-58 -43 -174 -43t-179 44.5t-63 127.5q0 82 75 130t203 48zM313 587q87 0 131 47q-21 98 -127 98q-53 0 -83 -19.5t-30 -55.5
q0 -32 30 -51t79 -19z" />
    <glyph glyph-name="backslash.case" horiz-adv-x="733" 
d="M507 -87l-465 877h184l465 -877h-184z" />
    <glyph glyph-name="periodcentered.case" horiz-adv-x="340" 
d="M275 449v-164h-209v164h209z" />
    <glyph glyph-name="bullet.case" horiz-adv-x="392" 
d="M195 241q-56 0 -92.5 35.5t-36.5 91.5q0 59 36.5 95t92.5 36q58 0 94.5 -36t36.5 -95q0 -56 -37 -91.5t-94 -35.5z" />
    <glyph glyph-name="colon.case" horiz-adv-x="340" 
d="M275 550v-164h-209v164h209zM275 164v-164h-209v164h209z" />
    <glyph glyph-name="exclamdown.case" horiz-adv-x="409" 
d="M314 569h-219v156h219v-156zM122 488h166l27 -488h-220z" />
    <glyph glyph-name="questiondown.case" horiz-adv-x="802" 
d="M521 711v-156h-215v156h215zM507 509v-30q0 -51 -22 -85.5t-77 -55.5l-95 -38q-44 -17 -65 -39.5t-21 -58.5q0 -42 43.5 -69.5t124.5 -27.5q85 0 135 31.5t50 91.5q0 27 -5 46l199 -18q6 -17 6 -46q0 -107 -104.5 -171t-280.5 -64q-168 0 -267.5 57.5t-99.5 157.5
q0 68 36.5 110t105.5 71l91 38q36 16 49.5 34.5t13.5 44.5v21h183z" />
    <glyph glyph-name="semicolon.case" horiz-adv-x="340" 
d="M275 550v-164h-209v164h209zM111 -165l-19 75q87 16 87 85v5h-101v180h196v-167q0 -71 -38.5 -119t-124.5 -59z" />
    <glyph glyph-name="slash.case" horiz-adv-x="733" 
d="M226 -87h-184l465 877h184z" />
    <glyph glyph-name="underscore.case" horiz-adv-x="675" 
d="M0 -25h675v-103h-675v103z" />
    <glyph glyph-name="asterisk.ss04" horiz-adv-x="293" 
d="M147 710l-31 -93h-97l79 -57l-30 -93l79 57l79 -57l-31 93l79 57h-97z" />
    <glyph glyph-name="braceleft.case" horiz-adv-x="431" 
d="M310 -87q-104 0 -150.5 36.5t-46.5 120.5v147q0 24 -2.5 37t-11.5 27t-29.5 20.5t-53.5 7.5v107q64 1 80.5 20.5t16.5 67.5v134q0 78 49.5 118.5t145.5 40.5h111v-120h-55q-41 0 -59.5 -17.5t-18.5 -60.5v-93q0 -56 -22 -92.5t-80 -50.5q58 -16 80 -54.5t22 -94.5v-111
q0 -41 18.5 -55.5t60.5 -14.5h54v-120h-109z" />
    <glyph glyph-name="braceright.case" horiz-adv-x="431" 
d="M121 -87h-109v120h54q42 0 60.5 14.5t18.5 55.5v111q0 56 22 94.5t80 54.5q-58 14 -80 50.5t-22 92.5v93q0 43 -18.5 60.5t-59.5 17.5h-55v120h111q96 0 145.5 -40.5t49.5 -118.5v-134q0 -48 16.5 -67.5t80.5 -20.5v-107q-63 -1 -80 -23t-17 -69v-147q0 -84 -46.5 -120.5
t-150.5 -36.5z" />
    <glyph glyph-name="bracketleft.case" horiz-adv-x="436" 
d="M92 -85v883h333v-120h-160v-643h160v-120h-333z" />
    <glyph glyph-name="bracketright.case" horiz-adv-x="436" 
d="M344 -85h-333v120h160v643h-160v120h333v-883z" />
    <glyph glyph-name="parenleft.case" horiz-adv-x="426" 
d="M278 -109q-102 94 -160 219t-58 249t59.5 249.5t161.5 213.5l140 -61q-181 -175 -181 -405q0 -223 183 -403z" />
    <glyph glyph-name="parenright.case" horiz-adv-x="426" 
d="M148 -109l-145 62q183 180 183 403q0 230 -181 405l140 61q102 -88 161.5 -213.5t59.5 -249.5t-58 -249t-160 -219z" />
    <glyph glyph-name="parenleft.subs" horiz-adv-x="348" 
d="M226 -246q-70 72 -112 163.5t-42 180.5t43.5 181.5t114.5 156.5l120 -46q-128 -129 -128 -294q0 -159 130 -295z" />
    <glyph glyph-name="parenright.subs" horiz-adv-x="348" 
d="M122 -246l-126 47q130 136 130 295q0 165 -128 294l120 46q71 -64 114.5 -156.5t43.5 -181.5t-42 -180.5t-112 -163.5z" />
    <glyph glyph-name="parenleft.sups" horiz-adv-x="348" 
d="M226 204q-70 72 -112 163.5t-42 180.5t43.5 181.5t114.5 156.5l120 -46q-128 -129 -128 -294q0 -159 130 -295z" />
    <glyph glyph-name="parenright.sups" horiz-adv-x="348" 
d="M122 204l-126 47q130 136 130 295q0 165 -128 294l120 46q71 -64 114.5 -156.5t43.5 -181.5t-42 -180.5t-112 -163.5z" />
    <glyph glyph-name="emdash.case" horiz-adv-x="1067" 
d="M46 432h975v-169h-975v169z" />
    <glyph glyph-name="endash.case" horiz-adv-x="787" 
d="M46 429h695v-162h-695v162z" />
    <glyph glyph-name="hyphen.case" horiz-adv-x="613" 
d="M46 417h521v-136h-521v136z" />
    <glyph glyph-name="guillemotleft.case" horiz-adv-x="791" 
d="M266 137l-242 209l247 206h183l-245 -205l242 -210h-185zM586 137l-242 209l247 206h183l-245 -205l242 -210h-185z" />
    <glyph glyph-name="guillemotright.case" horiz-adv-x="791" 
d="M205 137h-185l242 210l-245 205h183l247 -206zM525 137h-185l242 210l-245 205h183l247 -206z" />
    <glyph glyph-name="guilsinglleft.case" horiz-adv-x="470" 
d="M266 137l-242 210l247 205h183l-245 -204l242 -211h-185z" />
    <glyph glyph-name="guilsinglright.case" horiz-adv-x="470" 
d="M204 137h-185l242 210l-245 205h183l247 -206z" />
    <glyph glyph-name="currency.case" horiz-adv-x="696" 
d="M656 353q0 -85 -55 -146l65 -56l-72 -68l-76 66q-70 -32 -166 -32q-102 0 -180 38l-77 -66l-71 67l69 61q-47 58 -47 136q0 80 48 137l-70 61l71 67l79 -66q74 37 178 37q100 0 172 -35l76 65l72 -67l-67 -58q51 -59 51 -141zM352 231q74 0 117.5 33t43.5 89
q0 54 -43.5 86t-117.5 32q-75 0 -119 -32t-44 -86q0 -56 44 -89t119 -33z" />
    <glyph glyph-name="dollar.case" horiz-adv-x="879" 
d="M847 217q0 -106 -98 -169t-271 -68v-85h-73v85q-144 5 -250 49t-155 120l143 90q78 -112 262 -126v184l-102 10q-127 14 -188 63.5t-61 139.5q0 100 92.5 160t258.5 65v78h73v-79q244 -11 361 -141l-128 -99q-59 96 -233 110v-174l109 -10q134 -14 197 -62t63 -141z
M368 440l37 -3v169q-163 -4 -163 -83q0 -38 29 -57t97 -26zM478 111q179 5 179 91q0 38 -27.5 56.5t-89.5 25.5l-62 6v-179z" />
    <glyph glyph-name="Euro.case" horiz-adv-x="1011" 
d="M570 122q162 0 227 120l182 -69q-55 -93 -162.5 -145t-253.5 -52q-183 0 -297 78.5t-147 206.5h-114v65h103q-2 24 -2 37q0 18 1 27h-102v65h113q34 125 152.5 202.5t301.5 77.5q146 0 254.5 -51t158.5 -140l-192 -61q-60 105 -223 105q-191 0 -242 -133h362v-65h-378
q-1 -9 -1 -27q0 -13 2 -37h377v-65h-361q25 -65 85.5 -102t155.5 -37z" />
    <glyph glyph-name="sterling.case" horiz-adv-x="852" 
d="M658 216l187 -23q-17 -99 -88 -156t-179 -57q-51 0 -139 15.5t-155 15.5q-109 0 -239 -19l-32 93q146 40 146 169q0 36 -6 64h-108v93h86q-9 41 -9 76q0 115 91 181.5t249 66.5q298 0 344 -197l-186 -34q-11 48 -51.5 74.5t-103.5 26.5q-151 0 -151 -118q0 -35 9 -76h247
v-93h-225q3 -21 3 -44q0 -101 -95 -139q50 10 92 10q37 0 98.5 -9.5t97.5 -9.5q101 0 117 90z" />
    <glyph glyph-name="currency.tf.case" 
d="M710 353q0 -85 -55 -146l64 -56l-71 -68l-76 66q-70 -32 -166 -32q-102 0 -180 38l-77 -66l-71 67l69 61q-47 58 -47 136q0 80 48 137l-70 61l71 67l79 -66q74 37 178 37q100 0 172 -35l76 65l72 -67l-67 -58q51 -59 51 -141zM406 231q74 0 117.5 33t43.5 89
q0 54 -43.5 86t-117.5 32q-75 0 -119 -32t-44 -86q0 -56 44 -89t119 -33z" />
    <glyph glyph-name="dollar.tf.case" 
d="M784 210q0 -106 -84 -165.5t-240 -64.5v-85h-72v85q-131 6 -227.5 50.5t-141.5 121.5l147 87q69 -110 222 -125v185l-86 13q-117 19 -173 70.5t-56 140.5q0 97 80.5 151.5t234.5 58.5v80h72v-81q213 -12 314 -134l-129 -95q-48 84 -185 98v-171l94 -13q123 -18 176.5 -66
t53.5 -141zM364 444l24 -3v163q-133 -4 -133 -78q0 -37 23.5 -55t85.5 -27zM460 111q76 1 111 23t35 66q0 37 -21 54.5t-74 25.5l-51 8v-177z" />
    <glyph glyph-name="Euro.tf.case" 
d="M457 120q102 0 147 116l173 -66q-39 -92 -125 -143t-202 -51q-146 0 -238 76.5t-118 209.5h-70v64h62q-1 12 -1 37v4q0 15 1 23h-62v63h69q25 129 122 205.5t245 76.5q114 0 200.5 -49.5t123.5 -137.5l-183 -60q-42 104 -144 104q-128 0 -159 -139h212v-63h-220v-22v-6
q0 -24 1 -36h219v-64h-210q32 -142 157 -142z" />
    <glyph glyph-name="sterling.tf.case" 
d="M600 216l187 -23q-16 -100 -83.5 -156.5t-168.5 -56.5q-44 0 -119 15.5t-132 15.5q-109 0 -237 -19l-32 93q145 40 145 170q0 25 -6 65h-108v91h85q-9 43 -9 77q0 115 84 181t229 66q274 0 317 -197l-186 -33q-9 49 -42.5 75.5t-85.5 26.5q-124 0 -124 -119q0 -39 10 -77
h189v-91h-168q3 -21 3 -46q0 -101 -95 -139q45 8 91 8q29 0 77.5 -9.5t76.5 -9.5q42 0 69 24t33 68z" />
    <glyph glyph-name="yen.tf.case" 
d="M810 710l-290 -403h215v-70h-233v-61h233v-69h-233v-107h-200v107h-233v69h233v61h-233v70h215l-291 403h219l156 -246q22 -37 33 -65h2q13 34 33 65l156 246h218z" />
    <glyph glyph-name="yen.case" horiz-adv-x="922" 
d="M932 710l-347 -400h265v-71h-289v-60h289v-71h-289v-108h-200v108h-282v71h282v60h-282v71h258l-347 400h227l179 -217q33 -39 66 -91h4q31 46 67 91l184 217h215z" />
    <glyph glyph-name="currency.tf" 
d="M710 303q0 -85 -55 -146l64 -56l-71 -68l-76 66q-70 -32 -166 -32q-102 0 -180 38l-77 -66l-71 67l69 61q-47 58 -47 136q0 80 48 137l-70 61l71 67l79 -66q74 37 178 37q100 0 172 -35l76 65l72 -67l-67 -58q51 -59 51 -141zM406 181q74 0 117.5 33t43.5 89
q0 54 -43.5 86t-117.5 32q-75 0 -119 -32t-44 -86q0 -56 44 -89t119 -33z" />
    <glyph glyph-name="plus.case" horiz-adv-x="710" 
d="M664 438v-118h-246v-195h-128v195h-244v118h244v184h128v-184h246z" />
    <glyph glyph-name="minus.case" horiz-adv-x="710" 
d="M46 318v120h618v-120h-618z" />
    <glyph glyph-name="multiply.case" 
d="M698 554l-209 -178l209 -179l-85 -78l-212 182l-212 -181l-84 77l208 178l-208 179l85 77l211 -180l211 180z" />
    <glyph glyph-name="divide.case" horiz-adv-x="710" 
d="M354 496q-34 0 -56 21.5t-22 55.5t22 56t56 22t56.5 -21.5t22.5 -56.5q0 -34 -22.5 -55.5t-56.5 -21.5zM46 318v119h618v-119h-618zM354 102q-34 0 -56 21.5t-22 55.5t22 56t56 22t56.5 -21.5t22.5 -56.5q0 -34 -22.5 -55.5t-56.5 -21.5z" />
    <glyph glyph-name="equal.case" horiz-adv-x="691" 
d="M46 421v108h599v-108h-599zM46 229v108h599v-108h-599z" />
    <glyph glyph-name="notequal.case" 
d="M699 421h-232l-43 -84h275v-108h-331l-60 -116h-91l60 116h-177v108h233l43 84h-276v108h332l58 112h91l-58 -112h176v-108z" />
    <glyph glyph-name="greater.case" 
d="M139 116v127l421 134l-421 134v125l565 -205v-110z" />
    <glyph glyph-name="less.case" 
d="M664 116l-565 205v110l565 205v-125l-421 -134l421 -134v-127z" />
    <glyph glyph-name="greaterequal.case" 
d="M126 190v127l421 134l-421 134v125l565 -205v-110zM686 154v-104h-564v104h564z" />
    <glyph glyph-name="lessequal.case" 
d="M677 190l-565 205v110l565 205v-125l-421 -134l421 -134v-127zM117 154h564v-104h-564v104z" />
    <glyph glyph-name="plusminus.case" 
d="M465 460h245v-118h-245v-152h-129v152h-243v118h243v152h129v-152zM93 50v107h617v-107h-617z" />
    <glyph glyph-name="approxequal.case" 
d="M551 394q-53 0 -152.5 32.5t-140.5 32.5q-93 0 -155 -50v110q26 22 68 36t84 14q63 0 158 -32.5t135 -32.5q93 0 153 50v-111q-24 -21 -66.5 -35t-83.5 -14zM551 199q-53 0 -152.5 32.5t-140.5 32.5q-93 0 -155 -50v111q26 21 68.5 35t83.5 14q63 0 158 -32.5t135 -32.5
q93 0 153 50v-110q-24 -22 -66.5 -36t-83.5 -14z" />
    <glyph glyph-name="asciitilde.case" 
d="M515 269q-45 0 -83 16.5t-69.5 33t-60.5 16.5q-73 0 -82 -67l-116 29q11 72 61 109t123 37q47 0 86.5 -16.5t71.5 -33.5t59 -17q66 0 78 71l115 -21q-10 -80 -61.5 -118.5t-121.5 -38.5z" />
    <glyph glyph-name="logicalnot.case" 
d="M116 437h569v-265h-118v154h-451v111z" />
    <glyph glyph-name="infinity.case" horiz-adv-x="818" 
d="M598 549q82 0 133 -46t51 -124q0 -76 -52.5 -124t-132.5 -48q-110 0 -190 85q-82 -85 -187 -85q-82 0 -133 46t-51 124q0 77 52.5 124.5t133.5 47.5q110 0 189 -85q80 85 187 85zM236 314q55 0 107 65q-51 64 -109 64q-34 0 -55.5 -17.5t-21.5 -47.5t22.5 -47t56.5 -17z
M584 313q34 0 55.5 17.5t21.5 47.5t-22 47t-57 17q-55 0 -107 -65q51 -64 109 -64z" />
    <glyph glyph-name="emptyset.case" horiz-adv-x="671" 
d="M579 509q62 -62 62 -153q0 -107 -83.5 -172t-222.5 -65q-111 0 -188 43l-76 -61l-47 45l69 56q-62 60 -62 152q0 108 83 173t222 65q110 0 190 -43l75 60l47 -45zM174 356q0 -41 22 -72l228 183q-40 16 -88 16q-75 0 -118.5 -34.5t-43.5 -92.5zM335 227q75 0 119 34.5
t44 92.5q0 41 -22 72l-227 -182q37 -17 86 -17z" />
    <glyph glyph-name="plus.tf.case" 
d="M710 438v-118h-246v-195h-128v195h-244v118h244v184h128v-184h246z" />
    <glyph glyph-name="minus.tf.case" 
d="M92 318v120h618v-120h-618z" />
    <glyph glyph-name="divide.tf.case" 
d="M375 496q-34 0 -56 21.5t-22 55.5t22 56t56 22t56.5 -21.5t22.5 -56.5q0 -34 -22.5 -55.5t-56.5 -21.5zM67 318v119h618v-119h-618zM375 102q-34 0 -56 21.5t-22 55.5t22 56t56 22t56.5 -21.5t22.5 -56.5q0 -34 -22.5 -55.5t-56.5 -21.5z" />
    <glyph glyph-name="equal.tf.case" 
d="M100 421v108h599v-108h-599zM100 229v108h599v-108h-599z" />
    <glyph glyph-name="emptyset.tf.case" 
d="M645 509q62 -62 62 -153q0 -107 -83 -172t-222 -65q-112 0 -189 43l-76 -61l-47 45l69 56q-62 60 -62 152q0 108 83 173t222 65q110 0 190 -43l75 60l47 -45zM240 356q0 -41 22 -72l228 183q-40 16 -88 16q-75 0 -118.5 -34.5t-43.5 -92.5zM402 227q75 0 118.5 34.5
t43.5 92.5q0 41 -22 72l-227 -182q37 -17 87 -17z" />
    <glyph glyph-name="plus.subs" horiz-adv-x="556" 
d="M513 146v-93h-186v-143h-100v143h-185v93h185v136h100v-136h186z" />
    <glyph glyph-name="minus.subs" horiz-adv-x="556" 
d="M42 53v94h471v-94h-471z" />
    <glyph glyph-name="multiply.subs" horiz-adv-x="615" 
d="M530 227l-154 -130l153 -129l-66 -60l-156 131l-156 -131l-66 59l154 130l-154 130l66 59l156 -131l155 131z" />
    <glyph glyph-name="divide.subs" horiz-adv-x="556" 
d="M277 186q-27 0 -45 17.5t-18 44.5q0 28 18 45t45 17t45 -17t18 -45q0 -27 -18 -44.5t-45 -17.5zM42 53v94h471v-94h-471zM277 -113q-27 0 -45 17t-18 44q0 28 18 45.5t45 17.5t45 -17.5t18 -45.5q0 -27 -18 -44t-45 -17z" />
    <glyph glyph-name="plus.sups" horiz-adv-x="556" 
d="M513 596v-93h-186v-143h-100v143h-185v93h185v136h100v-136h186z" />
    <glyph glyph-name="minus.sups" horiz-adv-x="556" 
d="M42 503v94h471v-94h-471z" />
    <glyph glyph-name="multiply.sups" horiz-adv-x="615" 
d="M530 677l-155 -130l154 -129l-66 -60l-156 132l-156 -131l-66 58l154 130l-154 130l66 59l156 -131l155 131z" />
    <glyph glyph-name="divide.sups" horiz-adv-x="556" 
d="M277 636q-27 0 -45 17.5t-18 44.5q0 28 18 45t45 17t45 -17t18 -45q0 -27 -18 -44.5t-45 -17.5zM42 503v94h471v-94h-471zM277 337q-27 0 -45 17t-18 44q0 28 18 45.5t45 17.5t45 -17.5t18 -45.5q0 -27 -18 -44t-45 -17z" />
    <glyph glyph-name="plus.tf" 
d="M710 388v-118h-246v-195h-128v195h-244v118h244v184h128v-184h246z" />
    <glyph glyph-name="minus.tf" 
d="M92 268v120h618v-120h-618z" />
    <glyph glyph-name="divide.tf" 
d="M375 446q-34 0 -56 21.5t-22 55.5t22 56t56 22t56.5 -21.5t22.5 -56.5q0 -34 -22.5 -55.5t-56.5 -21.5zM67 268v119h618v-119h-618zM375 52q-34 0 -56 21.5t-22 55.5t22 56t56 22t56.5 -21.5t22.5 -56.5q0 -34 -22.5 -55.5t-56.5 -21.5z" />
    <glyph glyph-name="equal.tf" 
d="M100 371v108h599v-108h-599zM100 179v108h599v-108h-599z" />
    <glyph glyph-name="emptyset.tf" 
d="M645 459q62 -62 62 -153q0 -107 -83 -172t-222 -65q-112 0 -189 43l-76 -61l-47 45l69 56q-62 60 -62 152q0 108 83 173t222 65q110 0 190 -43l75 60l47 -45zM240 306q0 -41 22 -72l228 183q-40 16 -88 16q-75 0 -118.5 -34.5t-43.5 -92.5zM402 177q75 0 118.5 34.5
t43.5 92.5q0 41 -22 72l-227 -182q37 -17 87 -17z" />
    <glyph glyph-name="percent.tf" 
d="M87 -14l528 744h112l-527 -744h-113zM205 368q-85 0 -135.5 48t-50.5 130q0 79 51 127t134 48q81 0 132.5 -49t51.5 -129q0 -79 -51 -127t-132 -48zM205 467q30 0 48 20.5t18 55.5q0 37 -18 57.5t-49 20.5t-49.5 -20t-18.5 -55v-1q0 -37 18.5 -57.5t50.5 -20.5zM602 -10
q-85 0 -135.5 48t-50.5 130q0 79 51 127t134 48q81 0 132.5 -49t51.5 -129q0 -79 -51 -127t-132 -48zM602 89q30 0 48 20.5t18 55.5q0 37 -18 57.5t-49 20.5t-49.5 -20t-18.5 -55v-1q0 -37 18.5 -57.5t50.5 -20.5z" />
    <glyph glyph-name="uni21BB.alt" horiz-adv-x="1200" 
d="M1076 393h103l-155 -205l-154 205h106q-15 115 -116 187.5t-260 72.5q-194 0 -306 -106l-67 69q140 128 376 128q205 0 331.5 -99.5t141.5 -251.5zM599 51q193 0 306 107l66 -70q-139 -127 -375 -127q-205 0 -331 99t-142 250h-102l154 205l155 -205h-107
q15 -115 115.5 -187t260.5 -72z" />
    <glyph glyph-name="arrowup.ss03" horiz-adv-x="838" 
d="M349 505l-169 -188l-88 105l328 328l326 -328l-85 -105l-174 188v-540h-138v540z" />
    <glyph glyph-name="uni2197.ss03" horiz-adv-x="927" 
d="M707 485l-515 -526l-101 104l523 523l-248 -4v128h469v-470h-132z" />
    <glyph glyph-name="arrowright.ss03" horiz-adv-x="1248" 
d="M914 264h-822v130h822l-190 177l104 86l328 -327l-328 -328l-105 89z" />
    <glyph glyph-name="uni2198.ss03" horiz-adv-x="927" 
d="M707 213l-4 245h132v-470h-469v128l248 -4l-523 523l101 104z" />
    <glyph glyph-name="arrowdown.ss03" horiz-adv-x="838" 
d="M349 205v540h138v-540l174 188l85 -105l-326 -328l-328 328l88 105z" />
    <glyph glyph-name="uni2199.ss03" horiz-adv-x="927" 
d="M220 213l515 526l101 -104l-523 -523l248 4v-128h-469v470h132z" />
    <glyph glyph-name="arrowleft.ss03" horiz-adv-x="1248" 
d="M334 264l191 -173l-105 -89l-328 328l328 327l104 -86l-190 -177h822v-130h-822z" />
    <glyph glyph-name="uni2196.ss03" horiz-adv-x="927" 
d="M220 485l4 -245h-132v470h469v-128l-248 4l523 -523l-101 -104z" />
    <glyph glyph-name="circle.invert" horiz-adv-x="931" 
d="M465 -25q-203 0 -323.5 102t-120.5 278t120.5 278t323.5 102t324 -102t121 -278t-121 -278t-324 -102z" />
    <glyph glyph-name="at.case" horiz-adv-x="1006" 
d="M486 -32q-217 0 -341 101.5t-124 279.5q0 173 135.5 280t353.5 107q216 0 345.5 -100t129.5 -267q0 -107 -57.5 -169.5t-155.5 -62.5q-124 0 -151 92q-68 -99 -218 -99q-89 0 -137.5 33t-48.5 93q0 62 47 94.5t151 42.5l199 18v6q0 82 -111 82q-48 0 -77.5 -17.5
t-32.5 -48.5h-164q8 71 85 116t192 45q128 0 195.5 -49t67.5 -143v-115q0 -67 59 -67q38 0 59.5 39.5t21.5 107.5q0 142 -105.5 222t-294.5 80q-188 0 -298 -86.5t-110 -233.5q0 -145 106 -228.5t290 -83.5q127 0 223 41l28 -61q-106 -49 -262 -49zM468 224q63 0 105 30
t42 76v20l-159 -15q-78 -9 -78 -57q0 -25 24.5 -39.5t65.5 -14.5z" />
    <glyph glyph-name="section.case" horiz-adv-x="714" 
d="M616 262q57 -37 57 -112q0 -83 -88.5 -129t-252.5 -46q-229 0 -332 104l99 88q84 -77 255 -77q134 0 134 48q0 23 -18 33.5t-64 14.5l-201 17q-193 17 -193 141q0 72 72 111q-62 38 -62 109q0 80 87.5 125.5t241.5 45.5q207 0 315 -79l-92 -91q-93 57 -241 57
q-129 0 -129 -45q0 -38 78 -47l205 -17q103 -8 149 -40.5t46 -96.5q0 -74 -66 -114zM265 317l209 -18q2 0 7 -0.5t7 -0.5q27 15 27 46q0 27 -19 39.5t-69 16.5l-202 17q-6 0 -16 2q-32 -15 -32 -47q0 -25 20.5 -38t67.5 -17z" />
    <glyph glyph-name="bar.case" horiz-adv-x="287" 
d="M87 -87v877h113v-877h-113z" />
    <glyph glyph-name="brokenbar.case" horiz-adv-x="287" 
d="M200 800v-375h-113v375h113zM200 304v-381h-113v381h113z" />
    <glyph glyph-name="dagger.case" horiz-adv-x="653" 
d="M390 436v-467h-127v467h-225v104h225v220h127v-220h225v-104h-225z" />
    <glyph glyph-name="daggerdbl.case" horiz-adv-x="653" 
d="M615 436h-225v-143h225v-104h-225v-220h-127v220h-225v104h225v143h-225v104h225v220h127v-220h225v-104z" />
    <glyph glyph-name="registered.ss04" horiz-adv-x="624" 
d="M312 734q133 0 213 -68t80 -184t-80 -183.5t-213 -67.5t-213 67.5t-80 183.5t80 184t213 68zM312 273q111 0 178.5 56.5t67.5 152.5t-67.5 152.5t-178.5 56.5q-110 0 -178 -56.5t-68 -152.5t68 -152.5t178 -56.5zM484 531q0 -66 -65 -82l63 -98h-105l-50 87h-62v-87h-93
v268h206q51 0 78.5 -23t27.5 -65zM265 561v-67h80q42 0 42 34q0 33 -40 33h-82z" />
    <glyph glyph-name="Bitcoin.case" horiz-adv-x="948" 
d="M748 369q158 -26 158 -170q0 -94 -70 -146.5t-198 -52.5h-2v-87h-79v87h-174v-87h-79v87h-212v710h212v85h79v-85h174v85h79v-85q123 -1 187.5 -47.5t64.5 -133.5q0 -61 -37 -103t-103 -57zM579 582h-287v-164h287q49 0 74.5 21.5t25.5 61.5q0 81 -100 81zM589 128
q108 0 108 86q0 41 -28.5 63t-81.5 22h-295v-171h297z" />
    <glyph glyph-name="Baht.case" horiz-adv-x="948" 
d="M745 367q161 -24 161 -166q0 -98 -71 -149.5t-197 -51.5h-124v-93h-72v93h-350v710h350v93h72v-93h117q257 0 257 -182q0 -61 -37.5 -103.5t-105.5 -57.5zM282 589v-179h160v179h-160zM589 589h-75v-179h75q49 0 74.5 24t25.5 69q0 86 -100 86zM282 120h160v184h-160
v-184zM600 120q107 0 107 94q0 90 -108 90h-85v-184h86z" />
    <glyph glyph-name="Lira.case" horiz-adv-x="841" 
d="M644 286l190 -23q-17 -64 -42.5 -110t-66.5 -81.5t-102.5 -53.5t-144.5 -18h-340v274l-115 -23v70l115 23v72l-115 -23v69l115 23v225h201v-184l316 64v-69l-316 -64v-72l316 64v-70l-316 -64v-171h106q82 0 131.5 39t67.5 103z" />
    <glyph glyph-name="Ruble.case" horiz-adv-x="909" 
d="M604 245h-274v-70h284v-71h-284v-104h-200v104h-123v71h123v70h-123v129h123v336h471q136 0 213.5 -60.5t77.5 -166.5q0 -110 -77.5 -174t-210.5 -64zM330 575v-201h227q59 0 91.5 26.5t32.5 74.5q0 47 -32.5 73.5t-91.5 26.5h-227z" />
    <glyph glyph-name="Rupee.case" horiz-adv-x="913" 
d="M857 599h-237q27 -36 33 -88h204v-70h-205q-13 -84 -82 -136.5t-209 -55.5h-22l297 -249h-248l-309 271v78h207q137 0 156 92h-363v70h362q-20 88 -141 88h-221v111h778v-111z" />
    <glyph glyph-name="Won.case" horiz-adv-x="1399" 
d="M1369 388h-120l-22 -65h142v-63h-164l-89 -260h-222l-89 260h-212l-89 -260h-221l-89 260h-164v63h142l-22 65h-120v64h98l-89 258h188l73 -258h205l91 258h207l90 -258h206l73 258h188l-89 -258h98v-64zM663 464l-4 -12h81l-4 12q-26 78 -34 136h-5q-8 -58 -34 -136z
M318 388l18 -65h124l23 65h-165zM615 323h169l-22 65h-125zM1063 323l18 65h-166l23 -65h125zM432 243l6 17h-84l4 -14q24 -84 31 -139h5q6 42 38 136zM1041 246l4 14h-85l6 -17q33 -92 39 -136h5q7 55 31 139z" />
    <glyph glyph-name="caronaccentcomb" horiz-adv-x="288" 
d="M105 520l-24 52q57 7 62 38h-93v100h182v-69q0 -106 -127 -121z" />
    <glyph glyph-name="Won.tf" 
d="M790 381h-54l-10 -65h64v-61h-74l-39 -255h-206l-30 255h-77l-30 -255h-206l-40 255h-73v61h64l-10 65h-54v60h44l-39 254h150l24 -254h83l38 254h174l38 -254h84l23 254h150l-39 -254h45v-60zM394 518l-9 -77h35l-9 77q-6 56 -7 82h-4q0 -2 -6 -82zM200 381l6 -65h53
l10 65h-69zM371 316h63l-7 65h-49zM599 316l6 65h-70l10 -65h54zM238 174l12 81h-39l8 -81q1 -9 3 -35.5t3 -46.5h3q5 34 10 82zM586 174l7 81h-39l12 -81q7 -52 10 -82h3q0 3 7 82z" />
    <glyph glyph-name="Lira.tf" 
d="M588 282l185 -23q-28 -128 -105.5 -193.5t-231.5 -65.5h-313v266l-91 -20v68l91 20v69l-91 -20v69l91 20v223h200v-180l277 60v-68l-277 -60v-69l277 60v-69l-277 -60v-165h86q76 0 121.5 38.5t57.5 99.5z" />
    <glyph glyph-name="Ruble.tf" 
d="M495 239h-168v-71h184v-69h-184v-99h-199v99h-96v69h96v71h-95v122h95v334h363q137 0 213.5 -60t76.5 -164q0 -105 -76.5 -168.5t-209.5 -63.5zM327 566v-205h132q59 0 90.5 27.5t31.5 76.5q0 48 -31 74.5t-90 26.5h-133z" />
    <glyph glyph-name="Rupee.tf" 
d="M763 584h-188q28 -40 32 -87h156v-69h-157q-26 -184 -270 -188h-14l303 -240h-247l-315 259v79h185q132 0 149 90h-334v69h334q-17 87 -136 87h-198v111h700v-111z" />
    <glyph glyph-name="Baht.tf" 
d="M607 360q79 -11 120 -53t41 -111q0 -96 -70.5 -146t-196.5 -50h-73v-107h-74v107h-295v695h295v89h74v-89h68q254 0 254 -178q0 -60 -38 -101.5t-105 -55.5zM354 575h-112v-173h112v173zM462 575h-34v-173h31q99 0 99 91q0 82 -96 82zM242 120h112v176h-112v-176z
M465 120q111 0 111 91q0 41 -28.5 63t-79.5 22h-40v-176h37z" />
    <glyph glyph-name="Bitcoin.tf" 
d="M764 196q0 -94 -67.5 -144t-189.5 -52v-107h-79v107h-109v-107h-80v107h-184v695h184v90h80v-90h109v90h79v-90q239 -6 239 -178q0 -60 -38 -101.5t-105 -55.5q79 -11 120 -53t41 -111zM457 574h-218v-172h215q99 0 99 91q0 81 -96 81zM460 121q111 0 111 90
q0 41 -28.5 63t-78.5 22h-225v-175h221z" />
    <glyph glyph-name="percentzerotfcomb" 
d="M193 365q-85 0 -135.5 48t-50.5 130q0 79 51 127t134 48q81 0 132.5 -49t51.5 -129q0 -79 -51 -127t-132 -48zM193 464q30 0 48 20.5t18 55.5q0 37 -18 57.5t-49 20.5t-49.5 -20t-18.5 -55v-1q0 -37 18.5 -57.5t50.5 -20.5z" />
    <glyph glyph-name="Won.tf.case" 
d="M790 390h-54l-10 -67h64v-62h-74l-39 -261h-206l-29 261h-79l-29 -261h-206l-40 261h-73v62h64l-10 67h-54v61h44l-39 259h150l24 -259h84l37 259h174l37 -259h85l23 259h150l-39 -259h45v-61zM394 533l-9 -82h35l-9 82q-6 56 -7 83h-4q0 -3 -6 -83zM199 390l6 -67h54
l10 67h-70zM370 323h65l-8 67h-49zM599 323l6 67h-70l10 -67h54zM238 175l12 86h-39l8 -86q1 -10 3 -36.5t3 -45.5h3q4 30 10 82zM586 175l8 86h-40l12 -86q7 -49 10 -82h3q0 4 7 82z" />
    <glyph glyph-name="Lira.tf.case" 
d="M588 286l185 -23q-28 -130 -105.5 -196.5t-231.5 -66.5h-313v271l-91 -20v70l91 20v72l-91 -20v69l91 20v228h201v-183l276 61v-69l-276 -61v-72l276 61v-70l-276 -61v-172h85q76 0 121.5 39.5t57.5 102.5z" />
    <glyph glyph-name="Ruble.tf.case" 
d="M495 247h-168v-74h184v-69h-184v-104h-199v104h-96v69h96v74h-95v122h95v341h363q136 0 213 -61t77 -165q0 -108 -77 -172.5t-209 -64.5zM327 581v-212h132q58 0 90 28.5t32 79.5q0 50 -31.5 77t-89.5 27h-133z" />
    <glyph glyph-name="Rupee.tf.case" 
d="M763 600h-189q28 -40 33 -91h156v-70h-157q-26 -188 -270 -192h-14l303 -247h-247l-315 267v79h185q132 0 149 93h-334v70h334q-17 91 -136 91h-198v111h700v-111z" />
    <glyph glyph-name="Baht.tf.case" 
d="M607 367q79 -11 120 -53.5t41 -112.5q0 -99 -70.5 -150t-196.5 -51h-73v-90h-74v90h-295v710h295v89h74v-89h68q254 0 254 -182q0 -62 -37.5 -103.5t-105.5 -57.5zM354 590h-112v-180h112v180zM462 590h-34v-180h31q99 0 99 95q0 85 -96 85zM242 120h112v184h-112v-184z
M465 120q111 0 111 96q0 42 -28.5 65t-79.5 23h-40v-184h37z" />
    <glyph glyph-name="Bitcoin.tf.case" 
d="M764 201q0 -97 -67.5 -148t-189.5 -53v-90h-79v90h-109v-90h-80v90h-184v710h184v91h80v-91h109v91h79v-91q239 -6 239 -182q0 -62 -37.5 -103.5t-105.5 -57.5q79 -11 120 -53.5t41 -112.5zM457 589h-218v-178h215q99 0 99 94q0 84 -96 84zM460 121q111 0 111 95
q0 42 -28.5 65t-78.5 23h-225v-183h221z" />
    </font>
</defs>
</svg>
