<?xml version="1.0" encoding="UTF-8" standalone="no"?>
<!-- Created with Inkscape (http://www.inkscape.org/) -->

<svg
   xmlns:dc="http://purl.org/dc/elements/1.1/"
   xmlns:cc="http://creativecommons.org/ns#"
   xmlns:rdf="http://www.w3.org/1999/02/22-rdf-syntax-ns#"
   xmlns:svg="http://www.w3.org/2000/svg"
   xmlns="http://www.w3.org/2000/svg"
   xmlns:xlink="http://www.w3.org/1999/xlink"
   xmlns:sodipodi="http://sodipodi.sourceforge.net/DTD/sodipodi-0.dtd"
   xmlns:inkscape="http://www.inkscape.org/namespaces/inkscape"
   width="400"
   height="400"
   viewBox="0 0 105.83333 105.83333"
   version="1.1"
   id="svg8"
   inkscape:version="0.92.2 (5c3e80d, 2017-08-06)"
   sodipodi:docname="quantal_logo.svg">
  <defs
     id="defs2">
    <path
       d="M 12.6813,-8.01155 C 8.25663,-15.0152 -1.00787,-17.1059 -8.01155,-12.6813 -15.0152,-8.25663 -17.1059,1.00787 -12.6813,8.01155 Z M 328.977,194.552 c 8.284,0 15,-6.716 15,-15 0,-8.285 -6.716,-15 -15,-15 z M -12.6813,8.01155 C 58.5979,120.838 185.663,194.552 328.977,194.552 v -30 C 196.1,164.552 78.5411,96.2363 12.6813,-8.01155 Z"
       id="path0_stroke-7"
       inkscape:connector-curvature="0" />
    <path
       d="M 29.4754,4.12862 C 31.7556,-3.83567 27.1477,-12.1405 19.1834,-14.4206 11.2191,-16.7008 2.9143,-12.0929 0.634129,-4.12862 Z M 18.6709,266.013 c 3.1609,7.657 11.9309,11.303 19.5885,8.142 7.6575,-3.161 11.3029,-11.931 8.142,-19.589 z M 0.634129,-4.12862 C -9.41256,31.0864 -14.9611,69.3437 -15,107.853 H 15 C 14.9611,71.5042 19.919,37.3842 29.4754,4.12862 Z M -15,107.853 c 0.115,54.659 14.364417,111.286 33.6709,158.16 L 46.4014,254.566 C 27.8448,209.712 14.885,158.804 15,107.853 Z"
       id="path1_stroke-7"
       inkscape:connector-curvature="0" />
    <path
       d="m -2.64265,305.776 c -8.15465,1.46 -13.58225,9.254 -12.12275,17.408 1.4595,8.155 9.25335,13.583 17.40805,12.123 z M 328.135,2.29478 c 1.267,-8.18675 -4.342,-15.85088 -12.529,-17.11818 -8.186,-1.2674 -15.851,4.3419 -17.118,12.52862 z M 2.64265,335.307 C 170.386,305.285 301.984,171.221 328.135,2.29478 L 298.488,-2.29478 C 274.305,153.922 152.533,278.004 -2.64265,305.776 Z"
       id="path2_stroke-9"
       inkscape:connector-curvature="0" />
    <path
       d="m 726.102,385.614 c 0,8.284 6.716,15 15,15 8.285,0 15,-6.716 15,-15 z M -13.7915,228.329 c -3.2577,7.616 0.276,16.432 7.8929,19.69 7.61686,3.257 16.4324,-0.276 19.6901,-7.893 z M 756.102,385.614 C 756.102,164.347 576.558,-15 355.11,-15 v 30 c 204.907,0 370.992,165.943 370.992,370.614 z M 355.11,-15 C 189.515,-15 47.3891,85.2817 -13.7915,228.329 l 27.583,11.797 C 70.4127,107.74 201.933,15 355.11,15 Z"
       id="path3_stroke-1"
       inkscape:connector-curvature="0" />
    <path
       d="m 246.495,130.747 c 0,8.285 6.715,15 15,15 8.284,0 15,-6.715 15,-15 z M 130.747,276.495 c 8.285,0 15,-6.716 15,-15 0,-8.285 -6.715,-15 -15,-15 z M 276.495,130.747 C 276.495,50.2533 211.241,-15 130.747,-15 v 30 c 63.926,0 115.748,51.8218 115.748,115.747 z M 130.747,-15 C 50.2533,-15 -15,50.2533 -15,130.747 H 15 C 15,66.8218 66.8218,15 130.747,15 Z M -15,130.747 c 0,80.494 65.2533,145.748 145.747,145.748 v -30 C 66.8218,246.495 15,194.673 15,130.747 Z"
       id="path4_stroke-3"
       inkscape:connector-curvature="0" />
    <path
       d="m 59.0837,67.6119 c 3.6458,7.4389 12.6318,10.5138 20.0707,6.868 7.4389,-3.6458 10.5138,-12.6317 6.868,-20.0706 z M 5.57562,-13.9252 c -7.6907,-3.0794 -16.42152,0.6589 -19.50082,8.34958 -3.0794,7.6907 0.6589,16.42152 8.34958,19.50082 z M 86.0224,54.4093 C 66.9753,16.8703 41.8969,0.679363 5.57562,-13.9252 L -5.57562,13.9252 C 28.3569,27.45 44.7286,36.997 59.0837,67.6119 Z"
       id="path5_stroke-1"
       inkscape:connector-curvature="0" />
    <path
       d="m 371.454,188.134 c 0,8.285 6.716,15 15,15 8.285,0 15,-6.715 15,-15 z m -182.2,209.896 c 8.284,0 15,-6.716 15,-15 0,-8.284 -6.716,-15 -15,-15 z m 212.2,-209.896 C 401.454,73.3175 305.375,-15 191.82,-15 v 30 c 98.323,0 179.634,76.1923 179.634,173.134 z M 191.82,-15 C 77.6044,-15 -15,77.5399 -15,191.712 H 15 C 15,94.1245 94.157,15 191.82,15 Z M -15,191.712 c 0,113.947 89.8154,206.318 204.254,206.318 v -30 C 91.8137,368.03 15,289.523 15,191.712 Z"
       id="path6_stroke-8"
       inkscape:connector-curvature="0" />
    <path
       d="m 129.083,129.657 c 2.92,7.753 11.571,11.672 19.324,8.753 7.753,-2.92 11.671,-11.571 8.752,-19.324 z M 3.08079,-14.6802 c -8.10766,-1.7015 -16.05949,3.4917 -17.76099,11.59941 -1.7015,8.10766 3.4917,16.05949 11.59941,17.76099 z M 157.159,119.086 C 131.24,50.2501 85.6231,2.64213 3.08079,-14.6802 L -3.08079,14.6802 C 68.1917,29.6375 106.31,69.1755 129.083,129.657 Z"
       id="path7_stroke-2"
       inkscape:connector-curvature="0" />
    <path
       d="m 506.459,265.773 c 0.283,8.279 7.225,14.761 15.504,14.478 8.28,-0.284 14.762,-7.225 14.478,-15.505 z M 255.771,534.074 c 8.282,0.202 15.159,-6.348 15.361,-14.63 0.202,-8.282 -6.348,-15.159 -14.63,-15.361 z M 536.441,264.746 C 530.34,86.5217 404.807,-15 255.83,-15 v 30 c 133.606,0 245.108,89.494 250.629,250.773 z M 255.83,-15 C 106.237,-15 -15,106.414 -15,256.146 H 15 C 15,122.947 122.841,15 255.83,15 Z M -15,256.146 c 0,148.905 102.9994,273.837 270.771,277.928 l 0.731,-29.991 C 106.38,500.423 15,390.174 15,256.146 Z"
       id="path8_stroke-6"
       inkscape:connector-curvature="0" />
    <path
       d="m 190.153,180.113 c 2.215,7.983 10.482,12.658 18.465,10.442 7.982,-2.215 12.658,-10.482 10.442,-18.465 z M 2.74277,-14.7471 c -8.14461,-1.5148 -15.97507,3.8597 -17.48987,12.00433 -1.5148,8.14461 3.8597,15.97507 12.00433,17.48987 z M 219.06,172.09 C 190.102,67.7452 94.45,2.30922 2.74277,-14.7471 L -2.74277,14.7471 C 80.69,30.2645 164.997,89.4693 190.153,180.113 Z"
       id="path9_stroke"
       inkscape:connector-curvature="0" />
    <path
       d="m 625.889,304.341 c 0,8.284 6.715,15 15,15 8.284,0 15,-6.716 15,-15 z M 316.167,655.532 c 8.284,0 15,-6.716 15,-15 0,-8.285 -6.716,-15 -15,-15 z M 655.889,304.341 C 655.889,122.677 489.887,-15 311.276,-15 V 15 C 476.49,15 625.889,142.249 625.889,304.341 Z M 311.276,-15 C 130.95,-15 -15,135.404 -15,311.213 H 15 C 15,151.714 147.776,15 311.276,15 Z M -15,311.213 c 0,175.015 150.077,344.319 331.167,344.319 v -30 C 153.432,625.532 15,471.505 15,311.213 Z"
       id="path10_stroke"
       inkscape:connector-curvature="0" />
    <path
       d="m 260.497,240.947 c 1.723,8.103 9.688,13.276 17.791,11.553 8.103,-1.723 13.276,-9.689 11.553,-17.792 z M 0.10569,-14.9996 C -8.17838,-15.058 -14.9413,-8.38976 -14.9996,-0.10569 -15.058,8.17838 -8.38976,14.9413 -0.10569,14.9996 Z M 289.841,234.708 C 275.451,167.031 232.555,105.028 179.275,59.9679 126.103,14.9991 60.817,-14.5718 0.10569,-14.9996 L -0.10569,14.9996 C 51.625,15.3641 110.375,40.9873 159.903,82.8743 209.322,124.67 247.79,181.185 260.497,240.947 Z"
       id="path11_stroke"
       inkscape:connector-curvature="0" />
  </defs>
  <sodipodi:namedview
     id="base"
     pagecolor="#ffffff"
     bordercolor="#666666"
     borderopacity="1.0"
     inkscape:pageopacity="0.0"
     inkscape:pageshadow="2"
     inkscape:zoom="1.4"
     inkscape:cx="244.11396"
     inkscape:cy="211.65283"
     inkscape:document-units="mm"
     inkscape:current-layer="Canvas"
     showgrid="false"
     fit-margin-top="0"
     fit-margin-left="0"
     fit-margin-right="0"
     fit-margin-bottom="0"
     inkscape:window-width="1280"
     inkscape:window-height="964"
     inkscape:window-x="-8"
     inkscape:window-y="-8"
     inkscape:window-maximized="1"
     units="px" />
  <metadata
     id="metadata5">
    <rdf:RDF>
      <cc:Work
         rdf:about="">
        <dc:format>image/svg+xml</dc:format>
        <dc:type
           rdf:resource="http://purl.org/dc/dcmitype/StillImage" />
        <dc:title></dc:title>
      </cc:Work>
    </rdf:RDF>
  </metadata>
  <g
     inkscape:label="Layer 1"
     inkscape:groupmode="layer"
     id="layer1"
     transform="translate(-2.6021466,-124.71906)">
    <g
       transform="matrix(0.26458333,0,0,0.26458333,-253.05925,-60.220523)"
       id="Canvas">
      <g
         id="logo"
         transform="matrix(0.48358165,0,0,0.49067295,505.43295,556.88526)">
        <g
           id="Oval 4">
          <use
             id="use3926"
             transform="rotate(65.999971,150.54149,1046.8771)"
             xlink:href="#path0_stroke-7"
             style="fill:#004f91"
             x="0"
             y="0"
             width="100%"
             height="100%" />
        </g>
        <g
           id="Oval 4 Copy">
          <use
             id="use3929"
             transform="rotate(65.999971,418.1883,1154.7372)"
             xlink:href="#path1_stroke-7"
             style="fill:#00abe5"
             x="0"
             y="0"
             width="100%"
             height="100%" />
        </g>
        <g
           id="Oval 3">
          <use
             id="use3932"
             transform="rotate(65.999971,67.038047,1425.3144)"
             xlink:href="#path2_stroke-9"
             style="fill:#00b1e2"
             x="0"
             y="0"
             width="100%"
             height="100%" />
        </g>
        <g
           id="Oval 2">
          <use
             id="use3935"
             transform="rotate(65.999971,620.28063,1322.9129)"
             xlink:href="#path3_stroke-1"
             style="fill:#004990"
             x="0"
             y="0"
             width="100%"
             height="100%" />
        </g>
        <g
           id="Group">
          <g
             id="Oval">
            <use
               id="use3938"
               transform="rotate(65.999971,313.04537,1367.4223)"
               xlink:href="#path4_stroke-3"
               style="fill:#004b8e"
               x="0"
               y="0"
               width="100%"
               height="100%" />
          </g>
          <g
             id="Oval Copy">
            <use
               id="use3941"
               transform="rotate(160.00002,612.06975,534.94707)"
               xlink:href="#path5_stroke-1"
               style="fill:#00b3e7"
               x="0"
               y="0"
               width="100%"
               height="100%" />
          </g>
        </g>
        <g
           id="Group Copy">
          <g
             id="g3947">
            <use
               id="use3945"
               transform="rotate(-160.00002,825.09721,341.19433)"
               xlink:href="#path6_stroke-8"
               style="fill:#004b8e"
               x="0"
               y="0"
               width="100%"
               height="100%" />
          </g>
          <g
             id="g3951">
            <use
               id="use3949"
               transform="rotate(-65.999971,1056.8084,-638.40828)"
               xlink:href="#path7_stroke-2"
               style="fill:#00b3e7"
               x="0"
               y="0"
               width="100%"
               height="100%" />
          </g>
        </g>
        <g
           id="Group Copy 2">
          <g
             id="g3956">
            <use
               id="use3954"
               transform="rotate(65.000019,470.90221,1348.1394)"
               xlink:href="#path8_stroke-6"
               style="fill:#004b8e"
               x="0"
               y="0"
               width="100%"
               height="100%" />
          </g>
          <g
             id="g3960">
            <use
               id="use3958"
               transform="rotate(158.99999,620.39416,606.74573)"
               xlink:href="#path9_stroke"
               style="fill:#00b3e7"
               x="0"
               y="0"
               width="100%"
               height="100%" />
          </g>
        </g>
        <g
           id="Group Copy 3">
          <g
             id="g3965">
            <use
               id="use3963"
               transform="rotate(-67.999982,1123.8827,-269.86081)"
               xlink:href="#path10_stroke"
               style="fill:#004b8e"
               x="0"
               y="0"
               width="100%"
               height="100%" />
          </g>
          <g
             id="g3969">
            <use
               id="use3967"
               transform="rotate(25.999994,-139.43306,3550.991)"
               xlink:href="#path11_stroke"
               style="fill:#00b3e7"
               x="0"
               y="0"
               width="100%"
               height="100%" />
          </g>
        </g>
      </g>
    </g>
  </g>

  <style>
    path{
      transform-origin: 00px -100px;
    }
    #Oval2{
      animation: spin 5s linear infinite;
    }
    @keyframes spin{
      from{
        transform: rotate(0deg);
      }
      to{
        transform: rotate(360deg);
      }
    }
  </style>

</svg>
