<?xml version="1.0" encoding="UTF-8" standalone="no"?>
<!-- Created with Inkscape (http://www.inkscape.org/) -->

<svg
	 xmlns:dc="http://purl.org/dc/elements/1.1/"
	 xmlns:cc="http://creativecommons.org/ns#"
	 xmlns:rdf="http://www.w3.org/1999/02/22-rdf-syntax-ns#"
	 xmlns:svg="http://www.w3.org/2000/svg"
	 xmlns="http://www.w3.org/2000/svg"
	 xmlns:sodipodi="http://sodipodi.sourceforge.net/DTD/sodipodi-0.dtd"
	 xmlns:inkscape="http://www.inkscape.org/namespaces/inkscape"
	 version="1.1"
	 id="svg3782"
	 width="740.21344"
	 height="743.94434"
	 viewBox="0 0 740.21344 743.94434"
	 sodipodi:docname="quantal_favicon.svg"
	 inkscape:version="0.92.2 (5c3e80d, 2017-08-06)">
	<metadata
		 id="metadata3788">
		<rdf:RDF>
			<cc:Work
				 rdf:about="">
				<dc:format>image/svg+xml</dc:format>
				<dc:type
					 rdf:resource="http://purl.org/dc/dcmitype/StillImage" />
				<dc:title></dc:title>
			</cc:Work>
		</rdf:RDF>
	</metadata>
	<defs
		 id="defs3786" />
	<sodipodi:namedview
		 pagecolor="#ffffff"
		 bordercolor="#666666"
		 borderopacity="1"
		 objecttolerance="10"
		 gridtolerance="10"
		 guidetolerance="10"
		 inkscape:pageopacity="0"
		 inkscape:pageshadow="2"
		 inkscape:window-width="1280"
		 inkscape:window-height="964"
		 id="namedview3784"
		 showgrid="false"
		 inkscape:zoom="0.59"
		 inkscape:cx="342.20242"
		 inkscape:cy="411.99132"
		 inkscape:window-x="-8"
		 inkscape:window-y="-8"
		 inkscape:window-maximized="1"
		 inkscape:current-layer="svg3782"
		 fit-margin-top="0"
		 fit-margin-left="0"
		 fit-margin-right="0"
		 fit-margin-bottom="0" />
	<path
		 style="fill:#094a94;fill-opacity:1;stroke:none;stroke-width:1.43578625;stroke-miterlimit:4;stroke-dasharray:none;stroke-opacity:1"
		 d="m 352.04502,506.28373 c -22.90133,-2.62136 -50.14176,-14.67515 -69.21538,-30.62753 -11.80532,-9.87347 -27.46394,-29.97856 -34.52936,-44.3344 -10.27214,-20.87144 -15.26138,-47.60342 -13.10435,-70.21215 1.92055,-20.13 5.56918,-32.7529 14.52055,-50.2357 7.62621,-14.89464 15.37565,-25.00756 29.08804,-37.95952 17.18216,-16.22932 34.05063,-25.31477 58.85867,-31.70161 11.60154,-2.98681 15.36096,-3.3972 31.3324,-3.42029 16.15816,-0.0234 19.67413,0.35893 32.05176,3.48494 16.40619,4.14343 36.91906,13.71515 48.85643,22.79738 9.72337,7.39776 24.23436,22.6394 30.40514,31.93607 5.56522,8.38437 14.03637,25.30957 16.73666,33.43956 3.64108,10.96249 6.60793,28.30423 6.60793,38.62448 0,0 -0.30261,6.34555 -1.3483,9.29734 -0.71915,2.03001 -3.30464,5.55181 -3.30464,5.55181 -5.44097,5.44097 -12.90411,6.18244 -18.40732,3.25961 -7.1638,-3.80478 -7.87925,-7.72514 -9.90213,-22.2287 -2.33365,-16.7315 -4.5579,-25.32928 -9.04832,-34.9761 -10.2434,-22.00601 -32.2669,-42.60411 -55.75827,-52.14951 -18.1827,-7.38829 -44.41622,-8.6606 -63.9803,-3.10302 -19.86124,5.64199 -39.53275,18.79624 -52.06931,34.81851 -7.67817,9.81304 -16.55813,27.06414 -19.39793,37.68438 -2.92173,10.92664 -3.57644,36.44543 -1.19497,46.57654 9.66536,41.11782 41.96063,72.69005 81.60451,79.77754 3.95501,0.70707 10.74381,1.58859 15.08624,1.95895 10.13661,0.86451 14.91476,3.7466 18.08201,10.9067 l 0.32515,5.31273 -0.60911,6.03571 c -1.50026,3.20313 -3.99894,6.65679 -5.55262,7.67479 -3.49074,2.28723 -15.00444,3.08533 -26.13318,1.81149 z"
		 id="path6144"
		 inkscape:connector-curvature="0"
		 sodipodi:nodetypes="ssssssscsssssacacssssssscscccs" />
	<path
		 style="fill:#33bdfa;fill-opacity:1;stroke:none;stroke-width:1.43578625;stroke-miterlimit:4;stroke-dasharray:none;stroke-opacity:1"
		 d="m 405.91086,497.75594 c -6.13895,-1.78415 -9.04622,-5.9656 -9.78088,-14.06756 0,0 -0.16293,-4.22719 0.61986,-6.12363 0.78788,-1.90879 3.90523,-4.8091 3.90523,-4.8091 2.21613,-2.72906 6.55743,-4.09319 8.24534,-4.51291 6.03718,-1.50124 19.67486,-10.71401 29.64213,-20.02438 11.51325,-10.75447 17.44722,-18.90569 24.4671,-33.60929 6.34223,-13.28423 9.02365,-15.4429 18.35306,-14.77506 5.78887,0.41439 7.56171,1.07547 9.77046,3.6433 4.35462,5.06254 4.79481,11.45574 1.37218,19.92931 -7.2274,17.89323 -19.02695,33.8936 -36.81934,49.92759 -10.88373,9.8081 -18.5398,14.84221 -31.95145,21.0091 -10.68632,4.91373 -11.87535,5.14139 -17.82369,3.41263 z"
		 id="path6146"
		 inkscape:connector-curvature="0"
		 sodipodi:nodetypes="csascssscsssc" />
	<path
		 style="fill:#00b5df;fill-opacity:1;stroke:none;stroke-width:1.43578625;stroke-miterlimit:4;stroke-dasharray:none;stroke-opacity:1"
		 d="m 207.31953,476.16439 c -6.23772,-3.63258 -20.11058,-34.50128 -26.34706,-58.62518 -3.16214,-12.23183 -3.62982,-16.34474 -4.15653,-36.55383 -0.61228,-23.49258 1.00142,-41.81326 5.05305,-57.36853 4.31388,-16.56209 16.28878,-44.32955 22.92318,-53.15434 3.23777,-4.30676 10.37662,-6.88884 15.49461,-5.60431 4.73744,1.18902 11.06731,8.14593 12.01681,13.20718 0.71119,3.79099 -0.0781,6.17007 -5.87052,17.69534 -7.65848,15.23813 -13.00944,29.93726 -15.8268,43.47628 -4.3022,20.67455 -3.45314,53.70516 1.90651,74.1677 1.31959,5.03803 5.39955,15.98426 9.06659,24.32496 9.85351,22.41185 10.65138,25.45232 8.09357,30.84251 -1.14325,2.40921 -3.73975,5.39333 -5.77001,6.63138 -4.03138,2.45833 -13.10883,2.98428 -16.5834,0.96084 z"
		 id="path6148"
		 inkscape:connector-curvature="0" />
	<path
		 style="fill:#2e68b5;fill-opacity:1;stroke:none;stroke-width:1.43578625;stroke-miterlimit:4;stroke-dasharray:none;stroke-opacity:1"
		 d="m 353.00554,566.07225 c -37.86575,-3.66524 -69.30637,-15.8918 -101.02346,-39.28578 -11.30669,-8.33962 -20.09909,-16.53015 -22.28729,-20.76167 -5.65688,-10.9392 2.05928,-23.76735 14.2961,-23.76735 4.47033,0 8.12214,2.3217 24.50635,15.58032 25.83761,20.9086 53.10135,32.03496 85.74165,34.99123 58.97117,5.34109 112.41177,-19.61038 147.41553,-68.82847 11.32703,-15.92672 18.46894,-31.81815 24.38162,-54.25148 2.95235,-11.20151 3.15606,-13.66907 3.11651,-37.75232 -0.0405,-24.68292 -0.19357,-26.34949 -3.63578,-39.59651 -2.04006,-7.85101 -6.25332,-19.46798 -9.74653,-26.8736 -22.26812,-47.20841 -59.56048,-77.89513 -110.20727,-90.68614 -12.4871,-3.15365 -15.41623,-3.44088 -35.09018,-3.44088 -23.77266,0 -35.61297,1.85767 -54.91368,8.61562 -20.46334,7.16503 -32.8559,14.80577 -61.3497,37.82572 -3.65068,2.94935 -5.9914,3.89508 -9.64056,3.89508 -10.19558,0 -16.56714,-6.08884 -16.56714,-15.83202 0,-6.32654 2.66843,-10.34328 12.7387,-19.17534 22.83708,-20.02911 51.18421,-35.27229 79.10816,-42.53906 16.32876,-4.2493 17.10499,-4.33332 44.88202,-4.85841 25.32052,-0.47866 29.55274,-0.27188 40.61537,1.98436 34.67399,7.07183 65.1008,21.8161 90.07149,43.64698 32.82612,28.69857 52.70463,61.82512 63.02584,105.02944 2.59234,10.85145 3.10039,16.29117 3.5873,38.40931 0.53204,24.16888 0.37703,26.70119 -2.49866,40.81847 -8.68198,42.62142 -27.40254,76.02391 -59.50189,106.16737 -30.54937,28.68792 -71.87878,46.85292 -115.57157,50.79572 -13.69289,1.23563 -17.69018,1.22158 -31.45293,-0.11062 z"
		 id="path6152"
		 inkscape:connector-curvature="0" />
	<path
		 style="fill:#3168b2;fill-opacity:1;stroke:none;stroke-width:2.03050828;stroke-miterlimit:4;stroke-dasharray:none;stroke-opacity:1"
		 d="m 331.02016,622.49206 c -49.9995,-7.28126 -97.36653,-31.0707 -136.17458,-68.3918 -21.7629,-20.92905 -36.17507,-40.03236 -49.30382,-65.35208 -20.80373,-40.12151 -27.26914,-68.36692 -27.26914,-119.13065 0,-32.31658 0.29083,-35.48059 5.01889,-54.60091 2.76039,-11.16306 6.63725,-24.49138 8.61524,-29.6185 31.96465,-82.85485 100.78917,-142.53794 185.61446,-160.96071 24.03783,-5.22065 76.69602,-5.30381 101.93234,-0.16098 49.51551,10.09062 91.52507,32.93381 127.63263,69.40174 44.97251,45.42136 69.24374,98.51116 73.82695,161.48577 0.65549,9.00679 0.70166,18.32891 0.10254,20.71581 -2.7658,11.01981 -17.54749,15.20705 -25.52425,7.23029 -3.4347,-3.4347 -4.14409,-6.29295 -5.15307,-20.76271 -1.35615,-19.44849 -6.27424,-45.74017 -11.34188,-60.63293 -1.94336,-5.71124 -7.99104,-19.15526 -13.43926,-29.8756 -27.28749,-53.69302 -71.19746,-91.43984 -127.91991,-109.96525 -27.56607,-9.003 -41.43826,-11.20273 -69.36468,-10.99922 -60.06898,0.43775 -113.27553,22.76757 -155.11314,65.09817 -31.95322,32.32973 -54.32582,74.93584 -61.77264,117.63903 -3.3202,19.03948 -3.37806,57.10729 -0.11508,75.71712 11.44398,65.26876 51.88542,123.17425 108.52629,155.39181 30.02572,17.07875 59.73518,25.99436 96.37859,28.92255 17.19078,1.37371 20.58132,2.13998 24.10137,5.44688 5.85915,5.50439 5.67515,15.51535 -0.38848,21.13493 -4.18339,3.87703 -5.63567,4.14247 -21.61017,3.94968 -9.41896,-0.11373 -21.68561,-0.87078 -27.2592,-1.68244 z"
		 id="path6154"
		 inkscape:connector-curvature="0" />
	<path
		 style="fill:#08aee4;fill-opacity:1;stroke:none;stroke-width:2.03050828;stroke-miterlimit:4;stroke-dasharray:none;stroke-opacity:1"
		 d="m 424.64281,611.24558 c -10.69499,-11.24383 -6.37641,-21.42478 11.64373,-27.44985 19.83619,-6.63225 48.59844,-21.39126 63.35172,-32.5082 42.64804,-32.13626 69.76195,-72.50842 84.09191,-125.21144 2.40794,-8.85593 5.95901,-17.8178 7.8913,-19.91525 5.07764,-5.51171 15.21601,-5.23329 21.02673,0.57742 4.04964,4.04965 4.3151,5.20372 3.41467,14.846 -2.05795,22.03809 -19.99613,66.06782 -37.90687,93.04339 -12.58953,18.96125 -38.51698,45.49867 -61.33892,62.78198 -21.01443,15.91448 -70.28868,38.49697 -83.99911,38.49697 -2.05791,0 -5.73673,-2.09746 -8.17516,-4.66102 z"
		 id="path6156"
		 inkscape:connector-curvature="0" />
	<path
		 style="fill:#064e92;fill-opacity:0.9997999;stroke:none;stroke-width:2.03050828;stroke-miterlimit:4;stroke-dasharray:none;stroke-opacity:1"
		 d="m 328.44211,682.57755 c -12.017,-1.53153 -45.35241,-9.5187 -60.06808,-14.39232 -18.69929,-6.19295 -44.97385,-18.87572 -64.49751,-31.13305 C 137.89928,595.6304 87.779887,528.16033 68.302247,454.5439 c -8.42523,-31.84349 -10.039107,-45.55386 -9.93488,-84.40001 0.0875,-32.59933 0.57014,-38.71414 4.57883,-58.00759 11.35309,-54.64137 33.93314,-101.4312 68.696073,-142.35031 14.74517,-17.35639 22.34539,-23.37092 29.5325,-23.37092 6.70001,0 13.09006,6.51708 14.15183,14.43314 0.86829,6.47361 0.37152,7.40365 -10.32837,19.33642 -37.22148,41.51029 -59.7006,85.41908 -70.588933,137.88238 -4.58977,22.11491 -6.13444,61.91752 -3.3368,85.98189 11.056573,95.10522 68.627433,176.55697 155.558763,220.08583 43.60971,21.83656 91.85377,30.97272 144.02858,27.27522 33.84734,-2.39867 59.10036,-8.64055 91.53041,-22.62394 70.55349,-30.42168 128.77623,-94.5876 152.95022,-168.5628 10.48028,-32.07092 12.60727,-46.59719 12.69335,-86.68949 0.0673,-31.36956 -0.45707,-39.08893 -3.76851,-55.47078 -9.90537,-49.0025 -31.41135,-92.14423 -65.5794,-131.55462 -7.95675,-9.17753 -14.93092,-18.53556 -15.49816,-20.79561 -2.55828,-10.19302 8.66456,-21.11456 19.08907,-18.57656 9.93477,2.41875 40.22909,39.14963 58.23565,70.6088 19.268,33.66303 31.56869,69.33196 37.24657,108.0058 24.28687,165.42561 -83.66122,319.84626 -246.78037,353.02143 -15.33514,3.11884 -24.99903,3.81823 -57.42131,4.15567 -21.44067,0.22316 -41.65254,0.0656 -44.91525,-0.3503 z"
		 id="path6158"
		 inkscape:connector-curvature="0" />
	<path
		 style="fill:#08ace5;fill-opacity:0.99937253;stroke:none;stroke-width:2.03050828;stroke-miterlimit:4;stroke-dasharray:none;stroke-opacity:1"
		 d="m 181.1075,143.64413 c -5.5479,-7.05301 -4.6018,-14.13872 2.84309,-21.293 23.59212,-22.671233 90.43112,-51.597413 134.32203,-58.131078 37.6639,-5.606705 76.09656,-4.985839 110.59681,1.786655 15.53039,3.04865 45.55592,11.78015 52.11505,15.15518 2.33051,1.19918 9.95763,4.68344 16.94916,7.74282 22.68601,9.92702 44.27413,22.569663 53.83589,31.527883 8.62412,8.07975 9.26912,9.20348 8.26919,14.40678 -0.59647,3.10393 -3.03464,7.3596 -5.41812,9.45706 -7.11874,6.26446 -13.17785,5.00889 -30.33168,-6.28531 C 472.66408,104.02097 411.9473,87.993797 350.20931,92.060027 c -27.38799,1.80384 -56.05335,8.040613 -81.93669,17.827103 -14.27526,5.39747 -41.2373,19.51899 -57.92391,30.33798 -14.86207,9.63603 -23.5517,10.65206 -29.24121,3.41902 z"
		 id="path6160"
		 inkscape:connector-curvature="0" />
	<a
		 id="a6170">
		<path
			 sodipodi:nodetypes="ccsssssscsssassssc"
			 inkscape:connector-curvature="0"
			 id="path6162"
			 d="m 713.9583,382.93279 c -2.28814,-2.28814 -4.1621,-5.52967 -4.16438,-7.20339 -0.0185,-13.7075 -4.2112,-52.19861 -7.5401,-69.22229 C 687.7876,232.5279 646.14503,161.27083 589.81133,114.10009 544.0344,75.769027 493.72372,51.068864 435.78192,38.47895 408.50979,32.553109 348.8753,30.962192 320.49238,35.40328 264.23892,44.205292 211.84896,65.829157 167.73299,98.454467 125.02581,130.03792 89.786877,172.3119 63.992957,222.90502 58.370117,233.93387 52.315975,243.73543 50.539316,244.68628 41.823497,249.35084 29.676059,244.02726 27.614135,234.63938 25.434242,224.7144 46.679526,183.57156 70.645427,151.30655 128.12052,73.928547 208.60843,24.118774 306.40821,5.4052633 323.2802,2.1768903 348.42165,-0.03072072 369.54381,3.2327842e-4 390.38777,0.03095328 413.62099,2.2488383 431.83194,5.5171923 546.53979,26.104026 643.04936,96.334537 697.65425,198.95745 c 17.01188,31.97167 31.26888,73.88939 37.39096,109.93505 3.70907,21.83832 6.35293,60.06108 4.62941,66.92815 -2.81405,11.21207 -17.54295,15.28553 -25.71632,7.11214 z"
			 style="fill:#0b5092;fill-opacity:0.93465409;stroke:none;stroke-width:2.03050828;stroke-miterlimit:4;stroke-dasharray:none;stroke-opacity:1" />
	</a>
	<path
		 style="fill:#07a9e9;fill-opacity:1;stroke:none;stroke-width:2.03050828;stroke-miterlimit:4;stroke-dasharray:none;stroke-opacity:1"
		 d="M 32.818602,525.21867 C 24.713265,516.47287 10.317906,471.0344 3.9533224,434.10638 -3.8520116,388.81896 0.3629214,308.90239 12.532797,271.43656 c 4.789673,-14.74535 16.818785,-19.28802 26.20918,-9.89763 5.859593,5.8596 6.0072,8.07438 1.617097,24.26401 -8.774377,32.35778 -10.641448,50.35976 -9.714236,93.66298 0.693429,32.38489 1.587359,43.97825 4.384778,56.86603 4.159597,19.16339 11.687697,45.25573 17.821925,61.7707 2.42227,6.52137 4.404126,14.37385 4.404126,17.44992 0,12.47708 -15.975548,18.79623 -24.437065,9.6661 z"
		 id="path6164"
		 inkscape:connector-curvature="0" />
	<path
		 style="fill:#276caf;fill-opacity:1;stroke:none;stroke-width:2.03050828;stroke-miterlimit:4;stroke-dasharray:none;stroke-opacity:1"
		 d="m 342.84889,742.99996 c -78.15659,-6.44911 -153.45913,-36.65558 -209.32203,-83.9664 -30.6681,-25.9731 -67.820803,-68.77973 -78.068917,-89.94951 -6.042383,-12.48189 -0.694176,-22.66898 11.901194,-22.66898 7.85321,0 10.2111,2.09223 22.14911,19.65351 4.49649,6.61452 15.072293,20.09408 23.501783,29.95458 58.53114,68.46757 142.43515,109.75159 236.41849,116.32705 27.2529,1.90673 32.3479,3.60575 34.31491,11.44297 2.47031,9.8425 -5.4732,19.03881 -17.31247,20.04283 -3.6481,0.30937 -14.26004,-0.0669 -23.58207,-0.83605 z"
		 id="path6166"
		 inkscape:connector-curvature="0" />
	<path
		 style="fill:#06a7fd;fill-opacity:1;stroke:none;stroke-width:2.03050828;stroke-miterlimit:4;stroke-dasharray:none;stroke-opacity:1"
		 d="m 418.52727,735.35231 c -6.40695,-5.39108 -8.30803,-13.01203 -4.64174,-18.60751 3.72165,-5.67995 6.68155,-6.98088 24.91553,-10.95081 51.15607,-11.13781 102.26917,-35.0529 139.71144,-65.36898 18.356,-14.86241 50.78792,-47.95524 62.89632,-64.17807 29.46387,-39.47566 54.86061,-96.90716 61.65165,-139.41738 0.98223,-6.1485 2.9079,-13.34885 4.27927,-16.00078 4.853,-9.38469 14.33347,-10.93647 22.88,-3.74504 5.34868,4.50062 5.41244,4.72929 4.3891,15.74007 -1.32402,14.24589 -13.18058,57.66338 -20.74383,75.96177 -20.33941,49.20876 -46.51203,88.62785 -83.48803,125.7429 -51.36417,51.55732 -111.93975,84.80907 -183.49488,100.72583 -10.83258,2.40961 -20.49864,4.3811 -21.48012,4.3811 -0.98149,0 -4.07511,-1.92739 -6.87471,-4.2831 z"
		 id="path6168"
		 inkscape:connector-curvature="0" />

		<style>
			path{
				transform-origin: 371px 371px;
			}
			#path6162,
			#path6164,
			#path6166,
			#path6168,
			#path6156,
			#path6154,
			#path6144,
			#path6146{
				animation: spin 6s linear infinite;
			}
			#path6160,
			#path6158,
			#path6152,
			#path6148{
				animation: spin 6s linear infinite reverse;
			}
			@keyframes spin{
				from{
					transform: rotate(0deg);
				}
				to{
					transform: rotate(360deg);
				}
			}
		</style>
</svg>